<svg width="56" height="56" viewBox="0 0 56 56" fill="none" xmlns="http://www.w3.org/2000/svg">
<mask id="mask0_1943_29103" style="mask-type:alpha" maskUnits="userSpaceOnUse" x="13" y="5" width="30" height="31">
<rect x="13" y="5.5" width="30" height="30" fill="#D9D9D9"/>
</mask>
<g mask="url(#mask0_1943_29103)">
<path d="M20.3125 26.875C21.375 26.0625 22.5625 25.4219 23.875 24.9531C25.1875 24.4844 26.5625 24.25 28 24.25C29.4375 24.25 30.8125 24.4844 32.125 24.9531C33.4375 25.4219 34.625 26.0625 35.6875 26.875C36.4167 26.0208 36.9844 25.0521 37.3906 23.9688C37.7969 22.8854 38 21.7292 38 20.5C38 17.7292 37.026 15.3698 35.0781 13.4219C33.1302 11.474 30.7708 10.5 28 10.5C25.2292 10.5 22.8698 11.474 20.9219 13.4219C18.974 15.3698 18 17.7292 18 20.5C18 21.7292 18.2031 22.8854 18.6094 23.9688C19.0156 25.0521 19.5833 26.0208 20.3125 26.875ZM28 21.75C26.7708 21.75 25.7344 21.3281 24.8906 20.4844C24.0469 19.6406 23.625 18.6042 23.625 17.375C23.625 16.1458 24.0469 15.1094 24.8906 14.2656C25.7344 13.4219 26.7708 13 28 13C29.2292 13 30.2656 13.4219 31.1094 14.2656C31.9531 15.1094 32.375 16.1458 32.375 17.375C32.375 18.6042 31.9531 19.6406 31.1094 20.4844C30.2656 21.3281 29.2292 21.75 28 21.75ZM28 33C26.2708 33 24.6458 32.6719 23.125 32.0156C21.6042 31.3594 20.2812 30.4688 19.1562 29.3438C18.0312 28.2188 17.1406 26.8958 16.4844 25.375C15.8281 23.8542 15.5 22.2292 15.5 20.5C15.5 18.7708 15.8281 17.1458 16.4844 15.625C17.1406 14.1042 18.0312 12.7812 19.1562 11.6562C20.2812 10.5312 21.6042 9.64063 23.125 8.98438C24.6458 8.32812 26.2708 8 28 8C29.7292 8 31.3542 8.32812 32.875 8.98438C34.3958 9.64063 35.7188 10.5312 36.8438 11.6562C37.9688 12.7812 38.8594 14.1042 39.5156 15.625C40.1719 17.1458 40.5 18.7708 40.5 20.5C40.5 22.2292 40.1719 23.8542 39.5156 25.375C38.8594 26.8958 37.9688 28.2188 36.8438 29.3438C35.7188 30.4688 34.3958 31.3594 32.875 32.0156C31.3542 32.6719 29.7292 33 28 33ZM28 30.5C29.1042 30.5 30.1458 30.3385 31.125 30.0156C32.1042 29.6927 33 29.2292 33.8125 28.625C33 28.0208 32.1042 27.5573 31.125 27.2344C30.1458 26.9115 29.1042 26.75 28 26.75C26.8958 26.75 25.8542 26.9115 24.875 27.2344C23.8958 27.5573 23 28.0208 22.1875 28.625C23 29.2292 23.8958 29.6927 24.875 30.0156C25.8542 30.3385 26.8958 30.5 28 30.5ZM28 19.25C28.5417 19.25 28.9896 19.0729 29.3437 18.7187C29.6979 18.3646 29.875 17.9167 29.875 17.375C29.875 16.8333 29.6979 16.3854 29.3437 16.0313C28.9896 15.6771 28.5417 15.5 28 15.5C27.4583 15.5 27.0104 15.6771 26.6563 16.0313C26.3021 16.3854 26.125 16.8333 26.125 17.375C26.125 17.9167 26.3021 18.3646 26.6563 18.7187C27.0104 19.0729 27.4583 19.25 28 19.25Z" fill="#E0A878"/>
</g>
<path d="M11.44 45.08H8.53L8.03 46.5H6.84L9.33 39.54H10.65L13.14 46.5H11.94L11.44 45.08ZM11.12 44.15L9.99 40.92L8.85 44.15H11.12ZM13.8427 43.74C13.8427 43.1733 13.956 42.6767 14.1827 42.25C14.416 41.8167 14.736 41.4833 15.1427 41.25C15.5493 41.0167 16.016 40.9 16.5427 40.9C17.2093 40.9 17.7593 41.06 18.1927 41.38C18.6327 41.6933 18.9293 42.1433 19.0827 42.73H17.8527C17.7527 42.4567 17.5927 42.2433 17.3727 42.09C17.1527 41.9367 16.876 41.86 16.5427 41.86C16.076 41.86 15.7027 42.0267 15.4227 42.36C15.1493 42.6867 15.0127 43.1467 15.0127 43.74C15.0127 44.3333 15.1493 44.7967 15.4227 45.13C15.7027 45.4633 16.076 45.63 16.5427 45.63C17.2027 45.63 17.6393 45.34 17.8527 44.76H19.0827C18.9227 45.32 18.6227 45.7667 18.1827 46.1C17.7427 46.4267 17.196 46.59 16.5427 46.59C16.016 46.59 15.5493 46.4733 15.1427 46.24C14.736 46 14.416 45.6667 14.1827 45.24C13.956 44.8067 13.8427 44.3067 13.8427 43.74ZM19.8388 43.74C19.8388 43.1733 19.9521 42.6767 20.1788 42.25C20.4121 41.8167 20.7321 41.4833 21.1388 41.25C21.5454 41.0167 22.0121 40.9 22.5388 40.9C23.2054 40.9 23.7554 41.06 24.1888 41.38C24.6288 41.6933 24.9254 42.1433 25.0788 42.73H23.8488C23.7488 42.4567 23.5888 42.2433 23.3688 42.09C23.1488 41.9367 22.8721 41.86 22.5388 41.86C22.0721 41.86 21.6988 42.0267 21.4188 42.36C21.1454 42.6867 21.0088 43.1467 21.0088 43.74C21.0088 44.3333 21.1454 44.7967 21.4188 45.13C21.6988 45.4633 22.0721 45.63 22.5388 45.63C23.1988 45.63 23.6354 45.34 23.8488 44.76H25.0788C24.9188 45.32 24.6188 45.7667 24.1788 46.1C23.7388 46.4267 23.1921 46.59 22.5388 46.59C22.0121 46.59 21.5454 46.4733 21.1388 46.24C20.7321 46 20.4121 45.6667 20.1788 45.24C19.9521 44.8067 19.8388 44.3067 19.8388 43.74ZM28.6048 46.59C28.0848 46.59 27.6148 46.4733 27.1948 46.24C26.7748 46 26.4448 45.6667 26.2048 45.24C25.9648 44.8067 25.8448 44.3067 25.8448 43.74C25.8448 43.18 25.9682 42.6833 26.2148 42.25C26.4615 41.8167 26.7982 41.4833 27.2248 41.25C27.6515 41.0167 28.1282 40.9 28.6548 40.9C29.1815 40.9 29.6582 41.0167 30.0848 41.25C30.5115 41.4833 30.8482 41.8167 31.0948 42.25C31.3415 42.6833 31.4648 43.18 31.4648 43.74C31.4648 44.3 31.3382 44.7967 31.0848 45.23C30.8315 45.6633 30.4848 46 30.0448 46.24C29.6115 46.4733 29.1315 46.59 28.6048 46.59ZM28.6048 45.6C28.8982 45.6 29.1715 45.53 29.4248 45.39C29.6848 45.25 29.8948 45.04 30.0548 44.76C30.2148 44.48 30.2948 44.14 30.2948 43.74C30.2948 43.34 30.2182 43.0033 30.0648 42.73C29.9115 42.45 29.7082 42.24 29.4548 42.1C29.2015 41.96 28.9282 41.89 28.6348 41.89C28.3415 41.89 28.0682 41.96 27.8148 42.1C27.5682 42.24 27.3715 42.45 27.2248 42.73C27.0782 43.0033 27.0048 43.34 27.0048 43.74C27.0048 44.3333 27.1548 44.7933 27.4548 45.12C27.7615 45.44 28.1448 45.6 28.6048 45.6ZM37.5818 40.99V46.5H36.4418V45.85C36.2618 46.0767 36.0251 46.2567 35.7318 46.39C35.4451 46.5167 35.1385 46.58 34.8118 46.58C34.3785 46.58 33.9885 46.49 33.6418 46.31C33.3018 46.13 33.0318 45.8633 32.8318 45.51C32.6385 45.1567 32.5418 44.73 32.5418 44.23V40.99H33.6718V44.06C33.6718 44.5533 33.7951 44.9333 34.0418 45.2C34.2885 45.46 34.6251 45.59 35.0518 45.59C35.4785 45.59 35.8151 45.46 36.0618 45.2C36.3151 44.9333 36.4418 44.5533 36.4418 44.06V40.99H37.5818ZM41.8659 40.9C42.2993 40.9 42.6859 40.99 43.0259 41.17C43.3726 41.35 43.6426 41.6167 43.8359 41.97C44.0293 42.3233 44.1259 42.75 44.1259 43.25V46.5H42.9959V43.42C42.9959 42.9267 42.8726 42.55 42.6259 42.29C42.3793 42.0233 42.0426 41.89 41.6159 41.89C41.1893 41.89 40.8493 42.0233 40.5959 42.29C40.3493 42.55 40.2259 42.9267 40.2259 43.42V46.5H39.0859V40.99H40.2259V41.62C40.4126 41.3933 40.6493 41.2167 40.9359 41.09C41.2293 40.9633 41.5393 40.9 41.8659 40.9ZM46.9101 41.92V44.97C46.9101 45.1767 46.9567 45.3267 47.0501 45.42C47.1501 45.5067 47.3167 45.55 47.5501 45.55H48.2501V46.5H47.3501C46.8367 46.5 46.4434 46.38 46.1701 46.14C45.8967 45.9 45.7601 45.51 45.7601 44.97V41.92H45.1101V40.99H45.7601V39.62H46.9101V40.99H48.2501V41.92H46.9101Z" fill="#242830"/>
</svg>
