<svg width="96" height="96" viewBox="0 0 96 96" fill="none" xmlns="http://www.w3.org/2000/svg">
<rect width="96" height="96" rx="20" fill="white"/>
<path d="M48.9995 42.1818V54.5746H66.2213C65.465 58.56 63.1957 61.9347 59.7921 64.2037L70.1775 72.262C76.2284 66.6767 79.7193 58.473 79.7193 48.7276C79.7193 46.4585 79.5158 44.2765 79.1375 42.1822L48.9995 42.1818Z" fill="#4285F4"/>
<path d="M31.066 54.0906L28.7237 55.8836L20.4326 62.3417C25.6981 72.7853 36.49 79.9999 48.999 79.9999C57.6388 79.9999 64.8823 77.149 70.177 72.2618L59.7916 64.2036C56.9406 66.1236 53.3043 67.2873 48.999 67.2873C40.679 67.2873 33.6101 61.6728 31.079 54.1091L31.066 54.0906Z" fill="#34A853"/>
<path d="M20.4325 33.6582C18.2508 37.9635 17 42.8217 17 47.9998C17 53.1779 18.2508 58.0362 20.4325 62.3415C20.4325 62.3704 31.0799 54.0796 31.0799 54.0796C30.4399 52.1596 30.0616 50.1234 30.0616 47.9995C30.0616 45.8756 30.4399 43.8393 31.0799 41.9194L20.4325 33.6582Z" fill="#FBBC05"/>
<path d="M48.9996 28.7418C53.7124 28.7418 57.9015 30.3709 61.2469 33.5127L70.4104 24.3492C64.8541 19.1711 57.6398 16 48.9996 16C36.4906 16 25.6981 23.1854 20.4326 33.6582L31.0797 41.92C33.6105 34.3563 40.6797 28.7418 48.9996 28.7418Z" fill="#EA4335"/>
</svg>
