<svg width="133" height="38" viewBox="0 0 133 38" fill="none" xmlns="http://www.w3.org/2000/svg">
<g clip-path="url(#clip0_1413_56398)">
<path d="M11.8003 3.21089C11.8003 3.55412 11.7266 3.86057 11.567 4.13024C11.4073 4.39992 11.2108 4.63283 10.953 4.8167C10.6951 5.00057 10.4249 5.15992 10.1179 5.29476C9.81091 5.4296 9.51619 5.51541 9.22146 5.56444C9.18462 7.59928 9.11094 9.56057 8.98814 11.4483C8.86534 13.3361 8.68114 15.2851 8.43554 17.3077H8.59518C8.87762 17.3077 9.17234 17.3444 9.4425 17.4057C9.71267 17.467 9.97055 17.5773 10.2039 17.7244C10.4372 17.8715 10.6091 18.0677 10.7442 18.2883C10.8793 18.509 10.953 18.7909 10.953 19.1096C10.953 19.5264 10.8179 19.8819 10.56 20.1883C10.3021 20.4948 9.95827 20.7522 9.52847 20.9728C9.09866 21.1935 8.63202 21.3651 8.10398 21.5122C7.57593 21.6593 7.06017 21.7696 6.53212 21.8554C6.00408 21.9412 5.51288 21.9902 5.04623 22.027C4.57959 22.0638 4.19891 22.0761 3.91646 22.0761C3.69542 22.0761 3.43754 22.0761 3.11826 22.0515C2.79898 22.027 2.50425 21.978 2.22181 21.8922C1.93937 21.8064 1.70605 21.6715 1.50957 21.4877C1.31308 21.3038 1.21484 21.0586 1.21484 20.7644C1.21484 20.3844 1.28852 20.0535 1.44817 19.747C1.60781 19.4406 1.80429 19.1831 2.06217 18.9502C2.32005 18.7173 2.60249 18.5212 2.9095 18.3864C3.2165 18.2515 3.54806 18.129 3.86734 18.0677C3.99014 17.0748 4.11295 16.0941 4.22347 15.1135C4.33399 14.1328 4.40767 13.1399 4.44451 12.1348C4.48135 11.1051 4.51819 10.0999 4.55503 9.09476C4.59187 8.0896 4.62871 7.0967 4.66555 6.07928C4.54275 6.09154 4.41995 6.11605 4.30943 6.11605C4.19891 6.11605 4.10067 6.12831 4.0147 6.12831C3.75682 6.12831 3.48666 6.10379 3.20422 6.0425C2.92178 5.98121 2.63933 5.89541 2.39373 5.76057C2.14813 5.62573 1.92709 5.45412 1.75517 5.25799C1.58325 5.06186 1.49729 4.80444 1.49729 4.49799C1.49729 3.88508 1.75517 3.3825 2.27093 2.99024C2.7867 2.59799 3.4007 2.29154 4.11295 2.07089C4.82519 1.85024 5.54972 1.70315 6.28652 1.6296C7.02333 1.55605 7.62505 1.50702 8.06714 1.50702C8.32502 1.50702 8.65658 1.51928 9.06182 1.55605C9.46707 1.59283 9.88459 1.67863 10.2898 1.80121C10.6951 1.92379 11.0512 2.09541 11.3459 2.31605C11.6406 2.5367 11.788 2.83089 11.788 3.21089H11.8003Z" fill="#FCA794" stroke="#98513A" stroke-miterlimit="10"/>
<path d="M27.9244 9.96508C27.9244 10.3573 27.9121 10.9212 27.8753 11.6567C27.8385 12.3922 27.7771 13.189 27.6665 14.0593C27.556 14.9296 27.4332 15.8244 27.249 16.7315C27.0648 17.6386 26.8315 18.4599 26.5491 19.1954C26.2666 19.9309 25.9105 20.5438 25.493 21.0219C25.0754 21.4999 24.5842 21.7328 24.0071 21.7328C23.4668 21.7328 22.9755 21.5735 22.5212 21.2548C22.0668 20.9361 21.6616 20.556 21.3055 20.0902C20.9493 19.6244 20.6301 19.1464 20.3599 18.6193C20.0897 18.0922 19.8687 17.6264 19.6845 17.1851C19.3038 16.2657 18.9231 15.3586 18.5547 14.476C18.1863 13.5935 17.8179 12.6864 17.4741 11.767V12.527C17.4741 13.2993 17.4741 14.0715 17.4618 14.8315C17.4495 15.5915 17.3881 16.3515 17.2899 17.1115C17.253 17.418 17.2162 17.7735 17.1671 18.178C17.1179 18.5825 17.0565 18.987 16.9583 19.3793C16.8601 19.7715 16.7373 20.1393 16.5653 20.4825C16.3934 20.8257 16.1601 21.0709 15.8777 21.2425C15.718 21.3283 15.5707 21.3896 15.4356 21.4019C15.3005 21.4141 15.1531 21.4509 14.9935 21.4877H14.9075C14.49 21.4877 14.1462 21.3528 13.8514 21.0709C13.5567 20.789 13.3234 20.4335 13.1269 19.9922C12.9304 19.5509 12.7708 19.0606 12.648 18.509C12.5252 17.9573 12.4392 17.418 12.3778 16.8909C12.3164 16.3638 12.2796 15.8735 12.255 15.4199C12.2305 14.9664 12.2305 14.6109 12.2305 14.3412C12.2305 13.9244 12.2427 13.3238 12.2796 12.5148C12.3164 11.7057 12.3901 10.8231 12.5129 9.85476C12.6357 8.88637 12.7831 7.88121 12.9673 6.86379C13.1515 5.84637 13.4094 4.9025 13.7164 4.06895C14.0234 3.23541 14.3918 2.54895 14.8216 2.02186C15.2514 1.49476 15.7549 1.22508 16.332 1.22508C16.9092 1.22508 17.3881 1.44573 17.8302 1.87476C18.2723 2.30379 18.6652 2.81863 19.0091 3.41928C19.3529 4.01992 19.6354 4.63282 19.8687 5.2825C20.102 5.93218 20.2985 6.47153 20.4581 6.90057C20.7651 7.74637 21.0599 8.59218 21.3546 9.42573C21.6493 10.2593 21.9195 11.1173 22.1896 11.9754C22.2019 12.0122 22.2387 12.1102 22.3001 12.2696C22.3615 12.429 22.4229 12.6128 22.4843 12.809C22.558 13.0296 22.644 13.2625 22.7545 13.5322C22.7545 13.2993 22.7545 13.1277 22.7422 13.0296C22.7299 12.9315 22.7299 12.8457 22.7299 12.7599V11.8528C22.7177 11.2644 22.6931 10.6638 22.6931 10.0754C22.6931 9.48702 22.6808 8.89863 22.6808 8.3225C22.6808 8.06508 22.6808 7.72186 22.6931 7.26831C22.7054 6.81476 22.7299 6.3367 22.7791 5.82186C22.8282 5.30702 22.8896 4.79218 22.9878 4.26508C23.0861 3.73799 23.2089 3.27218 23.3808 2.84315C23.5527 2.41411 23.7738 2.07089 24.0316 1.80121C24.2895 1.53153 24.6088 1.3967 24.9895 1.3967C25.4438 1.3967 25.8245 1.56831 26.1561 1.91153C26.4877 2.25476 26.7455 2.68379 26.9666 3.22315C27.1876 3.7625 27.3595 4.35089 27.4823 5.00057C27.6051 5.65024 27.7034 6.29992 27.7771 6.92508C27.8507 7.55024 27.8999 8.13863 27.9121 8.67799C27.9244 9.21734 27.9367 9.64637 27.9367 9.95282L27.9244 9.96508Z" fill="#FCA794" stroke="#98513A" stroke-miterlimit="10"/>
<path d="M41.4061 3.11283C41.4061 3.56638 41.2342 3.97089 40.8781 4.33864C40.5219 4.70638 40.1044 5.03735 39.6009 5.30702C39.0974 5.5767 38.594 5.8096 38.0782 5.99347C37.5624 6.17735 37.1203 6.29993 36.7765 6.37348C36.6291 7.75864 36.5186 9.1438 36.4327 10.5167C36.3467 11.8896 36.3099 13.2748 36.3099 14.6599C36.3099 15.3954 36.3221 16.1309 36.359 16.8419C36.3958 17.5528 36.4081 18.2761 36.4081 18.9993C36.4081 19.318 36.3713 19.6735 36.3099 20.0657C36.2485 20.458 36.1379 20.8135 35.9906 21.1567C35.8432 21.4999 35.6222 21.7819 35.352 22.0148C35.0818 22.2477 34.7503 22.3703 34.3573 22.3703C33.8907 22.3703 33.51 22.2354 33.2398 21.978C32.9697 21.7206 32.7486 21.4019 32.589 21.0219C32.4293 20.6419 32.3311 20.2496 32.282 19.8206C32.2329 19.3915 32.196 19.0115 32.196 18.6683C32.1592 17.5896 32.1346 16.4986 32.1101 15.4199C32.0855 14.3412 32.0855 13.238 32.0855 12.1348C32.0855 11.2154 32.0855 10.3206 32.0978 9.43799C32.1101 8.55541 32.1101 7.66057 32.1101 6.74122C31.8522 6.77799 31.6066 6.80251 31.3364 6.82702C31.0663 6.85154 30.8084 6.85154 30.5382 6.85154C30.3172 6.85154 30.0347 6.82702 29.6909 6.77799C29.347 6.72896 29.0032 6.65541 28.6716 6.53283C28.3401 6.41025 28.0699 6.2509 27.8366 6.04251C27.6033 5.83412 27.4805 5.56444 27.4805 5.24573C27.4805 4.70638 27.6892 4.22831 28.119 3.8238C28.5488 3.41928 29.0892 3.0638 29.74 2.7696C30.3909 2.47541 31.1277 2.21799 31.9259 2.0096C32.7241 1.80122 33.5223 1.64186 34.3082 1.51928C35.0941 1.3967 35.8187 1.31089 36.4695 1.26186C37.1203 1.21283 37.6361 1.17606 37.9922 1.17606C38.3484 1.17606 38.7045 1.18831 39.0852 1.21283C39.4658 1.23735 39.8342 1.31089 40.1781 1.44573C40.5219 1.58057 40.8044 1.76444 41.0254 2.0096C41.2465 2.25477 41.3693 2.61025 41.3693 3.0638L41.4061 3.11283Z" fill="#FCA794" stroke="#98513A" stroke-miterlimit="10"/>
<path d="M51.7956 17.3077C51.7956 17.6509 51.7097 17.9819 51.5255 18.3006C51.3413 18.607 50.9237 18.9625 50.2483 19.3793C49.5729 19.7961 48.8361 20.1883 48.0256 20.5561C47.2152 20.9238 46.4292 21.2425 45.6679 21.4999C44.9065 21.7574 44.3539 21.8922 43.9855 21.8922C43.7276 21.8922 43.4329 21.8309 43.089 21.7206C42.7452 21.6103 42.4014 21.4509 42.0575 21.2793C41.7137 21.1077 41.4067 20.887 41.1242 20.6541C40.8418 20.4212 40.6453 20.2006 40.5102 19.9799C40.4365 19.8574 40.3751 19.5999 40.3015 19.2199C40.2278 18.8399 40.1787 18.3986 40.1418 17.8961C40.105 17.3935 40.0559 16.8541 40.019 16.2903C39.9822 15.7264 39.9453 15.187 39.9208 14.6722C39.8962 14.1574 39.8717 13.7038 39.8717 13.3115C39.8717 12.9193 39.8594 12.6251 39.8594 12.4535C39.8594 11.7915 39.8839 11.0193 39.9331 10.1612C39.9822 9.30316 40.0681 8.43284 40.1909 7.55025C40.3137 6.66767 40.4979 5.84638 40.7435 5.03735C40.9891 4.22832 41.3207 3.55413 41.7259 3.00251C41.8488 2.84316 42.1066 2.67155 42.4873 2.48767C42.868 2.3038 43.3101 2.13219 43.8258 1.97284C44.3416 1.81348 44.8942 1.65413 45.4837 1.51929C46.0731 1.38445 46.6503 1.24961 47.2029 1.15154C47.7555 1.05348 48.259 0.967674 48.701 0.906384C49.1431 0.845093 49.4992 0.808319 49.7326 0.808319C50.0027 0.808319 50.2606 0.869609 50.5062 0.979932C50.7518 1.09025 50.9606 1.24961 51.1325 1.458C51.3044 1.66638 51.4395 1.87477 51.5377 2.11993C51.636 2.36509 51.6851 2.62251 51.6851 2.89219C51.6851 3.12509 51.6483 3.32122 51.5869 3.48058C51.5255 3.63993 51.4272 3.8238 51.3044 4.01993C51.1202 4.25284 50.7395 4.53477 50.1747 4.85348C49.6098 5.17219 48.9712 5.4909 48.2958 5.80961C47.6204 6.12832 46.9696 6.41026 46.3433 6.65542C45.717 6.90058 45.2872 7.08445 45.0293 7.19477C44.9556 7.61155 44.8819 8.02832 44.796 8.44509C44.71 8.86187 44.6609 9.2909 44.6241 9.73219C45.1889 9.45025 45.8152 9.16832 46.5152 8.92316C47.2152 8.678 47.8906 8.54316 48.5168 8.54316C49.794 8.54316 50.4325 9.16832 50.4325 10.4309C50.4325 10.7374 50.3711 11.007 50.2606 11.2399C50.1501 11.4728 49.9905 11.6812 49.8063 11.8651C49.622 12.049 49.401 12.2083 49.1554 12.3432C48.9098 12.478 48.6765 12.6128 48.4432 12.7354C47.866 13.0419 47.2643 13.3115 46.6257 13.5322C45.9871 13.7528 45.3609 13.9735 44.7346 14.1941C44.6977 14.3412 44.6609 14.5006 44.6241 14.6722C44.5872 14.8438 44.5749 15.0154 44.5749 15.1748C44.5749 15.4322 44.5872 15.6774 44.6241 15.9348L44.7346 16.6948C44.9556 16.6212 45.2995 16.5109 45.7784 16.3393C46.2573 16.1677 46.7608 16.0206 47.2766 15.849C47.7923 15.6774 48.3081 15.5425 48.787 15.4322C49.2659 15.3219 49.6343 15.2606 49.8677 15.2606C50.1378 15.2606 50.3957 15.3219 50.629 15.4322C50.8623 15.5425 51.0588 15.7019 51.2185 15.8857C51.3781 16.0696 51.5132 16.2903 51.6114 16.5477C51.7097 16.8051 51.7588 17.0503 51.7588 17.3077H51.7956Z" fill="#FCA794" stroke="#98513A" stroke-miterlimit="10"/>
<path d="M66.215 7.34186C66.215 8.57993 65.9326 9.69541 65.3554 10.6883C64.7783 11.6812 64.0169 12.5515 63.0591 13.3115C63.3415 13.7406 63.6485 14.2432 63.9555 14.8193C64.2625 15.3954 64.5327 16.0083 64.7783 16.6457C65.0239 17.2832 65.2204 17.9206 65.3677 18.558C65.5151 19.1954 65.601 19.7838 65.601 20.3232C65.601 20.8993 65.466 21.4141 65.1835 21.8799C64.9011 22.3457 64.4344 22.5664 63.759 22.5664C63.1941 22.5664 62.7152 22.2967 62.31 21.7573C61.9047 21.218 61.5486 20.5683 61.2293 19.8328C60.91 19.0973 60.6276 18.3251 60.3697 17.5528C60.1118 16.7806 59.8662 16.1554 59.6206 15.6896C59.3013 15.7999 58.9821 15.9225 58.6751 16.0573C58.3681 16.1922 58.0488 16.327 57.7295 16.4496C57.7172 16.8419 57.6804 17.3935 57.6313 18.0799C57.5821 18.7664 57.4839 19.4651 57.3365 20.1393C57.1892 20.8135 56.9559 21.4141 56.6488 21.9167C56.3418 22.4193 55.9243 22.6767 55.3717 22.6767C54.7823 22.6767 54.3156 22.4315 53.9963 21.9535C53.6771 21.4754 53.4437 20.887 53.3087 20.2251C53.1736 19.5632 53.0999 18.8767 53.0753 18.1902C53.0508 17.5038 53.0508 16.9522 53.0508 16.5599C53.0508 15.7141 53.0631 14.8806 53.0999 14.0593C53.1367 13.238 53.149 12.4044 53.149 11.5586C53.149 10.7864 53.1367 10.0141 53.1122 9.24186C53.0876 8.4696 53.0753 7.68509 53.0753 6.88831V6.20186C53.0753 5.91992 53.0876 5.63799 53.1122 5.3438C53.1367 5.0496 53.1736 4.76767 53.2104 4.49799C53.2473 4.22831 53.3087 4.00767 53.3946 3.84831C53.5788 3.46831 53.9841 3.11283 54.6226 2.7696C55.2612 2.42638 55.9612 2.13218 56.7348 1.8625C57.5085 1.59283 58.2453 1.3967 58.9821 1.23734C59.7189 1.07799 60.2592 1.00444 60.6153 1.00444C61.5363 1.00444 62.3468 1.17605 63.0468 1.51928C63.7467 1.8625 64.3362 2.32831 64.8028 2.90444C65.2695 3.48057 65.6256 4.16702 65.8589 4.92702C66.0922 5.68702 66.215 6.49605 66.215 7.34186ZM61.217 7.72186C61.217 7.25605 61.1065 6.90057 60.8978 6.65541C60.689 6.41025 60.3329 6.28767 59.8417 6.28767C59.4855 6.28767 59.1171 6.34896 58.7487 6.47154C58.3803 6.59412 58.0365 6.74122 57.7295 6.90057C57.8032 8.32251 57.8277 9.73218 57.8155 11.1419C58.1961 11.0193 58.5768 10.8599 58.9821 10.6515C59.3873 10.4432 59.7434 10.2102 60.075 9.92831C60.4066 9.64638 60.689 9.31541 60.8978 8.95992C61.1065 8.60444 61.217 8.18767 61.217 7.72186Z" fill="#FCA794" stroke="#98513A" stroke-miterlimit="10"/>
<path d="M82.8893 9.96508C82.8893 10.3573 82.877 10.9212 82.8401 11.6567C82.8033 12.3922 82.7419 13.189 82.6314 14.0593C82.5209 14.9296 82.3981 15.8244 82.2139 16.7315C82.0297 17.6386 81.7963 18.4599 81.5139 19.1954C81.2315 19.9309 80.8753 20.5438 80.4578 21.0219C80.0403 21.4999 79.5491 21.7328 78.9719 21.7328C78.4316 21.7328 77.9404 21.5735 77.486 21.2548C77.0317 20.9361 76.6264 20.556 76.2703 20.0902C75.9142 19.6244 75.5949 19.1464 75.3247 18.6193C75.0546 18.0922 74.8335 17.6264 74.6493 17.1851C74.2686 16.2657 73.888 15.3586 73.5196 14.476C73.1512 13.5935 72.7828 12.6864 72.4389 11.767V12.527C72.4389 13.2993 72.4389 14.0715 72.4266 14.8315C72.4143 15.5915 72.3529 16.3515 72.2547 17.1115C72.2179 17.418 72.181 17.7735 72.1319 18.178C72.0828 18.5825 72.0214 18.987 71.9231 19.3793C71.8249 19.7715 71.7021 20.1393 71.5302 20.4825C71.3583 20.8257 71.1249 21.0709 70.8425 21.2425C70.6829 21.3283 70.5355 21.3896 70.4004 21.4019C70.2653 21.4141 70.118 21.4509 69.9583 21.4877H69.8724C69.4548 21.4877 69.111 21.3528 68.8163 21.0709C68.5216 20.789 68.2882 20.4335 68.0918 19.9922C67.8953 19.5509 67.7356 19.0606 67.6128 18.509C67.49 17.9573 67.4041 17.418 67.3427 16.8909C67.2813 16.3638 67.2444 15.8735 67.2199 15.4199C67.1953 14.9664 67.1953 14.6109 67.1953 14.3412C67.1953 13.9244 67.2076 13.3238 67.2444 12.5148C67.2813 11.7057 67.355 10.8231 67.4778 9.85476C67.6006 8.88637 67.7479 7.88121 67.9321 6.86379C68.1163 5.84637 68.3742 4.9025 68.6812 4.06895C68.9882 3.23541 69.3566 2.54895 69.7864 2.02186C70.2162 1.49476 70.7197 1.22508 71.2969 1.22508C71.874 1.22508 72.3529 1.44573 72.795 1.87476C73.2371 2.30379 73.6301 2.81863 73.9739 3.41928C74.3178 4.01992 74.6002 4.63282 74.8335 5.2825C75.0668 5.93218 75.2633 6.47153 75.423 6.90057C75.73 7.74637 76.0247 8.59218 76.3194 9.42573C76.6141 10.2593 76.8843 11.1173 77.1545 11.9754C77.1667 12.0122 77.2036 12.1102 77.265 12.2696C77.3264 12.429 77.3878 12.6128 77.4492 12.809C77.5229 13.0296 77.6088 13.2625 77.7193 13.5322C77.7193 13.2993 77.7193 13.1277 77.7071 13.0296C77.6948 12.9315 77.6948 12.8457 77.6948 12.7599V11.8528C77.6825 11.2644 77.658 10.6638 77.658 10.0754C77.658 9.48702 77.6457 8.89863 77.6457 8.3225C77.6457 8.06508 77.6457 7.72186 77.658 7.26831C77.6702 6.81476 77.6948 6.3367 77.7439 5.82186C77.793 5.30702 77.8544 4.79218 77.9527 4.26508C78.0509 3.73799 78.1737 3.27218 78.3456 2.84315C78.5176 2.41411 78.7386 2.07089 78.9965 1.80121C79.2544 1.53153 79.5736 1.3967 79.9543 1.3967C80.4087 1.3967 80.7894 1.56831 81.1209 1.91153C81.4525 2.25476 81.7104 2.68379 81.9314 3.22315C82.1525 3.7625 82.3244 4.35089 82.4472 5.00057C82.57 5.65024 82.6682 6.29992 82.7419 6.92508C82.8156 7.55024 82.8647 8.13863 82.877 8.67799C82.8893 9.21734 82.9016 9.64637 82.9016 9.95282L82.8893 9.96508Z" fill="#FCA794" stroke="#98513A" stroke-miterlimit="10"/>
<path d="M93.526 2.59799C93.526 3.01476 93.3909 3.37025 93.133 3.6767C92.8752 3.98315 92.5559 4.24057 92.1998 4.4367C91.8805 4.63283 91.5366 4.84122 91.2051 5.07412C90.8735 5.30702 90.5419 5.55218 90.2595 5.83412C89.9771 6.11606 89.7315 6.42251 89.5595 6.76573C89.3876 7.10896 89.2894 7.48896 89.2894 7.93025C89.2894 8.31025 89.3753 8.65347 89.5595 8.95993C89.7437 9.26638 89.9648 9.57283 90.2227 9.86702C90.4805 10.1612 90.7753 10.4677 91.0823 10.7864C91.3893 11.1051 91.684 11.4483 91.9419 11.8406C92.1998 12.2328 92.4208 12.6619 92.605 13.1522C92.7892 13.6425 92.8752 14.2064 92.8752 14.8561C92.8752 15.3096 92.7769 15.8122 92.5927 16.3761C92.4085 16.9399 92.1506 17.5161 91.8191 18.0922C91.4875 18.6683 91.1068 19.2199 90.6647 19.7715C90.2227 20.3232 89.756 20.789 89.2525 21.218C88.7491 21.647 88.2333 21.978 87.693 22.2477C87.1526 22.5173 86.6246 22.6399 86.1211 22.6399C85.5562 22.6399 85.065 22.4928 84.6352 22.1864C84.2054 21.8799 83.9844 21.4264 83.9844 20.8135C83.9844 20.3967 84.0826 20.0167 84.2791 19.6612C84.4756 19.3057 84.7212 18.9748 85.0036 18.6438C85.2861 18.3128 85.6176 18.0064 85.9615 17.6999C86.3053 17.3935 86.6369 17.087 86.9193 16.7806C87.2018 16.4741 87.4474 16.1554 87.6438 15.8244C87.8403 15.4935 87.9386 15.138 87.9386 14.758C87.9386 14.2309 87.7544 13.7038 87.386 13.1522C87.0176 12.6006 86.6123 12.0367 86.158 11.4483C85.7036 10.8599 85.2983 10.2593 84.9299 9.65864C84.5615 9.05799 84.3773 8.42057 84.3773 7.79541C84.3773 7.02315 84.5861 6.20186 85.0036 5.35605C85.4211 4.51025 85.9492 3.71347 86.6 3.00251C87.2509 2.29154 87.9754 1.70315 88.7859 1.23734C89.5964 0.771538 90.3946 0.538635 91.1928 0.538635C91.8191 0.538635 92.3594 0.722506 92.8138 1.10251C93.2681 1.48251 93.4892 1.99734 93.4892 2.64702L93.526 2.59799Z" fill="#FCA794" stroke="#98513A" stroke-miterlimit="10"/>
<path d="M107.448 6.10379C107.448 7.59928 107.411 9.09476 107.338 10.6025C107.264 12.1102 107.178 13.6057 107.068 15.1012C107.055 15.3709 107.031 15.7386 107.018 16.1922C107.006 16.6457 106.969 17.1483 106.908 17.6754C106.847 18.2025 106.785 18.7419 106.687 19.2812C106.589 19.8206 106.454 20.3109 106.269 20.7522C106.085 21.1935 105.84 21.549 105.545 21.8309C105.25 22.1128 104.882 22.2477 104.452 22.2477C104.071 22.2477 103.74 22.1619 103.433 22.0025C103.126 21.8431 102.892 21.6348 102.684 21.3651C102.475 21.0954 102.327 20.8012 102.229 20.4702C102.131 20.1393 102.07 19.796 102.07 19.4283C102.07 18.8399 102.082 18.2393 102.119 17.6386C102.156 17.038 102.205 16.4373 102.278 15.849L99.6013 16.1186C99.5521 16.5844 99.4907 17.1483 99.4293 17.8102C99.3679 18.4722 99.2451 19.0973 99.0487 19.698C98.8522 20.2986 98.5697 20.8135 98.2013 21.2548C97.8329 21.6961 97.3049 21.9044 96.6295 21.9044C96.212 21.9044 95.8681 21.8064 95.598 21.6225C95.3278 21.4386 95.1068 21.1935 94.9471 20.8993C94.7875 20.6051 94.6647 20.2741 94.591 19.9186C94.5173 19.5631 94.4805 19.2199 94.4805 18.889C94.4805 17.8102 94.5296 16.7315 94.6156 15.6651C94.7015 14.5986 94.7629 13.5199 94.7997 12.4412C94.8366 11.3135 94.8489 10.1735 94.8366 9.02121C94.8243 7.86895 94.8366 6.72895 94.8734 5.57669C94.8857 5.19669 94.9103 4.7554 94.9103 4.25282C94.9103 3.75024 94.984 3.27218 95.0945 2.83089C95.205 2.3896 95.4138 2.02186 95.6839 1.7154C95.9541 1.40895 96.3839 1.26186 96.9365 1.26186C97.7101 1.26186 98.2996 1.47024 98.6925 1.87476C99.0855 2.27928 99.3679 2.78186 99.5276 3.3825C99.6872 3.98315 99.7732 4.62057 99.7732 5.29476V7.12121C99.7732 7.84444 99.7609 8.54315 99.7241 9.24186C99.6872 9.94057 99.6504 10.627 99.6136 11.338L102.512 10.909C102.524 10.0264 102.548 9.15605 102.561 8.28573C102.573 7.4154 102.61 6.55734 102.671 5.69928C102.684 5.2825 102.708 4.84121 102.72 4.3754C102.733 3.9096 102.806 3.48057 102.941 3.07605C103.077 2.67153 103.285 2.35282 103.58 2.0954C103.875 1.83799 104.329 1.70315 104.919 1.70315C105.422 1.70315 105.84 1.85024 106.147 2.13218C106.454 2.41411 106.711 2.7696 106.908 3.18637C107.104 3.60315 107.227 4.04444 107.301 4.51024C107.375 4.97605 107.411 5.40508 107.411 5.78508V6.14057L107.448 6.10379Z" fill="#FCA794" stroke="#98513A" stroke-miterlimit="10"/>
<path d="M118.589 3.21089C118.589 3.55412 118.516 3.86057 118.356 4.13024C118.196 4.39992 118 4.63283 117.742 4.8167C117.484 5.00057 117.214 5.15992 116.907 5.29476C116.6 5.4296 116.305 5.51541 116.011 5.56444C115.974 7.59928 115.9 9.56057 115.777 11.4483C115.654 13.3361 115.47 15.2851 115.225 17.3077H115.384C115.667 17.3077 115.961 17.3444 116.232 17.4057C116.502 17.467 116.76 17.5773 116.993 17.7244C117.226 17.8715 117.398 18.0677 117.533 18.2883C117.668 18.509 117.742 18.7909 117.742 19.1096C117.742 19.5264 117.607 19.8819 117.349 20.1883C117.091 20.4948 116.747 20.7522 116.318 20.9728C115.888 21.1935 115.421 21.3651 114.893 21.5122C114.365 21.6593 113.849 21.7696 113.321 21.8554C112.793 21.9412 112.302 21.9902 111.835 22.027C111.369 22.0638 110.988 22.0761 110.706 22.0761C110.484 22.0761 110.227 22.0761 109.907 22.0515C109.588 22.027 109.293 21.978 109.011 21.8922C108.728 21.8064 108.495 21.6715 108.299 21.4877C108.102 21.3038 108.004 21.0586 108.004 20.7644C108.004 20.3844 108.078 20.0535 108.237 19.747C108.397 19.4406 108.593 19.1831 108.851 18.9502C109.109 18.7173 109.392 18.5212 109.699 18.3864C110.006 18.2515 110.337 18.129 110.656 18.0677C110.779 17.0748 110.902 16.0941 111.013 15.1135C111.123 14.1328 111.197 13.1399 111.234 12.1348C111.27 11.1051 111.307 10.0999 111.344 9.09476C111.381 8.0896 111.418 7.0967 111.455 6.07928C111.332 6.09154 111.209 6.11605 111.098 6.11605C110.988 6.11605 110.89 6.12831 110.804 6.12831C110.546 6.12831 110.276 6.10379 109.993 6.0425C109.711 5.98121 109.428 5.89541 109.183 5.76057C108.937 5.62573 108.716 5.45412 108.544 5.25799C108.372 5.06186 108.286 4.80444 108.286 4.49799C108.286 3.88508 108.544 3.3825 109.06 2.99024C109.576 2.59799 110.19 2.29154 110.902 2.07089C111.614 1.85024 112.339 1.70315 113.076 1.6296C113.812 1.55605 114.414 1.50702 114.856 1.50702C115.114 1.50702 115.446 1.51928 115.851 1.55605C116.256 1.59283 116.674 1.67863 117.079 1.80121C117.484 1.92379 117.84 2.09541 118.135 2.31605C118.43 2.5367 118.577 2.83089 118.577 3.21089H118.589Z" fill="#FCA794" stroke="#98513A" stroke-miterlimit="10"/>
<path d="M131.518 7.07219C131.518 8.04057 131.309 8.9967 130.879 9.92832C130.45 10.8599 129.897 11.7057 129.185 12.4535C128.472 13.2012 127.674 13.8141 126.778 14.2922C125.881 14.7703 124.948 15.0399 123.99 15.089C123.978 15.4077 123.953 15.8244 123.953 16.3148C123.953 16.8051 123.917 17.3322 123.855 17.8715C123.794 18.4109 123.72 18.9503 123.622 19.4896C123.524 20.029 123.376 20.5193 123.192 20.9483C123.008 21.3773 122.762 21.7328 122.467 22.0025C122.173 22.2722 121.804 22.407 121.375 22.407C120.871 22.407 120.466 22.2354 120.171 21.9044C119.876 21.5735 119.643 21.169 119.496 20.7032C119.348 20.2373 119.238 19.747 119.189 19.2322C119.14 18.7173 119.103 18.2883 119.078 17.9206C119.041 17.3935 119.017 16.8909 119.004 16.3761C118.992 15.8612 118.992 15.3586 118.992 14.8315V13.5199C118.992 12.8825 118.992 12.147 119.004 11.338C119.017 10.529 119.029 9.65864 119.041 8.77606C119.054 7.89348 119.09 7.05993 119.127 6.28767C119.164 5.51541 119.201 4.86574 119.25 4.32638C119.299 3.78703 119.348 3.46832 119.422 3.38251C119.434 3.37025 119.496 3.32122 119.582 3.25993C119.668 3.19864 119.766 3.13735 119.876 3.07606C119.987 3.01477 120.085 2.95348 120.171 2.90444C120.257 2.85541 120.318 2.81864 120.355 2.79412C121.19 2.32832 122.099 1.9238 123.081 1.58057C124.064 1.23735 125.059 1.06573 126.029 1.06573C126.864 1.06573 127.613 1.23735 128.288 1.56832C128.964 1.89928 129.541 2.34057 130.02 2.89219C130.499 3.4438 130.867 4.08122 131.113 4.80444C131.358 5.52767 131.493 6.28767 131.493 7.05993L131.518 7.07219ZM126.839 7.69735C126.839 7.34186 126.753 7.02315 126.581 6.75348C126.409 6.4838 126.127 6.34896 125.734 6.34896C125.39 6.34896 125.046 6.42251 124.702 6.55735C124.359 6.69219 124.039 6.82702 123.757 6.97412C123.806 7.59928 123.855 8.21219 123.904 8.81283C123.953 9.41348 123.953 10.0141 123.917 10.6515C124.199 10.5044 124.518 10.3451 124.862 10.149C125.206 9.95283 125.525 9.74444 125.808 9.51154C126.09 9.27864 126.336 9.00896 126.532 8.71477C126.729 8.42057 126.827 8.07735 126.827 7.69735H126.839Z" fill="#FCA794" stroke="#98513A" stroke-miterlimit="10"/>
<path d="M15.6438 25.839V26.8196H12.365V37.6435H11.1862V26.8196H7.88281V25.839H15.6561H15.6438Z" fill="#FCA794" stroke="#98513A" stroke-miterlimit="10"/>
<path d="M30.5882 37.6435L27.6655 32.7157H25.4797V37.6435H24.3008V25.839H27.8497C29.1637 25.839 30.1707 26.1577 30.8583 26.7828C31.546 27.4202 31.8776 28.2415 31.8776 29.2712C31.8776 30.1293 31.632 30.8525 31.1408 31.4532C30.6496 32.0538 29.9251 32.4461 28.9672 32.6299L32.0127 37.6435H30.5882ZM25.4797 31.7473H27.862C28.783 31.7473 29.483 31.5267 29.9496 31.0732C30.4163 30.6196 30.6496 30.019 30.6496 29.2712C30.6496 28.5235 30.4285 27.8983 29.9742 27.4693C29.5198 27.0525 28.8076 26.8319 27.8374 26.8319H25.4674V31.7473H25.4797Z" fill="#FCA794" stroke="#98513A" stroke-miterlimit="10"/>
<path d="M47.8425 34.8486H42.4638L41.4323 37.6557H40.1797L44.49 25.9983H45.8285L50.1266 37.6557H48.874L47.8425 34.8486ZM47.4863 33.868L45.1531 27.4815L42.8199 33.868H47.4863Z" fill="#FCA794" stroke="#98513A" stroke-miterlimit="10"/>
<path d="M59.0158 28.6216C59.5193 27.7022 60.2193 26.9912 61.1034 26.4764C61.9876 25.9616 62.97 25.7041 64.0507 25.7041C65.3646 25.7041 66.5067 26.0106 67.44 26.6357C68.3733 27.2609 69.0609 28.1435 69.4908 29.2835H68.1031C67.7593 28.4867 67.2435 27.8616 66.5558 27.408C65.8681 26.9545 65.0208 26.7338 64.0384 26.7338C63.1665 26.7338 62.3929 26.9422 61.6929 27.3467C60.9929 27.7512 60.4526 28.3396 60.0596 29.0996C59.6667 29.8596 59.4702 30.7422 59.4702 31.7474C59.4702 32.7525 59.6667 33.6228 60.0596 34.3828C60.4526 35.1428 60.9929 35.719 61.6929 36.1235C62.3806 36.528 63.1665 36.7364 64.0384 36.7364C65.0208 36.7364 65.8558 36.5157 66.5558 36.0745C67.2558 35.6332 67.7715 35.008 68.1031 34.2235H69.4908C69.0609 35.3512 68.3733 36.2216 67.4277 36.8467C66.4821 37.4719 65.3524 37.7783 64.0384 37.7783C62.9577 37.7783 61.9753 37.5209 61.0912 37.0061C60.207 36.4912 59.5193 35.7803 59.0036 34.8732C58.5001 33.9661 58.2422 32.9241 58.2422 31.7596C58.2422 30.5951 58.5001 29.5654 59.0036 28.6461L59.0158 28.6216Z" fill="#FCA794" stroke="#98513A" stroke-miterlimit="10"/>
<path d="M84.9292 37.6435L79.7961 32.1886V37.6435H78.6172V25.839H79.7961V31.3673L84.9292 25.839H86.4396L80.9013 31.7351L86.4887 37.6435H84.9292Z" fill="#FCA794" stroke="#98513A" stroke-miterlimit="10"/>
<path d="M96.175 26.8074V31.2203H100.657V32.2009H96.175V36.6751H101.173V37.6558H94.9961V25.8267H101.173V26.8074H96.175Z" fill="#FCA794" stroke="#98513A" stroke-miterlimit="10"/>
<path d="M116.573 37.6435L113.65 32.7157H111.464V37.6435H110.285V25.839H113.834C115.148 25.839 116.155 26.1577 116.843 26.7828C117.53 27.4202 117.862 28.2415 117.862 29.2712C117.862 30.1293 117.616 30.8525 117.125 31.4532C116.634 32.0538 115.909 32.4461 114.952 32.6299L117.997 37.6435H116.573ZM111.464 31.7473H113.846C114.767 31.7473 115.467 31.5267 115.934 31.0732C116.401 30.6196 116.634 30.019 116.634 29.2712C116.634 28.5235 116.413 27.8983 115.959 27.4693C115.504 27.0525 114.792 26.8319 113.822 26.8319H111.452V31.7473H111.464Z" fill="#FCA794" stroke="#98513A" stroke-miterlimit="10"/>
</g>
<defs>
<clipPath id="clip0_1413_56398">
<rect width="132.625" height="38" fill="white"/>
</clipPath>
</defs>
</svg>
