<svg width="431" height="78" viewBox="0 0 431 78" fill="none" xmlns="http://www.w3.org/2000/svg">
<g clip-path="url(#clip0_1647_45812)">
<path d="M107.801 24.205C99.864 10.6079 81.5008 11.1885 77.6307 11.3129C73.5997 11.4425 59.413 11.8935 51.4963 22.8676C50.2963 24.5316 45.3094 31.4468 46.9977 40.3888C49.3561 52.8869 62.5298 57.5938 63.1428 57.8012C63.4025 58.9157 63.5999 60.3931 63.4285 62.1089C62.9973 66.4477 60.5039 69.3455 59.4649 70.4289C60.9974 70.1852 65.7297 69.2366 69.1894 65.0947C70.6647 63.3271 71.4491 61.5283 71.8854 60.2013C89.7343 63.7833 105.547 55.9661 109.91 44.0641C113.495 34.2771 108.196 24.8737 107.807 24.205H107.801ZM63.1791 39.0099C61.2415 39.0255 59.6519 37.4652 59.6416 35.5264C59.6312 33.5877 61.1896 32.0066 63.1272 31.9911C65.07 31.9755 66.6544 33.5358 66.67 35.4746C66.6855 37.4133 65.1219 38.9944 63.1791 39.0099ZM78.6749 38.8907C76.7373 38.9063 75.1477 37.3459 75.1321 35.4124C75.1165 33.4788 76.6801 31.8926 78.6229 31.877C80.5657 31.8615 82.1501 33.4218 82.1657 35.3605C82.1813 37.2993 80.6177 38.8803 78.6749 38.8959V38.8907ZM94.1706 38.7715C92.233 38.787 90.6434 37.2267 90.6278 35.2931C90.6122 33.3596 92.1758 31.7734 94.1186 31.7578C96.0615 31.7423 97.6458 33.3026 97.6614 35.2413C97.677 37.18 96.1134 38.7611 94.1706 38.7767V38.7715Z" fill="#0A2249"/>
<path d="M42.047 17.891C42.047 22.2143 40.9769 26.1488 38.8419 29.6893C36.7069 33.2299 33.8498 36.195 30.2707 38.5744C32.1564 38.9528 33.7875 39.5956 35.1693 40.5027C36.5511 41.4099 37.6991 42.5244 38.6082 43.8411C39.5172 45.1578 40.2081 46.6455 40.6808 48.3095C41.1536 49.9735 41.3873 51.7101 41.3873 53.5296C41.3873 57.1012 40.5562 60.2219 38.8887 62.8863C37.2212 65.5508 35.0706 67.7435 32.4369 69.4697C29.798 71.1959 26.863 72.4763 23.6267 73.3265C20.3904 74.1714 17.1749 74.5965 13.9698 74.5965C12.2088 74.5965 10.453 74.4721 8.69201 74.2181C6.93101 73.9693 5.26872 73.5286 3.69992 72.9014C3.1337 72.7148 2.66618 71.9476 2.28697 70.5998C1.90776 69.252 1.61166 67.6088 1.39348 65.6648C1.17011 63.7209 0.998689 61.6215 0.874017 59.3665C0.749345 57.1116 0.650646 54.9499 0.593504 52.8816C0.531168 50.8133 0.5 48.9938 0.5 47.4283V37.5117C0.5 35.2878 0.562336 33.0795 0.687008 30.8816C0.687008 30.3166 0.702592 29.4405 0.733761 28.2482C0.764929 27.056 0.796097 25.7237 0.827265 24.2515C0.858433 22.7794 0.920769 21.2294 1.01427 19.5965C1.10778 17.9688 1.23245 16.4448 1.38829 15.0348C1.54413 13.6248 1.7675 12.417 2.04801 11.4165C2.32853 10.416 2.66099 9.78878 3.035 9.53477C4.47912 8.5965 6.07909 7.69971 7.84008 6.85475C9.59588 6.00979 11.4192 5.2737 13.3049 4.64646C15.1906 4.01922 17.0762 3.51639 18.9567 3.14316C20.8424 2.76993 22.6293 2.57812 24.328 2.57812C26.65 2.57812 28.8993 2.9047 31.0655 3.56304C33.2317 4.22139 35.1173 5.20631 36.7173 6.52299C38.3173 7.83967 39.6055 9.45183 40.5821 11.3646C41.5536 13.2775 42.0419 15.4547 42.0419 17.8962L42.047 17.891ZM26.4059 22.8727C26.4059 21.81 26.0786 21.022 25.4189 20.5244C24.7592 20.0216 23.8968 19.7728 22.8267 19.7728C21.9436 19.7728 21.019 19.9594 20.0476 20.3378C19.071 20.7162 18.2398 21.219 17.5489 21.8411C17.3619 22.0277 17.1853 22.5616 17.0295 23.4377C16.8736 24.3138 16.749 25.3039 16.6503 26.3976C16.5568 27.4966 16.4944 28.5282 16.4633 29.5027C16.4321 30.4773 16.4165 31.1149 16.4165 31.4311V32.0428C16.4165 32.3227 16.4321 32.6234 16.4633 32.9344C16.4944 33.2506 16.5412 33.5305 16.6035 33.7794C16.6658 34.0282 16.7593 34.1526 16.884 34.1526C17.9541 34.1526 19.0502 33.7638 20.1826 32.9759C21.3151 32.1931 22.3332 31.2237 23.2423 30.0626C24.1514 28.9014 24.9046 27.6677 25.502 26.351C26.0994 25.0343 26.3955 23.8783 26.3955 22.8727H26.4059ZM26.0267 50.0461C26.0267 48.9782 25.6526 48.2266 24.8942 47.7911C24.141 47.3557 23.2943 47.1328 22.3488 47.1328C21.4709 47.1328 20.5411 47.335 19.5697 47.7445C18.5931 48.154 17.7931 48.6361 17.1697 49.2011C16.9827 49.3255 16.8425 49.6417 16.7438 50.1394C16.6503 50.6422 16.5879 51.1917 16.5568 51.7827C16.5256 52.3788 16.4944 52.9438 16.4633 53.4726C16.4321 54.0065 16.4165 54.3642 16.4165 54.556V55.3076C16.4165 55.6809 16.4321 56.0748 16.4633 56.4844C16.4944 56.8939 16.5568 57.2671 16.6503 57.6144C16.7438 57.9617 16.8528 58.1328 16.9775 58.1328C17.8554 58.1328 18.832 57.884 19.8969 57.3811C20.967 56.8783 21.954 56.2511 22.8631 55.4994C23.7722 54.7478 24.5254 53.8873 25.1228 52.9127C25.7202 51.9433 26.0163 50.9843 26.0163 50.0461H26.0267Z" fill="#0A2249"/>
<path d="M156.049 17.891C156.049 22.2143 154.979 26.1488 152.844 29.6893C150.709 33.2299 147.852 36.195 144.273 38.5744C146.159 38.9528 147.79 39.5956 149.172 40.5027C150.554 41.4099 151.702 42.5244 152.611 43.8411C153.52 45.1578 154.211 46.6455 154.683 48.3095C155.156 49.9735 155.39 51.7101 155.39 53.5296C155.39 57.1012 154.559 60.2219 152.891 62.8863C151.224 65.5508 149.073 67.7435 146.439 69.4697C143.8 71.1959 140.865 72.4763 137.629 73.3265C134.393 74.1714 131.177 74.5965 127.972 74.5965C126.211 74.5965 124.455 74.4721 122.694 74.2181C120.933 73.9693 119.271 73.5286 117.702 72.9014C117.136 72.7148 116.669 71.9476 116.289 70.5998C115.91 69.252 115.614 67.6088 115.396 65.6648C115.173 63.7209 115.001 61.6215 114.876 59.3665C114.752 57.1116 114.653 54.9499 114.596 52.8816C114.534 50.8133 114.502 48.9938 114.502 47.4283V37.5117C114.502 35.2878 114.565 33.0795 114.689 30.8816C114.689 30.3166 114.705 29.4405 114.736 28.2482C114.767 27.056 114.799 25.7237 114.83 24.2515C114.861 22.7794 114.923 21.2294 115.017 19.5965C115.11 17.9688 115.235 16.4448 115.391 15.0348C115.547 13.6248 115.77 12.417 116.05 11.4165C116.331 10.416 116.663 9.78878 117.037 9.53477C118.482 8.5965 120.082 7.69971 121.843 6.85475C123.598 6.00979 125.422 5.2737 127.307 4.64646C129.193 4.01922 131.079 3.51639 132.959 3.14316C134.845 2.76993 136.632 2.57812 138.33 2.57812C140.652 2.57812 142.902 2.9047 145.068 3.56304C147.234 4.22139 149.12 5.20631 150.72 6.52299C152.32 7.83967 153.608 9.45183 154.585 11.3646C155.556 13.2775 156.044 15.4547 156.044 17.8962L156.049 17.891ZM140.408 22.8727C140.408 21.81 140.081 21.022 139.421 20.5244C138.762 20.0216 137.899 19.7728 136.829 19.7728C135.946 19.7728 135.021 19.9594 134.05 20.3378C133.073 20.7162 132.242 21.219 131.551 21.8411C131.364 22.0277 131.188 22.5616 131.032 23.4377C130.876 24.3138 130.751 25.3039 130.653 26.3976C130.559 27.4966 130.497 28.5282 130.466 29.5027C130.435 30.4773 130.419 31.1149 130.419 31.4311V32.0428C130.419 32.3227 130.435 32.6234 130.466 32.9344C130.497 33.2506 130.544 33.5305 130.606 33.7794C130.668 34.0282 130.762 34.1526 130.886 34.1526C131.957 34.1526 133.053 33.7638 134.185 32.9759C135.318 32.1931 136.336 31.2237 137.245 30.0626C138.154 28.9014 138.907 27.6677 139.504 26.351C140.102 25.0343 140.398 23.8783 140.398 22.8727H140.408ZM140.029 50.0461C140.029 48.9782 139.655 48.2266 138.897 47.7911C138.143 47.3557 137.297 47.1328 136.351 47.1328C135.473 47.1328 134.544 47.335 133.572 47.7445C132.596 48.154 131.796 48.6361 131.172 49.2011C130.985 49.3255 130.845 49.6417 130.746 50.1394C130.653 50.6422 130.59 51.1917 130.559 51.7827C130.528 52.3788 130.497 52.9438 130.466 53.4726C130.435 54.0065 130.419 54.3642 130.419 54.556V55.3076C130.419 55.6809 130.435 56.0748 130.466 56.4844C130.497 56.8939 130.559 57.2671 130.653 57.6144C130.746 57.9617 130.855 58.1328 130.98 58.1328C131.858 58.1328 132.834 57.884 133.899 57.3811C134.969 56.8783 135.956 56.2511 136.866 55.4994C137.775 54.7478 138.528 53.8873 139.125 52.9127C139.723 51.9433 140.019 50.9843 140.019 50.0461H140.029Z" fill="#0A2249"/>
<path d="M207.867 59.5433C207.867 60.7978 207.758 62.3011 207.539 64.0584C207.316 65.8157 206.895 67.49 206.267 69.0866C205.638 70.6833 204.791 72.031 203.721 73.13C202.651 74.2238 201.238 74.7733 199.482 74.7733C197.16 74.7733 195.415 73.9283 194.251 72.2332C193.088 70.5433 192.257 68.5216 191.753 66.1682C191.249 63.8199 190.953 61.4198 190.859 58.9783C190.766 56.5315 190.688 54.5928 190.625 53.1517C186.101 53.9033 181.644 54.5617 177.249 55.1267C177.125 56.5678 176.854 58.3562 176.449 60.4867C176.039 62.6173 175.415 64.6701 174.564 66.6451C173.712 68.6201 172.616 70.3256 171.265 71.7667C169.914 73.2078 168.262 73.9283 166.32 73.9283C164.813 73.9283 163.634 73.3788 162.787 72.2851C161.94 71.1913 161.296 69.8901 160.855 68.3817C160.413 66.8784 160.148 65.3284 160.055 63.7266C159.961 62.13 159.915 60.7978 159.915 59.7299C159.915 56.1583 160.195 52.6333 160.761 49.155C161.328 45.6767 161.987 42.2139 162.74 38.7667C163.12 36.9472 163.618 34.8166 164.247 32.3751C164.875 29.9283 165.644 27.409 166.553 24.8067C167.462 22.2045 168.533 19.6333 169.758 17.0984C170.984 14.5584 172.382 12.2879 173.951 10.2817C175.519 8.27562 177.312 6.64791 179.322 5.39343C181.332 4.13896 183.561 3.51172 186.013 3.51172C188.465 3.51172 190.47 4.04565 192.231 5.10833C193.986 6.17619 195.529 7.58618 196.849 9.3383C198.168 11.0956 199.264 13.0862 200.147 15.31C201.025 17.5339 201.763 19.794 202.36 22.0801C202.958 24.3661 203.456 26.6107 203.867 28.8034C204.277 30.9962 204.636 32.9401 204.952 34.6352C205.768 38.7096 206.459 42.8308 207.025 46.9985C207.591 51.1663 207.872 55.3496 207.872 59.5485L207.867 59.5433ZM189.685 36.6983C189.685 35.9467 189.639 34.7078 189.545 32.9867C189.452 31.2657 189.244 29.5395 188.932 27.8133C188.615 26.0923 188.132 24.5527 187.472 23.2049C186.813 21.8571 185.919 21.1833 184.787 21.1833C184.158 21.1833 183.561 21.6083 182.995 22.4533C182.428 23.2982 181.924 24.3661 181.488 25.6517C181.047 26.9373 180.657 28.3628 180.309 29.9283C179.961 31.4938 179.665 33.0023 179.415 34.4434C179.166 35.8845 178.974 37.1856 178.849 38.3468C178.724 39.5079 178.626 40.3374 178.569 40.8402C182.335 40.5292 186.044 40.0574 189.685 39.4302V36.7035V36.6983Z" fill="#0A2249"/>
<path d="M253.845 9.23966C253.845 10.8052 253.232 12.2359 252.006 13.5163C250.78 14.8019 249.304 15.9319 247.58 16.9013C245.85 17.8759 244.079 18.6742 242.255 19.2962C240.432 19.9235 238.925 20.3641 237.731 20.6129C237.227 25.439 236.837 30.2496 236.551 35.0446C236.271 39.8396 236.125 44.6501 236.125 49.4762C236.125 52.0474 236.188 54.5875 236.313 57.0912C236.437 59.6002 236.5 62.1091 236.5 64.6129C236.5 65.743 236.39 66.9819 236.172 68.3245C235.949 69.6723 235.575 70.9423 235.04 72.1346C234.505 73.3268 233.767 74.3273 232.827 75.1412C231.887 75.955 230.723 76.3645 229.341 76.3645C227.705 76.3645 226.406 75.9084 225.43 75.0012C224.453 74.094 223.7 72.9795 223.17 71.6628C222.635 70.3462 222.276 68.9517 222.084 67.4795C221.897 66.0073 221.804 64.6751 221.804 63.4828C221.679 59.7246 221.58 55.9456 221.523 52.1511C221.461 48.3617 221.43 44.5516 221.43 40.726C221.43 37.5276 221.445 34.3966 221.477 31.3226C221.508 28.2538 221.523 25.1176 221.523 21.9192C220.645 22.0436 219.747 22.1421 218.838 22.1991C217.929 22.2613 216.999 22.2924 216.058 22.2924C215.305 22.2924 214.313 22.2147 213.092 22.0592C211.866 21.9037 210.687 21.6237 209.56 21.2142C208.427 20.8047 207.456 20.2448 206.64 19.5243C205.825 18.8038 205.415 17.881 205.415 16.751C205.415 14.8693 206.152 13.226 207.627 11.816C209.103 10.406 210.988 9.18264 213.279 8.15107C215.57 7.11949 218.116 6.23825 220.91 5.5177C223.705 4.79715 226.469 4.23212 229.201 3.82779C231.933 3.41827 234.442 3.12279 236.738 2.93617C239.029 2.74956 240.806 2.65625 242.063 2.65625C243.258 2.65625 244.525 2.7029 245.881 2.79621C247.232 2.88952 248.504 3.15908 249.699 3.59452C250.894 4.03514 251.881 4.69348 252.665 5.56954C253.45 6.4456 253.845 7.66897 253.845 9.23448V9.23966Z" fill="#0A2249"/>
<path d="M295.584 59.5433C295.584 60.7978 295.475 62.3011 295.257 64.0584C295.033 65.8157 294.613 67.49 293.984 69.0866C293.355 70.6833 292.509 72.031 291.439 73.13C290.368 74.2238 288.956 74.7733 287.2 74.7733C284.878 74.7733 283.132 73.9283 281.969 72.2332C280.805 70.5433 279.974 68.5216 279.47 66.1682C278.966 63.8199 278.67 61.4198 278.577 58.9783C278.483 56.5315 278.405 54.5928 278.343 53.1517C273.818 53.9033 269.361 54.5617 264.966 55.1267C264.842 56.5678 264.572 58.3562 264.167 60.4867C263.756 62.6173 263.133 64.6701 262.281 66.6451C261.434 68.6201 260.333 70.3256 258.982 71.7667C257.632 73.2078 255.98 73.9283 254.037 73.9283C252.53 73.9283 251.351 73.3788 250.504 72.2851C249.658 71.1913 249.014 69.8901 248.572 68.3817C248.131 66.8784 247.866 65.3284 247.772 63.7266C247.679 62.13 247.632 60.7978 247.632 59.7299C247.632 56.1583 247.912 52.6333 248.479 49.155C249.045 45.6767 249.705 42.2139 250.458 38.7667C250.837 36.9472 251.336 34.8166 251.964 32.3751C252.593 29.9283 253.362 27.409 254.271 24.8067C255.18 22.2045 256.25 19.6333 257.476 17.0984C258.702 14.5584 260.099 12.2879 261.668 10.2817C263.237 8.27562 265.029 6.64791 267.039 5.39343C269.049 4.13896 271.278 3.51172 273.73 3.51172C276.182 3.51172 278.187 4.04565 279.948 5.10833C281.704 6.17619 283.247 7.58618 284.566 9.3383C285.885 11.0956 286.982 13.0862 287.865 15.31C288.743 17.5339 289.48 19.794 290.078 22.0801C290.675 24.3661 291.174 26.6107 291.584 28.8034C291.994 30.9962 292.353 32.9401 292.67 34.6352C293.485 38.7096 294.176 42.8308 294.742 46.9985C295.309 51.1663 295.589 55.3496 295.589 59.5485L295.584 59.5433ZM277.403 36.6983C277.403 35.9467 277.356 34.7078 277.262 32.9867C277.169 31.2657 276.961 29.5395 276.649 27.8133C276.332 26.0923 275.849 24.5527 275.19 23.2049C274.53 21.8571 273.636 21.1833 272.504 21.1833C271.875 21.1833 271.278 21.6083 270.712 22.4533C270.146 23.2982 269.642 24.3661 269.205 25.6517C268.764 26.9373 268.374 28.3628 268.026 29.9283C267.678 31.4938 267.382 33.0023 267.133 34.4434C266.883 35.8845 266.691 37.1856 266.566 38.3468C266.442 39.5079 266.343 40.3374 266.286 40.8402C270.052 40.5292 273.761 40.0574 277.403 39.4302V36.7035V36.6983Z" fill="#0A2249"/>
<path d="M346.648 60.4818C346.648 62.0473 346.004 63.5247 344.715 64.8984C343.427 66.2772 341.765 67.5317 339.723 68.6566C337.682 69.7867 335.406 70.7716 332.892 71.6165C330.378 72.4615 327.9 73.1821 325.448 73.7782C322.996 74.3743 320.69 74.8253 318.524 75.1415C316.358 75.4526 314.643 75.6133 313.391 75.6133C312.139 75.6133 310.924 75.5044 309.573 75.2867C308.223 75.069 307.106 74.5817 306.228 73.83C305.724 73.4516 305.288 72.6067 304.908 71.29C304.534 69.9733 304.171 68.4078 303.823 66.5883C303.475 64.7688 303.179 62.8145 302.929 60.7099C302.68 58.6104 302.472 56.5576 302.316 54.5515C302.161 52.5454 302.036 50.6948 301.937 49.0049C301.844 47.3149 301.797 45.9983 301.797 45.0548C301.797 43.4893 301.844 41.592 301.937 39.3682C302.031 37.1444 302.171 34.7598 302.363 32.2249C302.55 29.6849 302.799 27.1034 303.116 24.47C303.428 21.8366 303.792 19.3484 304.202 16.995C304.607 14.6467 305.111 12.5265 305.708 10.65C306.306 8.76829 306.95 7.29609 307.641 6.23342C308.836 4.5435 310.342 3.69336 312.165 3.69336C313.423 3.69336 314.487 4.11843 315.371 4.96339C316.248 5.80835 316.955 6.90731 317.49 8.25509C318.025 9.60288 318.43 11.1062 318.716 12.7702C318.996 14.429 319.204 16.0774 319.329 17.7051C319.454 19.338 319.516 20.8413 319.516 22.2202V25.5119C319.516 30.4002 319.407 35.2419 319.189 40.0369C318.965 44.8319 318.861 49.6736 318.861 54.5619V58.2268C321.687 57.3508 324.763 56.5214 328.092 55.7334C331.422 54.9507 334.591 54.5567 337.609 54.5567C338.674 54.5567 339.76 54.6189 340.861 54.7433C341.957 54.8677 342.934 55.1373 343.78 55.5416C344.627 55.9511 345.318 56.5473 345.853 57.33C346.388 58.1128 346.653 59.1651 346.653 60.4818H346.648Z" fill="#0A2249"/>
<path d="M396.298 69.32C396.298 71.0773 395.857 72.5028 394.979 73.5966C394.096 74.6904 392.75 75.2399 390.927 75.2399C389.483 75.2399 388.148 74.7992 386.922 73.9232C385.696 73.0471 384.569 71.9637 383.53 70.6781C382.496 69.3925 381.582 68.0292 380.797 66.5881C380.013 65.147 379.369 63.8925 378.865 62.8247C377.545 60.1913 376.242 57.5579 374.953 54.9298C373.665 52.2964 372.392 49.6319 371.135 46.9364L365.483 50.4147C365.546 52.2342 365.452 54.0485 365.203 55.868C364.953 57.6875 364.761 59.5019 364.637 61.3214C364.512 62.5759 364.309 63.9392 364.024 65.4114C363.743 66.8836 363.286 68.2625 362.657 69.548C362.029 70.8336 361.182 71.917 360.112 72.7931C359.042 73.6692 357.722 74.1098 356.154 74.1098C354.71 74.1098 353.515 73.8091 352.575 73.2182C351.634 72.622 350.86 71.8548 350.268 70.9166C349.671 69.9783 349.245 68.9104 348.995 67.7182C348.746 66.5259 348.616 65.3077 348.616 64.0532V63.3016C348.616 59.6055 348.819 55.8888 349.229 52.1616C349.64 48.4345 349.904 44.6866 350.029 40.9284C350.154 35.9778 350.31 31.0273 350.502 26.0716C350.689 21.1211 350.938 16.1706 351.255 11.2149C351.317 10.0848 351.504 8.99103 351.821 7.92317C352.133 6.86049 352.606 5.90149 353.234 5.05653C353.863 4.21157 354.632 3.53768 355.541 3.03485C356.45 2.53202 357.535 2.2832 358.793 2.2832C360.741 2.2832 362.2 2.97265 363.172 4.35153C364.143 5.73042 364.818 7.39442 365.198 9.33316C365.577 11.2771 365.748 13.2832 365.717 15.3515C365.686 17.4199 365.67 19.1461 365.67 20.525C365.67 24.475 365.577 28.4251 365.39 32.3699C367.213 30.8666 368.985 29.1404 370.714 27.1965C372.439 25.2526 373.966 23.2775 375.286 21.2714C376.101 20.0791 377.041 18.4359 378.112 16.3365C379.176 14.237 380.34 12.1998 381.597 10.2248C382.854 8.24974 384.236 6.52873 385.743 5.05135C387.249 3.57915 388.854 2.84305 390.548 2.84305C392.371 2.84305 393.706 3.36143 394.553 4.39301C395.399 5.42458 395.825 6.78792 395.825 8.48301C395.825 10.992 395.431 13.5579 394.646 16.1913C393.862 18.8247 392.807 21.4114 391.488 23.9463C390.168 26.4863 388.678 28.8968 387.01 31.188C385.348 33.4741 383.665 35.4646 381.971 37.1597C383.727 40.1041 385.395 43.0693 386.963 46.0448C388.532 49.0202 390.101 52.0165 391.675 55.0231C392.241 56.0287 392.792 57.1225 393.322 58.3148C393.857 59.5071 394.34 60.7304 394.781 61.9797C395.218 63.2342 395.581 64.4887 395.867 65.738C396.148 66.9924 396.293 68.1847 396.293 69.3096L396.298 69.32Z" fill="#0A2249"/>
<path d="M430.5 7.45683C430.5 8.89792 430.043 10.1524 429.134 11.2151C428.225 12.2829 427.139 13.159 425.882 13.8484C424.75 14.5379 423.591 15.274 422.396 16.0567C421.202 16.8395 420.1 17.7155 419.098 18.6901C418.09 19.6647 417.275 20.7429 416.646 21.9352C416.017 23.1274 415.706 24.4752 415.706 25.9785C415.706 27.2952 416.017 28.4875 416.646 29.5501C417.275 30.618 418.043 31.6651 418.952 32.7019C419.861 33.7335 420.869 34.8013 421.965 35.9003C423.061 36.9992 424.069 38.2174 424.978 39.5652C425.887 40.913 426.656 42.4319 427.285 44.127C427.913 45.8169 428.225 47.7919 428.225 50.052C428.225 51.6175 427.898 53.3904 427.238 55.3654C426.578 57.3404 425.685 59.331 424.552 61.3371C423.42 63.3433 422.085 65.2872 420.547 67.1637C419.01 69.0454 417.373 70.7198 415.649 72.192C413.919 73.6642 412.116 74.8565 410.231 75.7636C408.345 76.6708 406.522 77.127 404.766 77.127C402.818 77.127 401.093 76.593 399.581 75.5303C398.075 74.4625 397.322 72.8659 397.322 70.7354C397.322 69.2943 397.665 67.962 398.361 66.7386C399.052 65.5153 399.898 64.3437 400.906 63.2137C401.909 62.0836 403.026 60.9898 404.251 59.922C405.477 58.8593 406.589 57.7914 407.597 56.7236C408.599 55.6557 409.451 54.5464 410.142 53.3852C410.833 52.224 411.176 50.9851 411.176 49.6736C411.176 47.8541 410.532 45.9931 409.244 44.0803C407.955 42.1675 406.527 40.1925 404.958 38.1552C403.389 36.118 401.955 34.0341 400.672 31.9036C399.384 29.773 398.74 27.6114 398.74 25.4187C398.74 22.7231 399.462 19.8876 400.906 16.9121C402.35 13.9366 404.205 11.2099 406.464 8.73204C408.724 6.25938 411.269 4.20659 414.095 2.5737C416.921 0.945992 419.716 0.126953 422.48 0.126953C424.677 0.126953 426.563 0.785294 428.131 2.10198C429.7 3.41866 430.485 5.20707 430.485 7.46201L430.5 7.45683Z" fill="#0A2249"/>
</g>
<defs>
<clipPath id="clip0_1647_45812">
<rect width="430" height="77" fill="white" transform="translate(0.5 0.121094)"/>
</clipPath>
</defs>
</svg>
