<svg width="56" height="56" viewBox="0 0 56 56" fill="none" xmlns="http://www.w3.org/2000/svg">
<g clip-path="url(#clip0_1420_56863)">
<mask id="mask0_1420_56863" style="mask-type:alpha" maskUnits="userSpaceOnUse" x="13" y="5" width="30" height="31">
<rect x="13" y="5.5" width="30" height="30" fill="#D9D9D9"/>
</mask>
<g mask="url(#mask0_1420_56863)">
<path d="M38 31.75H19.25C18.5625 31.75 17.974 31.5052 17.4844 31.0156C16.9948 30.526 16.75 29.9375 16.75 29.25V11.75C16.75 11.0625 16.9948 10.474 17.4844 9.98438C17.974 9.49479 18.5625 9.25 19.25 9.25H38C38.6875 9.25 39.276 9.49479 39.7656 9.98438C40.2552 10.474 40.5 11.0625 40.5 11.75V29.25C40.5 29.9375 40.2552 30.526 39.7656 31.0156C39.276 31.5052 38.6875 31.75 38 31.75ZM19.25 15.5H38V11.75H19.25V15.5ZM23 18H19.25V29.25H23V18ZM34.25 18V29.25H38V18H34.25ZM31.75 18H25.5V29.25H31.75V18Z" fill="#E0A878"/>
</g>
<path d="M14.24 39.55V40.48H12.39V46.5H11.25V40.48H9.39V39.55H14.24ZM16.5345 41.79C16.7012 41.51 16.9212 41.2933 17.1945 41.14C17.4745 40.98 17.8045 40.9 18.1845 40.9V42.08H17.8945C17.4479 42.08 17.1079 42.1933 16.8745 42.42C16.6479 42.6467 16.5345 43.04 16.5345 43.6V46.5H15.3945V40.99H16.5345V41.79ZM18.8524 43.72C18.8524 43.1667 18.9658 42.6767 19.1924 42.25C19.4258 41.8233 19.7391 41.4933 20.1324 41.26C20.5324 41.02 20.9724 40.9 21.4524 40.9C21.8858 40.9 22.2624 40.9867 22.5824 41.16C22.9091 41.3267 23.1691 41.5367 23.3624 41.79V40.99H24.5124V46.5H23.3624V45.68C23.1691 45.94 22.9058 46.1567 22.5724 46.33C22.2391 46.5033 21.8591 46.59 21.4324 46.59C20.9591 46.59 20.5258 46.47 20.1324 46.23C19.7391 45.9833 19.4258 45.6433 19.1924 45.21C18.9658 44.77 18.8524 44.2733 18.8524 43.72ZM23.3624 43.74C23.3624 43.36 23.2824 43.03 23.1224 42.75C22.9691 42.47 22.7658 42.2567 22.5124 42.11C22.2591 41.9633 21.9858 41.89 21.6924 41.89C21.3991 41.89 21.1258 41.9633 20.8724 42.11C20.6191 42.25 20.4124 42.46 20.2524 42.74C20.0991 43.0133 20.0224 43.34 20.0224 43.72C20.0224 44.1 20.0991 44.4333 20.2524 44.72C20.4124 45.0067 20.6191 45.2267 20.8724 45.38C21.1324 45.5267 21.4058 45.6 21.6924 45.6C21.9858 45.6 22.2591 45.5267 22.5124 45.38C22.7658 45.2333 22.9691 45.02 23.1224 44.74C23.2824 44.4533 23.3624 44.12 23.3624 43.74ZM25.6298 43.74C25.6298 43.1733 25.7431 42.6767 25.9698 42.25C26.2031 41.8167 26.5231 41.4833 26.9298 41.25C27.3364 41.0167 27.8031 40.9 28.3298 40.9C28.9964 40.9 29.5464 41.06 29.9798 41.38C30.4198 41.6933 30.7164 42.1433 30.8698 42.73H29.6398C29.5398 42.4567 29.3798 42.2433 29.1598 42.09C28.9398 41.9367 28.6631 41.86 28.3298 41.86C27.8631 41.86 27.4898 42.0267 27.2098 42.36C26.9364 42.6867 26.7998 43.1467 26.7998 43.74C26.7998 44.3333 26.9364 44.7967 27.2098 45.13C27.4898 45.4633 27.8631 45.63 28.3298 45.63C28.9898 45.63 29.4264 45.34 29.6398 44.76H30.8698C30.7098 45.32 30.4098 45.7667 29.9698 46.1C29.5298 46.4267 28.9831 46.59 28.3298 46.59C27.8031 46.59 27.3364 46.4733 26.9298 46.24C26.5231 46 26.2031 45.6667 25.9698 45.24C25.7431 44.8067 25.6298 44.3067 25.6298 43.74ZM34.1859 43.75L36.7259 46.5H35.1859L33.1459 44.13V46.5H32.0059V39.1H33.1459V43.4L35.1459 40.99H36.7259L34.1859 43.75ZM42.593 43.61C42.593 43.8167 42.5796 44.0033 42.553 44.17H38.343C38.3763 44.61 38.5396 44.9633 38.833 45.23C39.1263 45.4967 39.4863 45.63 39.913 45.63C40.5263 45.63 40.9596 45.3733 41.213 44.86H42.443C42.2763 45.3667 41.973 45.7833 41.533 46.11C41.0996 46.43 40.5596 46.59 39.913 46.59C39.3863 46.59 38.913 46.4733 38.493 46.24C38.0796 46 37.753 45.6667 37.513 45.24C37.2796 44.8067 37.163 44.3067 37.163 43.74C37.163 43.1733 37.2763 42.6767 37.503 42.25C37.7363 41.8167 38.0596 41.4833 38.473 41.25C38.893 41.0167 39.373 40.9 39.913 40.9C40.433 40.9 40.8963 41.0133 41.303 41.24C41.7096 41.4667 42.0263 41.7867 42.253 42.2C42.4796 42.6067 42.593 43.0767 42.593 43.61ZM41.403 43.25C41.3963 42.83 41.2463 42.4933 40.953 42.24C40.6596 41.9867 40.2963 41.86 39.863 41.86C39.4696 41.86 39.133 41.9867 38.853 42.24C38.573 42.4867 38.4063 42.8233 38.353 43.25H41.403ZM44.8548 41.79C45.0215 41.51 45.2415 41.2933 45.5148 41.14C45.7948 40.98 46.1248 40.9 46.5048 40.9V42.08H46.2148C45.7682 42.08 45.4282 42.1933 45.1948 42.42C44.9682 42.6467 44.8548 43.04 44.8548 43.6V46.5H43.7148V40.99H44.8548V41.79Z" fill="#242830"/>
</g>
<defs>
<clipPath id="clip0_1420_56863">
<rect y="0.5" width="56" height="55" rx="27.5" fill="white"/>
</clipPath>
</defs>
</svg>
