<svg width="96" height="96" viewBox="0 0 96 96" fill="none" xmlns="http://www.w3.org/2000/svg">
<rect width="96" height="96" rx="20" fill="white"/>
<path fill-rule="evenodd" clip-rule="evenodd" d="M53.712 43.0323C53.712 46.3309 53.7954 49.0817 52.1281 52.0111C50.7824 54.393 48.6508 55.8576 46.2692 55.8576C43.0181 55.8576 41.1246 53.3806 41.1246 49.7248C41.1246 42.5082 47.5908 41.1984 53.712 41.1984V43.0323ZM62.2503 63.6697C61.6905 64.1697 60.8808 64.2056 60.2497 63.872C57.4394 61.5381 56.9391 60.4545 55.3911 58.2275C50.7468 62.9671 47.46 64.3841 41.4344 64.3841C34.3131 64.3841 28.7637 59.9898 28.7637 51.1895C28.7637 44.3185 32.4912 39.6383 37.7902 37.3521C42.387 35.3274 48.8057 34.9702 53.712 34.4107V33.315C53.712 31.3024 53.8667 28.9207 52.6879 27.1822C51.6517 25.6222 49.675 24.9791 47.9362 24.9791C44.7091 24.9791 41.8272 26.6342 41.1246 30.0639C40.9816 30.8262 40.4221 31.5765 39.66 31.6121L31.443 30.7311C30.7525 30.5759 29.9904 30.0164 30.1809 28.9564C32.0743 19.0011 41.0649 16 49.1149 16C53.2354 16 58.6179 17.0957 61.869 20.2158C65.9894 24.0621 65.5963 29.1946 65.5963 34.7797V47.9743C65.5963 51.9398 67.2397 53.6783 68.7877 55.822C69.3354 56.5841 69.4547 57.5013 68.7639 58.0726C67.0372 59.5134 63.9647 62.193 62.2739 63.6936L62.2501 63.6697" fill="black"/>
<path d="M71.4738 68.6845C45.0582 81.256 28.6644 70.7378 18.1703 64.3492C17.5209 63.9466 16.4172 64.4433 17.3748 65.5433C20.8709 69.7824 32.3285 80 47.284 80C62.2497 80 71.153 71.834 72.2667 70.4094C73.3729 68.997 72.5915 68.2178 71.4735 68.6845H71.4738ZM78.8925 64.5874C78.1831 63.6637 74.5791 63.4915 72.3109 63.7701C70.0392 64.0407 66.6294 65.4291 66.9259 66.2627C67.078 66.5749 67.3885 66.4349 68.9491 66.2946C70.5139 66.1384 74.8976 65.5852 75.8111 66.7793C76.7288 67.9816 74.4129 73.7093 73.9899 74.633C73.5813 75.5568 74.1461 75.795 74.9137 75.1797C75.6707 74.5647 77.0413 72.9721 77.961 70.7182C78.8744 68.452 79.4317 65.2907 78.8925 64.5874Z" fill="#FF9900"/>
</svg>
