<svg width="69" height="69" viewBox="0 0 69 69" fill="none" xmlns="http://www.w3.org/2000/svg">
<g clip-path="url(#clip0_1_2)">
<path d="M59.4167 15.3333H42.1667V63.25H63.25V19.1667C63.25 18.15 62.8461 17.175 62.1272 16.4561C61.4084 15.7372 60.4333 15.3333 59.4167 15.3333ZM49.8333 47.9167H46V44.0833H49.8333V47.9167ZM49.8333 38.3333H46V34.5H49.8333V38.3333ZM49.8333 28.75H46V24.9167H49.8333V28.75ZM57.5 47.9167H53.6667V44.0833H57.5V47.9167ZM57.5 38.3333H53.6667V34.5H57.5V38.3333ZM57.5 28.75H53.6667V24.9167H57.5V28.75Z" fill="#2F3238"/>
<path d="M34.27 5.75H11.73C10.6523 5.75 9.61882 6.1781 8.85679 6.94012C8.09477 7.70215 7.66667 8.73567 7.66667 9.81333V63.25H17.25V57.5H28.75V63.25H38.3333V9.81333C38.3333 8.73567 37.9052 7.70215 37.1432 6.94012C36.3812 6.1781 35.3477 5.75 34.27 5.75ZM17.25 47.9167H13.4167V44.0833H17.25V47.9167ZM17.25 38.3333H13.4167V34.5H17.25V38.3333ZM17.25 28.75H13.4167V24.9167H17.25V28.75ZM17.25 19.1667H13.4167V15.3333H17.25V19.1667ZM24.9167 47.9167H21.0833V44.0833H24.9167V47.9167ZM24.9167 38.3333H21.0833V34.5H24.9167V38.3333ZM24.9167 28.75H21.0833V24.9167H24.9167V28.75ZM24.9167 19.1667H21.0833V15.3333H24.9167V19.1667ZM32.5833 47.9167H28.75V44.0833H32.5833V47.9167ZM32.5833 38.3333H28.75V34.5H32.5833V38.3333ZM32.5833 28.75H28.75V24.9167H32.5833V28.75ZM32.5833 19.1667H28.75V15.3333H32.5833V19.1667Z" fill="#2F3238"/>
</g>
<defs>
<clipPath id="clip0_1_2">
<rect width="69" height="69" fill="white"/>
</clipPath>
</defs>
</svg>
