<?xml version="1.0" encoding="UTF-8"?>
<svg id="Layer_2" data-name="Layer 2" xmlns="http://www.w3.org/2000/svg" viewBox="0 0 120 120">
  <defs>
    <style>
      .cls-1 {
        fill: #fff;
      }

      .cls-2 {
        fill: #ccd0d9;
      }

      .cls-3 {
        fill: #242830;
      }

      .cls-4 {
        fill: #4c535f;
      }
    </style>
  </defs>
  <g id="Card">
    <g id="Icon">
      <g id="Pearl">
        <g id="Boba">
          <circle class="cls-3" cx="60" cy="60" r="60"/>
          <path class="cls-4" d="m88,78c10.52,3.51,29-4,20.7,11.47-8.92,16.63-27.78,26.58-47.99,26.58-31.32,0-56.71-25.48-56.71-56.92,0-6.13,1.25-13.37,3.05-17.65,6.95-16.48,7.95,1.52,10.95,4.52,7,7,14.42,2.72,27,6,23,6,37,24,43,26Z"/>
          <path class="cls-2" d="m59.19,16.76c-3.74,26.73,49.88,18.93,29.93,0-6.16-5.85-28.07-13.26-29.93,0Z"/>
          <path class="cls-2" d="m93.11,37.78c-2.46,2.43-5.13,8.03-2.09,11s5.53,7.03,9.37,5.67c7.9-2.81,7.02-10.97,3.59-16.43-3.86-6.13-7.9-3.17-10.86-.24Z"/>
        </g>
      </g>
      <g id="Names_W" data-name="Names W">
        <g id="Design">
          <g id="BRANDON_C." data-name="BRANDON C.">
            <path class="cls-1" d="m32.37,88.68c-1.09.89-2.29,1.42-3.62,1.61s-2.65.08-3.98-.33c.29.55.46,1.09.52,1.62.05.53,0,1.05-.14,1.55-.15.5-.38.98-.7,1.43-.32.46-.71.87-1.17,1.25-.9.73-1.85,1.16-2.86,1.29s-2,.04-2.97-.27c-.97-.31-1.89-.78-2.77-1.42-.87-.64-1.64-1.36-2.29-2.16-.36-.44-.69-.91-.98-1.4-.3-.49-.53-1-.69-1.52-.07-.18.03-.46.29-.83s.61-.78,1.06-1.24c.44-.45.94-.93,1.48-1.42s1.07-.96,1.57-1.4c.51-.44.96-.82,1.35-1.14.39-.32.67-.55.83-.67.55-.45,1.11-.9,1.67-1.36.56-.46,1.13-.89,1.7-1.31.14-.12.37-.29.67-.53.3-.24.65-.5,1.02-.79.38-.29.78-.6,1.21-.91s.84-.59,1.22-.84.73-.44,1.04-.58c.31-.13.54-.18.67-.14.53.17,1.08.39,1.66.66.57.27,1.13.57,1.67.92.54.34,1.05.71,1.53,1.11s.89.81,1.24,1.23c.47.58.85,1.21,1.13,1.89.28.68.41,1.35.41,2.02,0,.67-.15,1.32-.43,1.96-.28.64-.73,1.2-1.34,1.7Zm-11.35,2.57c.27-.22.38-.47.34-.75-.04-.28-.16-.54-.35-.77-.18-.22-.42-.41-.72-.57-.3-.16-.59-.26-.86-.3-.07-.02-.18,0-.32.09-.15.08-.3.18-.45.29-.16.11-.3.22-.44.32s-.23.17-.28.21c-.03.03-.09.08-.19.15-.09.08-.19.16-.29.25s-.18.18-.25.28-.09.16-.06.19c.18.22.44.41.79.58.34.17.7.28,1.08.36.38.07.75.09,1.11.04.37-.05.67-.17.9-.36Zm6.9-5.47c.27-.22.4-.46.39-.73s-.12-.54-.34-.8c-.18-.22-.42-.41-.71-.58-.29-.17-.59-.27-.89-.32-.09,0-.26.06-.51.2-.25.14-.53.31-.82.51-.29.2-.57.4-.82.59-.25.19-.42.32-.49.38-.03.03-.08.07-.15.12-.07.06-.14.12-.21.19-.07.07-.13.14-.18.21-.05.07-.06.12-.04.15.22.27.54.46.97.59.43.12.88.18,1.36.17.48,0,.94-.07,1.39-.19.45-.12.8-.28,1.06-.49Z"/>
            <path class="cls-1" d="m44.17,98.11c-.72,1.2-1.65,2.12-2.78,2.74-1.13.62-2.38,1.03-3.74,1.21.03.58.02,1.25-.01,1.98-.04.74-.12,1.48-.26,2.24-.14.76-.31,1.49-.54,2.2-.22.71-.49,1.32-.8,1.85-.33.56-.77.98-1.3,1.26-.54.28-1.13.23-1.77-.16-.54-.32-.85-.86-.93-1.62-.08-.76-.05-1.59.07-2.5.13-.91.29-1.81.49-2.71.2-.9.32-1.65.36-2.23-.38-.08-.75-.15-1.13-.19-.38-.05-.76-.1-1.14-.17-.25.37-.59.88-1.04,1.53-.45.65-.94,1.25-1.49,1.83-.55.57-1.11,1.02-1.7,1.33-.59.31-1.14.31-1.67,0-.58-.34-.88-.85-.91-1.5-.03-.66.08-1.35.34-2.07.25-.72.58-1.43.96-2.11.38-.68.69-1.21.92-1.6.49-.82.99-1.61,1.5-2.39.51-.77,1.01-1.57,1.5-2.39.45-.75.88-1.51,1.31-2.27.42-.76.86-1.53,1.32-2.3.1-.17.24-.4.4-.67.16-.27.34-.54.54-.81.2-.27.39-.53.58-.77.19-.24.38-.41.56-.52.39-.26,1-.37,1.82-.33.82.04,1.67.15,2.56.35.89.19,1.73.42,2.53.7.79.27,1.37.52,1.71.73.89.53,1.57,1.17,2.05,1.91.48.74.78,1.53.89,2.36.11.84.06,1.69-.16,2.57-.22.88-.57,1.72-1.06,2.54Zm-5.05-2.53c.27-.45.37-.86.3-1.22-.07-.36-.34-.68-.81-.96-.35-.21-.74-.36-1.17-.45-.43-.09-.84-.15-1.23-.17-.76,1.42-1.55,2.8-2.38,4.15.44.1.91.17,1.41.2.5.04.99.01,1.48-.07.49-.09.94-.24,1.36-.46.42-.22.76-.56,1.03-1.01Z"/>
            <path class="cls-1" d="m57.99,112.07c-.06.4-.18.88-.34,1.43-.16.55-.38,1.07-.66,1.54-.28.48-.62.87-1.02,1.16-.4.3-.88.4-1.44.31-.74-.12-1.25-.48-1.54-1.08-.29-.6-.45-1.29-.49-2.07-.04-.78-.01-1.56.08-2.35.1-.79.17-1.41.22-1.88-1.48,0-2.94,0-4.37-.05-.11.46-.29,1.01-.53,1.67-.24.66-.54,1.29-.92,1.87s-.81,1.08-1.32,1.47c-.51.39-1.07.54-1.69.44-.48-.08-.83-.31-1.04-.71-.21-.39-.35-.84-.42-1.35s-.07-1.01-.02-1.53c.05-.52.1-.94.16-1.29.18-1.14.45-2.26.81-3.34.36-1.08.75-2.16,1.16-3.22.21-.56.48-1.22.81-1.97.33-.75.7-1.52,1.12-2.3.42-.79.9-1.55,1.42-2.3.52-.75,1.08-1.41,1.69-1.97.6-.56,1.26-.99,1.96-1.29.71-.3,1.45-.39,2.23-.26.76.12,1.4.4,1.9.83.51.43.93.96,1.26,1.59.33.63.58,1.32.75,2.08.17.76.29,1.52.36,2.28.07.76.12,1.51.14,2.23.02.72.03,1.36.05,1.92.05,1.35.06,2.7.03,4.06-.03,1.36-.16,2.72-.37,4.06Zm-4.64-8.24c.04-.24.09-.64.15-1.2.06-.56.08-1.12.07-1.69-.01-.57-.09-1.08-.23-1.55-.14-.46-.39-.73-.75-.78-.2-.03-.41.07-.64.31-.22.24-.44.56-.64.95-.21.39-.41.83-.6,1.31s-.36.95-.52,1.4c-.15.45-.28.86-.38,1.22s-.17.63-.22.78c1.22.09,2.43.13,3.62.12l.14-.87Z"/>
            <path class="cls-1" d="m79.08,99.21c.12.43.26,1.05.43,1.86.17.81.33,1.7.48,2.68.15.98.25,1.99.32,3.04.07,1.04.05,2.01-.05,2.9-.1.89-.31,1.65-.62,2.29-.31.64-.78,1.04-1.41,1.21-.59.16-1.17.13-1.76-.08-.58-.21-1.14-.52-1.66-.91-.53-.4-1.01-.84-1.46-1.33-.45-.49-.83-.95-1.15-1.36-.68-.89-1.35-1.77-2.03-2.63-.67-.86-1.33-1.74-1.97-2.65l.22.82c.22.84.44,1.68.66,2.52.21.84.37,1.68.47,2.54.05.34.11.74.18,1.2.07.46.11.91.13,1.37.02.46-.02.9-.11,1.32-.09.42-.26.76-.53,1.02-.15.15-.3.25-.44.31-.14.06-.3.13-.46.22l-.09.02c-.45.12-.88.07-1.27-.15-.4-.22-.77-.54-1.11-.97-.34-.42-.66-.92-.95-1.48-.29-.56-.54-1.13-.77-1.69-.22-.56-.41-1.08-.56-1.57-.15-.49-.26-.88-.34-1.17-.12-.45-.28-1.12-.47-2-.19-.88-.37-1.87-.52-2.97-.15-1.09-.28-2.23-.37-3.4-.09-1.17-.09-2.26,0-3.26.09-1,.29-1.85.61-2.56.32-.7.79-1.14,1.42-1.31.61-.16,1.22-.07,1.82.27.61.34,1.18.79,1.73,1.34.54.55,1.04,1.14,1.48,1.78s.82,1.17,1.12,1.59c.58.83,1.15,1.67,1.71,2.49.56.83,1.11,1.68,1.65,2.54.03.03.1.13.2.29.11.16.23.34.36.53.14.21.31.45.51.72-.07-.25-.12-.44-.16-.54-.04-.1-.07-.2-.09-.29-.02-.09-.05-.2-.09-.34-.04-.14-.09-.35-.17-.65-.19-.64-.38-1.29-.56-1.93-.18-.65-.36-1.28-.53-1.91-.07-.27-.17-.66-.29-1.15-.12-.49-.23-1.03-.33-1.6-.1-.57-.18-1.16-.23-1.75s-.05-1.15.02-1.66c.06-.51.2-.95.4-1.32.21-.37.51-.61.93-.72.49-.13.96-.06,1.42.22.45.28.87.68,1.26,1.19.39.52.75,1.11,1.08,1.79.33.68.62,1.35.88,2.02.26.67.48,1.29.66,1.88.18.58.31,1.04.4,1.38Z"/>
            <path class="cls-1" d="m93.1,87.42c1.12,1.39,1.92,2.96,2.4,4.71.47,1.75.63,3.5.48,5.27-.15,1.77-.62,3.46-1.41,5.08-.79,1.62-1.89,3-3.29,4.14l-.05.04c-.28.23-.62.29-1.01.17-.39-.11-.81-.32-1.26-.61-.45-.29-.9-.66-1.36-1.1-.46-.44-.89-.88-1.3-1.32-.41-.44-.76-.85-1.06-1.22-.3-.37-.53-.65-.68-.84-.43-.54-.86-1.08-1.27-1.62-.41-.54-.82-1.09-1.22-1.66-.14-.17-.34-.44-.59-.8s-.53-.76-.85-1.22c-.31-.45-.63-.93-.96-1.43-.33-.5-.63-.98-.9-1.43-.27-.45-.5-.85-.7-1.2-.19-.35-.3-.62-.31-.79-.08-.51,0-1.08.2-1.69.21-.61.49-1.21.85-1.78.36-.58.76-1.12,1.2-1.62.44-.5.85-.91,1.23-1.21,1.04-.84,2.1-1.38,3.18-1.61,1.08-.23,2.14-.23,3.18.01,1.04.24,2.03.69,2.97,1.34.93.65,1.78,1.45,2.53,2.38Zm-3.42,3.91c-.28-.35-.63-.65-1.05-.91-.42-.26-.87-.45-1.34-.56-.47-.11-.94-.13-1.41-.05-.47.08-.9.28-1.3.6-.33.27-.61.62-.83,1.06-.04.11,0,.32.14.61.14.3.32.63.57,1.01.24.38.51.79.81,1.22.3.44.6.84.89,1.22.29.38.55.71.77,1,.22.29.37.48.45.58.13.16.32.39.57.7.25.31.51.6.77.88.27.28.5.52.72.71.21.2.35.26.43.2.47-.38.79-.95.96-1.7.17-.75.22-1.54.17-2.39-.06-.84-.21-1.65-.45-2.42-.24-.77-.53-1.36-.86-1.77Z"/>
            <path class="cls-1" d="m110.3,87.21c-.61,1.08-1.41,1.87-2.39,2.36s-2.08.74-3.29.75c-1.21,0-2.48-.2-3.83-.62-1.35-.42-2.69-1-4.01-1.75-1.24-.7-2.42-1.54-3.54-2.53-1.12-.99-2.04-2.06-2.74-3.2-.71-1.14-1.15-2.33-1.31-3.57-.17-1.24.09-2.46.77-3.66.66-1.17,1.52-1.97,2.59-2.4,1.07-.43,2.24-.6,3.5-.51,1.26.09,2.57.39,3.93.88,1.35.49,2.65,1.09,3.89,1.79,1.38.78,2.61,1.65,3.69,2.62,1.08.97,1.93,1.99,2.55,3.08.62,1.09.98,2.2,1.05,3.35.08,1.15-.21,2.29-.84,3.42Zm-14.64-8.66c-.19.34-.22.7-.09,1.09.13.39.37.78.71,1.19.34.4.77.79,1.27,1.17.5.38,1.02.72,1.57,1.03.62.35,1.26.66,1.93.93.66.27,1.29.46,1.88.58.58.12,1.1.15,1.53.08.44-.07.75-.27.94-.61.22-.39.2-.81-.06-1.26-.26-.45-.63-.89-1.1-1.34-.47-.44-.99-.85-1.55-1.22s-1.03-.67-1.42-.89c-.48-.27-1-.52-1.57-.76-.57-.24-1.11-.41-1.65-.52-.53-.11-1.01-.14-1.44-.08s-.75.27-.94.62Z"/>
            <path class="cls-1" d="m104.58,53.85c.44.04,1.07.13,1.89.25.81.12,1.71.29,2.68.5.97.21,1.96.47,2.96.77,1,.3,1.9.66,2.7,1.07.8.41,1.44.87,1.93,1.39.49.52.7,1.1.64,1.75-.06.61-.29,1.15-.7,1.61-.4.47-.88.88-1.44,1.23s-1.14.65-1.76.9c-.62.24-1.18.44-1.68.6-1.07.32-2.13.64-3.17.97-1.04.32-2.1.63-3.17.91l.85.09c.87.09,1.73.18,2.59.28.86.1,1.71.25,2.54.45.34.08.73.16,1.18.26.45.1.89.22,1.33.36.43.15.83.33,1.2.56.36.23.62.52.77.86.08.19.13.36.13.52,0,.15.02.32.04.51v.09c-.06.46-.25.84-.6,1.13-.35.29-.78.52-1.29.7-.52.17-1.09.29-1.72.36-.63.07-1.25.11-1.85.12-.6.01-1.16,0-1.67-.03-.51-.03-.91-.06-1.22-.09-.46-.05-1.15-.14-2.04-.27-.89-.13-1.88-.32-2.96-.56-1.08-.24-2.18-.53-3.31-.85s-2.15-.71-3.05-1.15c-.91-.44-1.63-.93-2.18-1.47-.55-.54-.79-1.14-.72-1.79.06-.63.36-1.16.9-1.61.54-.45,1.16-.83,1.86-1.15.71-.32,1.44-.57,2.19-.76.75-.19,1.38-.35,1.89-.48.99-.25,1.96-.49,2.94-.72.97-.23,1.96-.45,2.96-.65.04-.02.16-.05.35-.09.19-.04.4-.09.63-.15.25-.06.53-.13.85-.22-.26-.03-.45-.04-.56-.04-.11,0-.21,0-.3-.02-.09,0-.21-.02-.35-.03-.14-.01-.36-.04-.67-.07-.67-.05-1.34-.1-2.01-.16-.67-.06-1.33-.12-1.97-.18-.28-.03-.68-.07-1.18-.13-.5-.06-1.04-.15-1.61-.25s-1.14-.24-1.72-.4c-.58-.16-1.09-.36-1.55-.6-.46-.24-.82-.52-1.09-.84-.27-.32-.39-.7-.35-1.12.05-.5.29-.92.71-1.25.42-.33.94-.58,1.56-.76.62-.18,1.31-.31,2.06-.38.75-.07,1.49-.11,2.2-.12.72,0,1.38,0,1.99.05.61.04,1.08.08,1.43.11Z"/>
            <path class="cls-1" d="m94.06,32.99c.35-.17.73-.31,1.16-.41.42-.11.84-.15,1.26-.13.42.02.81.12,1.17.31.36.18.65.49.85.91.31.64.43,1.17.36,1.59s-.26.78-.54,1.08c-.28.3-.62.55-1.01.75-.39.2-.75.4-1.09.58-.34.19-.59.39-.77.6-.18.21-.19.48-.03.81.18.36.47.62.87.76s.86.21,1.38.21c.52,0,1.08-.07,1.67-.19.6-.12,1.17-.27,1.73-.44.56-.17,1.08-.36,1.56-.55.48-.19.87-.36,1.16-.5.38-.19.83-.43,1.35-.71.52-.29.98-.62,1.39-1.01.41-.38.71-.8.91-1.26s.16-.96-.11-1.51c-.18-.36-.4-.7-.66-1-.26-.3-.54-.6-.83-.88-.29-.29-.57-.59-.83-.9s-.49-.65-.67-1.01c-.21-.42-.21-.85,0-1.29.2-.44.51-.76.93-.97.58-.29,1.22-.37,1.9-.25.68.12,1.34.35,1.99.7.65.35,1.23.79,1.76,1.31.53.52.92,1.04,1.17,1.55.64,1.31.89,2.57.75,3.77-.14,1.2-.55,2.32-1.21,3.34-.66,1.03-1.51,1.95-2.55,2.76s-2.13,1.5-3.28,2.07c-.77.38-1.64.72-2.62,1.02s-2.01.53-3.07.69-2.13.23-3.21.2-2.09-.18-3.04-.46-1.81-.7-2.59-1.26c-.77-.56-1.38-1.29-1.83-2.21-.44-.89-.58-1.75-.43-2.57.15-.82.48-1.58.98-2.28.5-.7,1.13-1.32,1.87-1.87.74-.54,1.48-1,2.2-1.35Z"/>
            <path class="cls-1" d="m101.14,20.23c.2-.17.43-.27.67-.31s.48-.03.71.03c.23.06.45.15.67.28.21.13.39.29.55.48.19.24.36.53.5.87.14.35.22.7.25,1.05.03.36,0,.7-.08,1.03-.08.33-.26.61-.53.82-.42.35-.89.43-1.4.24-.51-.19-.92-.47-1.23-.85-.19-.24-.36-.52-.49-.84s-.22-.66-.26-1.01,0-.68.09-1c.1-.32.28-.58.54-.8Z"/>
          </g>
        </g>
      </g>
    </g>
  </g>
</svg>