<?xml version="1.0" encoding="UTF-8"?>
<svg id="Layer_2" data-name="Layer 2" xmlns="http://www.w3.org/2000/svg" viewBox="0 0 120 120">
  <defs>
    <style>
      .cls-1 {
        fill: #fff;
      }

      .cls-2 {
        fill: #ccd0d9;
      }

      .cls-3 {
        fill: #242830;
      }

      .cls-4 {
        fill: #4c535f;
      }
    </style>
  </defs>
  <g id="Card">
    <g id="Icon">
      <g id="Pearl">
        <g id="Boba">
          <circle class="cls-3" cx="60" cy="60" r="60"/>
          <path class="cls-4" d="m88,78c10.52,3.51,29-4,20.7,11.47-8.92,16.63-27.78,26.58-47.99,26.58-31.32,0-56.71-25.48-56.71-56.92,0-6.13,1.25-13.37,3.05-17.65,6.95-16.48,7.95,1.52,10.95,4.52,7,7,14.42,2.72,27,6,23,6,37,24,43,26Z"/>
          <path class="cls-2" d="m59.19,16.76c-3.74,26.73,49.88,18.93,29.93,0-6.16-5.85-28.07-13.26-29.93,0Z"/>
          <path class="cls-2" d="m93.11,37.78c-2.46,2.43-5.13,8.03-2.09,11s5.53,7.03,9.37,5.67c7.9-2.81,7.02-10.97,3.59-16.43-3.86-6.13-7.9-3.17-10.86-.24Z"/>
        </g>
      </g>
      <g id="Names_W" data-name="Names W">
        <g id="Design">
          <g id="ALICE">
            <path class="cls-1" d="m66.56,113.37c0,.41-.02.89-.08,1.46-.06.57-.19,1.12-.38,1.64-.2.52-.46.96-.8,1.32s-.79.55-1.36.56c-.75.01-1.32-.25-1.7-.79-.39-.54-.67-1.19-.84-1.95-.17-.76-.28-1.53-.33-2.33-.04-.79-.08-1.42-.11-1.89-1.46.27-2.9.5-4.32.71-.03.47-.11,1.05-.23,1.74-.12.69-.31,1.36-.58,2.01s-.61,1.2-1.04,1.68c-.43.48-.96.72-1.59.73-.49,0-.87-.16-1.15-.51s-.5-.77-.64-1.25c-.15-.49-.25-.99-.28-1.5-.04-.52-.06-.95-.07-1.29-.02-1.16.05-2.3.22-3.43s.36-2.26.58-3.38c.11-.59.26-1.28.45-2.08.19-.8.43-1.62.71-2.46.28-.85.61-1.69,1-2.52.38-.83.82-1.57,1.32-2.23.5-.66,1.07-1.2,1.71-1.61.64-.42,1.36-.63,2.15-.64.77-.01,1.44.15,2.02.49.57.34,1.08.79,1.51,1.35.44.56.8,1.2,1.1,1.92.3.72.55,1.44.75,2.18s.38,1.46.52,2.17c.14.71.27,1.34.38,1.88.29,1.32.53,2.65.73,4,.21,1.35.32,2.7.34,4.06Zm-6-7.31c0-.24-.03-.64-.06-1.2-.04-.56-.12-1.12-.23-1.67-.11-.56-.28-1.05-.5-1.49-.22-.43-.51-.65-.88-.64-.2,0-.39.14-.57.42s-.34.63-.47,1.04c-.14.42-.25.88-.36,1.39-.1.51-.19,1-.27,1.47-.07.47-.13.89-.16,1.27-.04.38-.06.65-.08.81,1.22-.12,2.41-.29,3.59-.52v-.88Z"/>
            <path class="cls-1" d="m85.83,107.28c.18.47.17.99-.06,1.56-.22.57-.58,1.14-1.06,1.72-.48.58-1.05,1.15-1.71,1.7-.66.55-1.32,1.06-1.99,1.53-.67.47-1.31.88-1.92,1.23-.62.35-1.11.6-1.49.75-.36.14-.76.26-1.19.35s-.83.08-1.18-.05c-.2-.05-.43-.26-.7-.61-.27-.35-.56-.78-.88-1.29-.32-.51-.64-1.06-.96-1.67s-.63-1.2-.91-1.79c-.28-.59-.54-1.13-.77-1.63-.23-.5-.4-.89-.51-1.18-.19-.47-.39-1.05-.63-1.73s-.47-1.42-.72-2.21c-.24-.79-.47-1.6-.69-2.43-.22-.83-.4-1.63-.56-2.38-.15-.76-.25-1.46-.29-2.09-.04-.64-.02-1.16.06-1.56.16-.65.51-1.08,1.06-1.3.38-.15.75-.15,1.11,0,.36.15.71.4,1.03.74.32.34.62.75.9,1.22.28.47.54.94.77,1.42.23.48.43.92.59,1.34.16.42.29.75.39.99.58,1.48,1.12,2.95,1.62,4.42.5,1.47,1.04,2.95,1.61,4.42l.43,1.11c.75-.6,1.58-1.21,2.49-1.84.91-.63,1.82-1.12,2.73-1.48.32-.13.66-.23,1-.33.35-.09.67-.13.97-.1.3.02.58.12.83.3s.46.46.61.86Z"/>
            <path class="cls-1" d="m86.85,85.52c.24.3.39.63.44.97.05.35.04.69-.05,1.03-.09.34-.23.68-.41,1.01-.18.33-.38.61-.6.86,1.4,1.82,2.71,3.61,3.93,5.36s2.43,3.61,3.62,5.57l.14-.11c.25-.2.53-.37.82-.51s.59-.22.9-.24c.31-.02.6.02.88.12.28.1.53.3.76.59.29.37.43.78.41,1.23s-.13.92-.36,1.41c-.22.49-.51.98-.87,1.47-.36.49-.74.96-1.15,1.4-.41.44-.8.84-1.19,1.2-.39.36-.71.64-.96.84-.19.15-.43.33-.72.54s-.59.37-.9.48c-.31.12-.62.16-.92.14-.3-.02-.56-.17-.77-.44-.27-.33-.43-.69-.51-1.06-.07-.37-.08-.75-.02-1.13.06-.38.18-.75.35-1.1.18-.35.38-.67.62-.96-.58-.96-1.17-1.92-1.77-2.86-.59-.94-1.23-1.87-1.9-2.79-.69-.93-1.37-1.85-2.04-2.76s-1.34-1.82-2.02-2.74c-.1.1-.19.2-.28.28-.09.08-.17.16-.25.22-.22.18-.48.34-.77.5-.29.15-.6.26-.92.32s-.62.06-.91,0-.54-.22-.76-.49c-.43-.54-.56-1.17-.38-1.88.18-.71.5-1.41.98-2.1s1.01-1.33,1.61-1.92,1.09-1.04,1.49-1.36c.22-.18.53-.39.92-.65.39-.26.81-.47,1.26-.65.45-.17.88-.27,1.29-.29s.75.14,1.02.47Z"/>
            <path class="cls-1" d="m97.89,78.52c.32.22.62.49.92.81.3.32.54.67.72,1.04.18.38.28.77.3,1.17.01.41-.11.8-.38,1.18-.41.58-.81.94-1.22,1.08-.41.14-.81.15-1.21.05-.4-.1-.78-.28-1.14-.52-.36-.24-.71-.46-1.04-.67-.33-.2-.63-.33-.9-.39-.27-.05-.51.07-.72.37-.23.33-.31.71-.25,1.13.07.42.23.85.48,1.3.25.45.58.91.98,1.37.4.46.81.9,1.23,1.3.42.41.83.77,1.24,1.1.4.33.74.59,1,.77.35.24.78.52,1.28.83.5.31,1.02.56,1.55.73.53.18,1.05.24,1.54.19.49-.05.92-.33,1.26-.83.23-.33.42-.69.56-1.06.14-.37.26-.76.38-1.15.11-.39.24-.78.38-1.16s.33-.74.56-1.07c.27-.38.64-.59,1.12-.63.48-.03.92.08,1.3.35.53.37.91.89,1.14,1.54.23.65.34,1.35.35,2.08,0,.74-.09,1.46-.29,2.17-.2.71-.47,1.3-.79,1.77-.84,1.2-1.82,2.03-2.94,2.48-1.12.46-2.29.64-3.51.56-1.22-.08-2.43-.38-3.65-.9s-2.35-1.14-3.4-1.87c-.7-.49-1.42-1.09-2.16-1.81-.74-.71-1.44-1.5-2.09-2.35-.66-.85-1.23-1.76-1.73-2.71-.5-.95-.85-1.92-1.07-2.88s-.27-1.93-.15-2.87c.12-.95.46-1.84,1.05-2.67.57-.82,1.25-1.36,2.04-1.62s1.62-.34,2.47-.24c.86.1,1.7.35,2.54.73.83.38,1.58.81,2.25,1.27Z"/>
            <path class="cls-1" d="m112.08,67.86c.37.1.71.31,1,.6.28.29.54.86.78,1.71.25.85.45,1.77.6,2.76s.25,1.94.31,2.84c.05.9.02,1.55-.09,1.94-.08.27-.23.58-.46.91-.23.34-.5.66-.8.98-.3.32-.62.59-.96.82-.34.23-.65.38-.92.45-.16.04-.45.04-.88-.01s-.92-.12-1.49-.23c-.56-.11-1.16-.23-1.78-.36-.63-.13-1.22-.27-1.79-.39s-1.06-.25-1.5-.36c-.43-.11-.75-.19-.94-.25-.72-.2-1.55-.46-2.47-.78-.92-.31-1.84-.67-2.75-1.08-.91-.4-1.76-.86-2.56-1.37-.79-.51-1.43-1.07-1.91-1.7-.14-.19-.25-.51-.33-.98-.08-.47-.13-1-.15-1.61-.02-.61-.01-1.25.01-1.94.03-.69.07-1.35.13-1.97s.13-1.19.2-1.7c.07-.51.14-.89.21-1.14.08-.29.22-.55.43-.78.2-.23.44-.4.7-.53.27-.12.55-.2.84-.24.29-.03.59,0,.88.07.25.07.46.17.62.28.16.12.32.28.5.47.2.27.39.76.56,1.49.18.73.33,1.5.47,2.33.14.83.25,1.62.33,2.37.08.75.15,1.28.19,1.59.43.21.86.42,1.29.63.43.22.88.41,1.34.58-.14-.69-.24-1.46-.3-2.3-.06-.84,0-1.6.2-2.29.39-1.39,1.27-1.89,2.64-1.5.33.09.61.24.83.44.22.2.4.43.53.69.14.26.24.54.32.85s.14.6.21.9c.16.72.26,1.46.31,2.21.05.75.1,1.5.14,2.26.15.08.3.17.48.26s.35.16.53.21c.27.08.55.14.84.17s.57.08.85.11c-.01-.26-.03-.67-.06-1.24-.03-.57-.05-1.16-.07-1.78-.02-.62-.01-1.21,0-1.77.02-.56.07-.97.14-1.23.08-.29.22-.55.42-.77.2-.22.43-.39.68-.5.25-.12.54-.19.84-.22.3-.03.59,0,.87.07Z"/>
          </g>
        </g>
      </g>
    </g>
  </g>
</svg>