<?xml version="1.0" encoding="UTF-8"?>
<svg id="Layer_2" data-name="Layer 2" xmlns="http://www.w3.org/2000/svg" viewBox="0 0 120 120">
  <defs>
    <style>
      .cls-1 {
        fill: #fff;
      }

      .cls-2 {
        fill: #ccd0d9;
      }

      .cls-3 {
        fill: #242830;
      }

      .cls-4 {
        fill: #4c535f;
      }
    </style>
  </defs>
  <g id="Card">
    <g id="Icon">
      <g id="Pearl">
        <g id="Boba">
          <circle class="cls-3" cx="60" cy="60" r="60"/>
          <path class="cls-4" d="m88,78c10.52,3.51,29-4,20.7,11.47-8.92,16.63-27.78,26.58-47.99,26.58-31.32,0-56.71-25.48-56.71-56.92,0-6.13,1.25-13.37,3.05-17.65,6.95-16.48,7.95,1.52,10.95,4.52,7,7,14.42,2.72,27,6,23,6,37,24,43,26Z"/>
          <path class="cls-2" d="m59.19,16.76c-3.74,26.73,49.88,18.93,29.93,0-6.16-5.85-28.07-13.26-29.93,0Z"/>
          <path class="cls-2" d="m93.11,37.78c-2.46,2.43-5.13,8.03-2.09,11s5.53,7.03,9.37,5.67c7.9-2.81,7.02-10.97,3.59-16.43-3.86-6.13-7.9-3.17-10.86-.24Z"/>
        </g>
      </g>
      <g id="Names_W" data-name="Names W">
        <g id="SWE">
          <g id="LILY">
            <path class="cls-1" d="m77.06,109.34c.1.5-.01,1.01-.34,1.53-.32.52-.77,1.02-1.35,1.51s-1.24.94-1.98,1.37c-.75.43-1.49.81-2.23,1.15s-1.44.63-2.11.86c-.67.23-1.2.39-1.6.47-.38.07-.79.12-1.23.13s-.83-.07-1.15-.26c-.18-.09-.38-.33-.58-.73-.2-.4-.41-.87-.64-1.43-.22-.56-.44-1.16-.65-1.81-.21-.65-.4-1.29-.58-1.92-.17-.63-.33-1.21-.47-1.74-.13-.53-.23-.95-.29-1.25-.1-.5-.2-1.1-.31-1.82-.11-.71-.21-1.48-.31-2.3s-.18-1.66-.24-2.51c-.07-.86-.11-1.67-.12-2.44s.01-1.48.08-2.11c.07-.64.18-1.14.34-1.53.27-.61.7-.98,1.28-1.09.4-.08.76-.01,1.1.2.33.21.62.52.88.92.25.4.48.85.67,1.36s.36,1.02.5,1.53c.14.51.25.99.34,1.42.09.44.16.79.21,1.05.3,1.56.57,3.1.8,4.64.23,1.54.5,3.09.8,4.64l.23,1.17c.84-.45,1.77-.91,2.77-1.37,1.01-.46,1.99-.78,2.95-.97.34-.07.69-.11,1.04-.14.36-.03.68,0,.98.07.29.08.55.22.77.44.22.22.37.53.45.95Z"/>
            <path class="cls-1" d="m81.91,88.09c.18.34.27.69.26,1.04,0,.35-.09.69-.24,1.01s-.34.63-.58.92c-.24.29-.48.54-.74.75,1.05,2.04,2.03,4.03,2.92,5.97s1.76,3.98,2.59,6.12l.16-.09c.29-.15.58-.27.9-.36.31-.09.62-.11.92-.08.31.03.59.12.84.27.25.15.47.39.64.71.22.41.29.84.19,1.28-.09.44-.3.89-.6,1.33-.3.44-.68.87-1.12,1.3-.44.42-.9.81-1.37,1.17-.48.36-.94.68-1.38.97s-.81.51-1.1.66c-.21.12-.48.25-.8.4-.32.15-.65.26-.97.32s-.63.05-.93-.02c-.29-.07-.52-.26-.69-.57-.2-.38-.31-.75-.31-1.13s.05-.75.18-1.12c.12-.37.31-.71.54-1.02.24-.31.5-.59.78-.84-.4-1.05-.82-2.09-1.23-3.12s-.88-2.06-1.38-3.08c-.51-1.04-1.02-2.06-1.52-3.08-.5-1.01-1-2.03-1.5-3.05-.12.09-.22.16-.33.23-.1.07-.2.12-.29.17-.25.14-.53.25-.85.35-.32.1-.63.15-.96.15-.32,0-.62-.05-.9-.16-.28-.1-.5-.31-.66-.61-.33-.61-.34-1.25-.04-1.91.3-.67.74-1.3,1.33-1.9.59-.6,1.23-1.13,1.92-1.61s1.26-.83,1.71-1.07c.25-.13.59-.29,1.02-.48.43-.19.88-.32,1.35-.42.47-.09.91-.11,1.32-.05s.72.27.92.65Z"/>
            <path class="cls-1" d="m102.74,90.3c.36.36.55.84.58,1.45.03.61-.06,1.28-.27,2.01-.2.73-.49,1.48-.87,2.25-.38.77-.77,1.51-1.19,2.21-.42.7-.84,1.33-1.26,1.9s-.77,1-1.06,1.29c-.27.27-.59.54-.94.8s-.72.41-1.1.44c-.2.03-.5-.06-.88-.27-.39-.21-.83-.49-1.33-.82-.5-.33-1.02-.71-1.56-1.13-.54-.42-1.06-.84-1.56-1.26-.5-.42-.95-.81-1.37-1.18-.41-.36-.73-.65-.94-.87-.36-.36-.79-.8-1.28-1.33-.49-.53-1.01-1.1-1.55-1.73-.54-.62-1.08-1.27-1.62-1.94-.54-.67-1.03-1.32-1.48-1.95s-.82-1.23-1.12-1.79c-.3-.57-.49-1.05-.58-1.45-.12-.66.03-1.2.44-1.62.29-.29.62-.44,1.02-.45.39,0,.81.08,1.24.26.43.19.87.43,1.32.75.45.31.87.64,1.28.98.4.34.77.67,1.08.98.32.31.57.56.76.75,1.13,1.11,2.22,2.24,3.28,3.38,1.05,1.14,2.15,2.27,3.27,3.38l.85.84c.44-.85.95-1.75,1.52-2.69.58-.94,1.21-1.76,1.89-2.46.24-.25.5-.48.78-.71.28-.22.56-.39.85-.49.29-.1.58-.13.88-.07.3.06.61.23.91.53Z"/>
            <path class="cls-1" d="m95.5,68.17c.79.41,1.61.97,2.46,1.68.85.71,1.67,1.47,2.47,2.31.8.83,1.57,1.68,2.29,2.53.72.86,1.35,1.63,1.88,2.32.3.39.69.87,1.15,1.44.47.58.96,1.2,1.47,1.89.52.68,1.02,1.39,1.52,2.12.5.73.92,1.44,1.26,2.12.34.68.58,1.32.72,1.92.14.6.09,1.1-.12,1.52-.3.58-.73.88-1.28.9-.55.02-1.09-.1-1.61-.38-.5-.26-1-.63-1.47-1.1-.48-.47-.93-.98-1.35-1.53-.42-.55-.81-1.12-1.17-1.71-.36-.59-.67-1.12-.95-1.61-.28.31-.62.58-1.04.8-.41.22-.82.33-1.23.32-.78-.04-1.65-.12-2.6-.22-.95-.11-1.9-.25-2.85-.44-.95-.18-1.87-.41-2.78-.68-.9-.27-1.7-.58-2.38-.93-.32-.17-.66-.39-1.01-.67-.35-.27-.65-.58-.89-.93-.24-.34-.41-.72-.49-1.11-.08-.4-.01-.8.21-1.22.25-.47.64-.79,1.18-.97.54-.18,1.15-.26,1.84-.26.69,0,1.41.08,2.18.23s1.52.32,2.24.52c.72.19,1.38.39,1.97.58.59.19,1.05.33,1.4.42-.23-.21-.58-.55-1.04-1.01-.46-.46-.96-.98-1.5-1.57-.54-.59-1.08-1.23-1.62-1.91s-1-1.35-1.4-2c-.39-.65-.67-1.27-.83-1.86-.16-.59-.14-1.09.08-1.5.14-.27.36-.44.65-.52.29-.08.6-.09.92-.05.32.04.64.12.94.23s.56.22.76.33Z"/>
          </g>
        </g>
      </g>
    </g>
  </g>
</svg>