<?xml version="1.0" encoding="UTF-8"?>
<svg id="Layer_2" data-name="Layer 2" xmlns="http://www.w3.org/2000/svg" viewBox="0 0 120 120">
  <defs>
    <style>
      .cls-1 {
        fill: #fff;
      }

      .cls-2 {
        fill: #ccd0d9;
      }

      .cls-3 {
        fill: #242830;
      }

      .cls-4 {
        fill: #4c535f;
      }
    </style>
  </defs>
  <g id="Card">
    <g id="Icon">
      <g id="Pearl">
        <g id="Boba">
          <circle class="cls-3" cx="60" cy="60" r="60"/>
          <path class="cls-4" d="m88,78c10.52,3.51,29-4,20.7,11.47-8.92,16.63-27.78,26.58-47.99,26.58-31.32,0-56.71-25.48-56.71-56.92,0-6.13,1.25-13.37,3.05-17.65,6.95-16.48,7.95,1.52,10.95,4.52,7,7,14.42,2.72,27,6,23,6,37,24,43,26Z"/>
          <path class="cls-2" d="m59.19,16.76c-3.74,26.73,49.88,18.93,29.93,0-6.16-5.85-28.07-13.26-29.93,0Z"/>
          <path class="cls-2" d="m93.11,37.78c-2.46,2.43-5.13,8.03-2.09,11s5.53,7.03,9.37,5.67c7.9-2.81,7.02-10.97,3.59-16.43-3.86-6.13-7.9-3.17-10.86-.24Z"/>
        </g>
      </g>
      <g id="Names_W" data-name="Names W">
        <g id="Design">
          <g id="BRANDON_V." data-name="BRANDON V.">
            <path class="cls-1" d="m33.09,89.29c-1.07.91-2.26,1.48-3.58,1.7-1.32.22-2.65.14-3.99-.24.3.54.49,1.08.55,1.61.07.53.03,1.05-.1,1.55s-.35.98-.67,1.45-.69.89-1.14,1.27c-.88.75-1.82,1.2-2.83,1.36s-2,.08-2.98-.2c-.98-.29-1.91-.74-2.8-1.35-.89-.62-1.67-1.32-2.34-2.11-.37-.43-.71-.89-1.02-1.38-.31-.49-.55-.99-.72-1.5-.07-.18.02-.46.27-.83s.6-.8,1.03-1.26c.43-.46.91-.95,1.44-1.45.53-.51,1.04-.98,1.54-1.44.5-.45.94-.84,1.32-1.17.39-.33.66-.56.81-.69.54-.46,1.08-.93,1.63-1.4.55-.47,1.11-.92,1.67-1.35.14-.12.36-.3.66-.54.3-.24.63-.52,1-.82.37-.3.77-.61,1.19-.93.42-.32.82-.61,1.2-.87.38-.26.72-.46,1.03-.6s.53-.19.67-.15c.54.16,1.09.36,1.67.62.58.25,1.14.55,1.69.88.55.33,1.07.69,1.56,1.07s.91.78,1.27,1.2c.49.57.88,1.19,1.17,1.86s.45,1.34.46,2.01c.01.67-.12,1.33-.38,1.97s-.7,1.22-1.3,1.73Zm-11.29,2.83c.26-.22.37-.48.32-.75-.05-.28-.17-.53-.37-.76-.18-.22-.43-.4-.73-.55-.31-.15-.59-.25-.86-.28-.07-.02-.18.01-.32.09-.14.08-.29.18-.45.3s-.3.23-.44.33c-.14.1-.23.18-.28.22-.03.03-.09.08-.19.16s-.19.17-.28.26c-.09.09-.17.19-.24.28-.07.1-.08.16-.06.19.18.22.45.4.8.56.35.16.71.27,1.09.33.38.06.75.07,1.11.01.36-.06.66-.19.89-.38Zm6.78-5.63c.26-.22.39-.47.37-.74-.02-.27-.13-.53-.36-.8-.18-.22-.43-.4-.72-.56-.3-.16-.6-.26-.9-.3-.09,0-.25.06-.5.21-.25.15-.52.32-.81.53-.29.21-.56.41-.8.61s-.41.33-.48.39c-.03.03-.08.07-.15.13-.07.06-.14.13-.21.2s-.13.15-.18.21c-.05.07-.06.12-.03.15.22.26.55.45.98.56.43.11.88.16,1.36.14.48-.02.94-.1,1.39-.23.45-.13.8-.3,1.04-.51Z"/>
            <path class="cls-1" d="m45.11,98.44c-.69,1.22-1.6,2.15-2.71,2.81-1.12.65-2.35,1.08-3.71,1.29.04.58.05,1.24.03,1.98-.02.74-.09,1.49-.21,2.25-.12.76-.28,1.5-.49,2.21-.21.71-.46,1.33-.76,1.86-.32.57-.75,1-1.28,1.29-.53.29-1.12.26-1.77-.11-.55-.31-.87-.84-.97-1.6-.1-.76-.09-1.59.02-2.5.11-.91.25-1.82.42-2.72.17-.9.28-1.65.31-2.24-.38-.07-.75-.13-1.13-.17-.38-.04-.76-.08-1.15-.14-.24.38-.57.9-1,1.55-.43.66-.91,1.28-1.44,1.86s-1.09,1.04-1.67,1.37c-.58.32-1.14.34-1.67.04-.58-.33-.9-.83-.94-1.48-.05-.66.05-1.35.29-2.08.24-.73.54-1.44.91-2.13.37-.69.66-1.23.88-1.62.47-.83.95-1.64,1.44-2.42.49-.78.97-1.59,1.45-2.42.43-.76.85-1.53,1.25-2.3.4-.77.83-1.55,1.27-2.33.1-.18.23-.4.38-.68.16-.27.33-.55.52-.83.19-.28.38-.54.57-.78s.37-.42.55-.53c.39-.27.99-.4,1.81-.38.82.02,1.67.12,2.57.29.9.17,1.74.38,2.54.64.8.26,1.38.48,1.73.69.9.51,1.6,1.13,2.1,1.86.5.73.81,1.51.95,2.34.13.83.1,1.69-.09,2.57-.2.88-.53,1.74-1,2.57Zm-5.11-2.41c.26-.46.35-.87.28-1.23-.08-.36-.35-.67-.83-.94-.35-.2-.75-.34-1.18-.42-.43-.08-.84-.13-1.23-.14-.72,1.44-1.48,2.84-2.28,4.21.44.09.91.14,1.41.17.5.03.99,0,1.48-.11s.94-.26,1.35-.5c.41-.23.75-.58,1.01-1.04Z"/>
            <path class="cls-1" d="m59.26,112.07c-.05.4-.16.88-.3,1.44-.15.55-.36,1.07-.63,1.56-.27.49-.6.88-.99,1.19-.39.31-.87.42-1.43.34-.75-.1-1.27-.45-1.57-1.04-.3-.59-.48-1.28-.54-2.06s-.05-1.56.03-2.35c.08-.79.14-1.42.18-1.88-1.48.04-2.94.06-4.37.05-.1.46-.27,1.02-.49,1.69-.22.67-.51,1.3-.87,1.9-.36.6-.79,1.1-1.28,1.5-.5.4-1.06.56-1.68.48-.48-.07-.84-.29-1.06-.68s-.37-.83-.45-1.34-.09-1.01-.05-1.53c.04-.52.08-.95.13-1.29.16-1.15.4-2.27.73-3.36.33-1.09.7-2.18,1.09-3.25.2-.57.45-1.23.76-1.99.31-.76.66-1.53,1.07-2.33.41-.8.86-1.57,1.36-2.34.5-.76,1.05-1.43,1.64-2.01.59-.58,1.24-1.02,1.93-1.34.7-.31,1.44-.42,2.23-.31.76.1,1.41.37,1.92.78.52.42.95.94,1.29,1.56s.61,1.31.8,2.06c.18.75.32,1.51.41,2.27.09.76.15,1.5.19,2.22.04.72.07,1.36.09,1.92.08,1.34.12,2.7.12,4.06,0,1.36-.09,2.72-.28,4.07Zm-4.83-8.13c.03-.24.07-.64.12-1.2.04-.56.05-1.12.03-1.69-.03-.57-.11-1.08-.27-1.54s-.41-.72-.77-.77c-.2-.03-.41.08-.63.33-.22.25-.43.57-.62.96-.2.39-.39.83-.56,1.32-.18.49-.34.96-.48,1.41-.14.45-.26.86-.35,1.23-.09.37-.16.63-.2.79,1.22.06,2.43.07,3.62.03l.12-.88Z"/>
            <path class="cls-1" d="m80.02,98.73c.12.43.28,1.04.47,1.85s.37,1.69.54,2.67c.17.98.3,1.99.39,3.03.09,1.04.1,2.01.02,2.9-.08.89-.27,1.66-.56,2.31-.3.65-.76,1.06-1.38,1.24-.58.17-1.17.16-1.76-.04-.59-.2-1.15-.49-1.68-.87s-1.03-.82-1.49-1.3c-.46-.48-.85-.93-1.18-1.34-.7-.88-1.39-1.74-2.09-2.58s-1.37-1.71-2.03-2.6l.24.82c.25.84.48,1.67.71,2.51.23.83.41,1.67.53,2.53.06.34.13.74.21,1.19.08.45.13.91.16,1.37.03.46,0,.9-.07,1.32-.08.42-.25.77-.51,1.04-.15.15-.29.25-.43.32s-.29.14-.46.23l-.09.03c-.45.13-.87.09-1.27-.12-.4-.21-.78-.52-1.13-.94-.35-.42-.68-.9-.98-1.46-.3-.56-.57-1.11-.8-1.67-.24-.56-.44-1.07-.6-1.56-.16-.48-.29-.87-.37-1.16-.13-.45-.3-1.11-.52-1.99-.21-.88-.41-1.86-.59-2.95-.18-1.09-.33-2.22-.45-3.39-.12-1.17-.15-2.26-.08-3.26.07-1,.25-1.86.55-2.57.3-.71.76-1.16,1.39-1.34.6-.18,1.21-.1,1.83.23s1.2.76,1.76,1.3,1.07,1.12,1.53,1.75c.46.63.84,1.15,1.16,1.57.6.82,1.19,1.64,1.76,2.45s1.15,1.65,1.71,2.5c.03.03.1.13.21.29.11.16.23.33.38.53.15.21.32.45.52.7-.07-.25-.13-.43-.17-.54-.04-.1-.07-.2-.1-.29-.03-.09-.06-.2-.1-.34-.04-.14-.1-.35-.19-.64-.21-.64-.41-1.28-.61-1.92-.2-.64-.39-1.27-.57-1.9-.08-.27-.19-.65-.32-1.15-.13-.49-.26-1.02-.37-1.59-.11-.57-.2-1.15-.27-1.75-.07-.59-.08-1.15-.02-1.66.05-.51.18-.96.37-1.33.2-.37.5-.62.91-.74.49-.14.96-.08,1.42.19.46.27.89.66,1.29,1.16.4.51.77,1.1,1.12,1.77.34.67.66,1.34.93,2,.28.66.51,1.28.7,1.86.19.58.33,1.04.43,1.37Z"/>
            <path class="cls-1" d="m93.77,86.63c1.16,1.36,1.99,2.91,2.5,4.65.51,1.74.71,3.49.6,5.26s-.54,3.48-1.3,5.11c-.75,1.64-1.82,3.04-3.2,4.21l-.05.04c-.28.24-.62.3-1.01.2-.39-.1-.82-.3-1.27-.58-.45-.28-.91-.64-1.38-1.07-.47-.43-.91-.86-1.33-1.29-.42-.43-.78-.83-1.09-1.19s-.54-.64-.7-.83c-.45-.53-.88-1.06-1.31-1.59-.42-.53-.85-1.07-1.26-1.63-.14-.17-.35-.43-.61-.79-.26-.35-.55-.75-.88-1.2-.32-.44-.66-.92-1-1.41-.34-.5-.65-.97-.93-1.41-.28-.44-.52-.84-.72-1.18s-.31-.61-.32-.78c-.09-.51-.03-1.08.16-1.69s.46-1.22.81-1.8c.34-.58.73-1.13,1.16-1.64.43-.51.83-.93,1.21-1.24,1.02-.87,2.07-1.43,3.14-1.69,1.07-.26,2.13-.28,3.18-.06,1.05.22,2.05.64,3,1.27.95.63,1.81,1.41,2.59,2.32Zm-3.33,3.98c-.29-.34-.65-.64-1.07-.89-.43-.25-.88-.43-1.35-.53-.47-.1-.95-.11-1.42-.02-.47.09-.9.3-1.28.63-.33.28-.59.64-.8,1.08-.04.11.01.31.16.61.14.29.34.63.59,1,.25.37.53.78.84,1.2.31.43.62.83.92,1.2.3.37.57.7.79.98.23.29.38.47.46.57.13.15.33.38.58.69.26.3.52.59.79.87.27.27.52.51.73.7.21.19.36.25.44.19.46-.39.77-.97.92-1.72.15-.75.19-1.55.11-2.39-.08-.84-.24-1.65-.5-2.41-.26-.76-.56-1.35-.9-1.75Z"/>
            <path class="cls-1" d="m110.96,86.02c-.58,1.09-1.36,1.9-2.34,2.41-.98.52-2.07.79-3.27.83-1.21.04-2.49-.14-3.84-.53-1.36-.39-2.71-.94-4.05-1.66-1.25-.67-2.45-1.49-3.6-2.45-1.14-.97-2.08-2.01-2.82-3.14-.73-1.13-1.2-2.31-1.39-3.54-.2-1.23.03-2.46.68-3.68.63-1.18,1.48-2,2.54-2.46,1.06-.46,2.23-.66,3.49-.59,1.27.07,2.58.33,3.95.79,1.37.46,2.68,1.03,3.93,1.7,1.4.75,2.65,1.59,3.75,2.53,1.1.94,1.97,1.95,2.62,3.02.65,1.07,1.03,2.18,1.13,3.33.1,1.15-.15,2.3-.76,3.44Zm-14.83-8.32c-.18.34-.2.7-.06,1.09.14.39.39.78.74,1.17s.78.77,1.29,1.14c.51.36,1.04.69,1.6.99.63.33,1.28.63,1.95.88s1.3.43,1.89.54c.59.11,1.1.12,1.53.04.43-.08.74-.29.92-.63.21-.39.18-.81-.09-1.26-.27-.44-.65-.88-1.13-1.31s-1.01-.83-1.58-1.19c-.57-.36-1.05-.65-1.44-.86-.48-.26-1.01-.5-1.58-.72-.57-.22-1.12-.39-1.66-.49-.53-.1-1.02-.11-1.44-.04-.43.07-.74.29-.93.64Z"/>
            <path class="cls-1" d="m104.47,52.8c.45.03,1.08.1,1.89.21s1.71.25,2.69.44c.97.19,1.96.42,2.97.7,1.01.28,1.91.62,2.72,1,.81.39,1.46.84,1.96,1.34.5.51.73,1.09.68,1.73-.05.61-.27,1.15-.66,1.63-.39.48-.86.9-1.41,1.27s-1.13.68-1.74.94c-.61.26-1.17.47-1.67.63-1.07.35-2.12.69-3.15,1.04-1.04.35-2.08.67-3.15.98l.85.07c.87.07,1.74.14,2.6.22.86.08,1.71.21,2.55.4.34.07.74.14,1.19.23.45.09.9.2,1.33.33.44.14.84.31,1.21.54.37.22.63.5.79.84.09.19.13.36.14.52,0,.15.03.32.05.51v.09c-.04.47-.23.85-.57,1.15-.34.3-.76.54-1.28.73-.51.18-1.08.32-1.71.4-.63.08-1.24.14-1.85.16-.6.02-1.16.03-1.67,0-.51-.02-.91-.04-1.22-.06-.47-.04-1.15-.11-2.05-.22-.9-.11-1.89-.27-2.97-.49-1.08-.22-2.19-.48-3.33-.78-1.14-.3-2.17-.66-3.08-1.08-.92-.42-1.65-.89-2.21-1.42-.56-.53-.81-1.12-.76-1.77.05-.63.33-1.17.86-1.63.52-.46,1.14-.85,1.83-1.19s1.42-.6,2.17-.81c.75-.21,1.37-.38,1.88-.53.98-.27,1.95-.53,2.92-.78.97-.25,1.95-.49,2.94-.72.04-.02.16-.05.34-.1.19-.05.39-.1.62-.17.25-.06.53-.14.84-.24-.26-.02-.45-.03-.56-.03-.11,0-.21,0-.3,0-.09,0-.21-.02-.35-.03-.14-.01-.36-.03-.67-.05-.67-.03-1.34-.07-2.01-.11-.67-.04-1.33-.09-1.98-.14-.28-.02-.68-.06-1.18-.11-.5-.05-1.04-.12-1.62-.22s-1.15-.22-1.73-.36c-.58-.15-1.1-.33-1.56-.56-.46-.23-.83-.5-1.11-.82-.28-.32-.41-.69-.37-1.11.04-.51.27-.93.68-1.26.41-.33.93-.6,1.54-.8.62-.2,1.3-.34,2.05-.42.75-.08,1.48-.14,2.2-.17.71-.03,1.38-.03,1.99,0,.61.03,1.09.05,1.43.08Z"/>
            <path class="cls-1" d="m88.74,33.3c.65-.34,1.41-.64,2.3-.9.88-.26,1.8-.49,2.76-.68.96-.19,1.9-.36,2.83-.49s1.76-.26,2.51-.38c.47-.06,1.04-.17,1.72-.3.67-.14,1.39-.26,2.16-.38s1.54-.21,2.33-.28,1.52-.08,2.21-.03,1.29.19,1.82.4c.53.22.91.55,1.15,1,.2.38.22.83.06,1.36-.16.53-.42,1.09-.78,1.69-.36.59-.8,1.2-1.31,1.83-.51.62-1.02,1.21-1.53,1.77-.51.56-1,1.05-1.45,1.49-.46.44-.81.77-1.06.99-1.21,1.1-2.45,2.19-3.71,3.26-1.26,1.08-2.61,1.99-4.04,2.75-.36.19-.74.37-1.15.54-.4.17-.81.27-1.21.29s-.77-.04-1.12-.19-.64-.46-.89-.93c-.21-.4-.18-.88.08-1.44.26-.56.68-1.17,1.24-1.81s1.21-1.3,1.95-1.98c.74-.68,1.48-1.34,2.21-1.98s1.41-1.24,2.05-1.8c.63-.56,1.12-1.05,1.45-1.46-.42.08-1.02.2-1.83.36-.8.16-1.69.32-2.66.47-.97.16-1.98.3-3.03.43s-2.02.19-2.93.2c-.9,0-1.68-.07-2.34-.23-.66-.16-1.09-.44-1.31-.86-.16-.31-.22-.59-.18-.87.04-.27.15-.53.32-.76s.39-.44.63-.63.5-.35.75-.48Z"/>
            <path class="cls-1" d="m101.99,21.21c.21-.16.43-.26.68-.3.24-.04.48-.02.71.04.23.06.45.16.66.3.21.13.39.3.54.49.19.24.35.53.48.88.13.35.21.7.23,1.06.02.36-.01.7-.1,1.03-.09.33-.27.6-.54.81-.43.34-.9.41-1.4.21s-.91-.49-1.21-.87c-.19-.24-.34-.52-.47-.85-.13-.33-.2-.67-.23-1.02-.03-.35,0-.68.11-1s.29-.58.56-.79Z"/>
          </g>
        </g>
      </g>
    </g>
  </g>
</svg>