<?xml version="1.0" encoding="UTF-8"?>
<svg id="Layer_2" data-name="Layer 2" xmlns="http://www.w3.org/2000/svg" viewBox="0 0 120 120">
  <defs>
    <style>
      .cls-1 {
        fill: #fff;
      }

      .cls-2 {
        fill: #ccd0d9;
      }

      .cls-3 {
        fill: #242830;
      }

      .cls-4 {
        fill: #4c535f;
      }
    </style>
  </defs>
  <g id="Card">
    <g id="Icon">
      <g id="Pearl">
        <g id="Boba">
          <circle class="cls-3" cx="60" cy="60" r="60"/>
          <path class="cls-4" d="m88,78c10.52,3.51,29-4,20.7,11.47-8.92,16.63-27.78,26.58-47.99,26.58-31.32,0-56.71-25.48-56.71-56.92,0-6.13,1.25-13.37,3.05-17.65,6.95-16.48,7.95,1.52,10.95,4.52,7,7,14.42,2.72,27,6,23,6,37,24,43,26Z"/>
          <path class="cls-2" d="m59.19,16.76c-3.74,26.73,49.88,18.93,29.93,0-6.16-5.85-28.07-13.26-29.93,0Z"/>
          <path class="cls-2" d="m93.11,37.78c-2.46,2.43-5.13,8.03-2.09,11s5.53,7.03,9.37,5.67c7.9-2.81,7.02-10.97,3.59-16.43-3.86-6.13-7.9-3.17-10.86-.24Z"/>
        </g>
      </g>
      <g id="Names_W" data-name="Names W">
        <g id="SWE">
          <g id="DARREN">
            <path class="cls-1" d="m52.86,102.66c-.56,1.7-1.44,3.22-2.65,4.57s-2.6,2.44-4.17,3.27-3.25,1.36-5.04,1.57c-1.79.21-3.55.04-5.26-.52l-.06-.02c-.35-.11-.58-.37-.7-.76-.12-.39-.17-.85-.17-1.39s.07-1.11.18-1.74c.12-.62.25-1.23.4-1.81.15-.58.3-1.1.45-1.55.15-.45.26-.8.34-1.03.21-.66.44-1.3.67-1.95.23-.64.47-1.28.73-1.93.07-.21.19-.52.35-.93s.35-.86.56-1.37c.21-.51.44-1.04.68-1.59.25-.55.48-1.06.71-1.53.23-.47.44-.88.63-1.24.19-.35.36-.58.5-.69.39-.34.9-.59,1.53-.75.63-.16,1.28-.24,1.96-.26.68-.01,1.35.03,2.01.13.66.1,1.22.23,1.69.38,1.27.42,2.3,1.02,3.08,1.8.78.78,1.35,1.67,1.72,2.68.36,1.01.53,2.08.48,3.22-.04,1.14-.25,2.28-.62,3.42Zm-5.14-.75c.14-.42.2-.88.2-1.38,0-.49-.09-.97-.25-1.43-.16-.46-.4-.86-.72-1.22-.32-.35-.73-.61-1.21-.76-.41-.13-.85-.17-1.34-.12-.12.03-.26.18-.44.45-.18.27-.36.62-.54,1.02-.19.41-.38.86-.59,1.35-.2.49-.38.96-.54,1.41-.16.45-.3.85-.42,1.19-.12.34-.21.57-.24.69-.06.19-.16.48-.28.85-.12.38-.23.75-.32,1.13-.09.38-.16.71-.21.99s-.03.44.07.47c.58.19,1.23.15,1.95-.12.72-.27,1.42-.65,2.09-1.16.68-.5,1.27-1.07,1.79-1.69.51-.62.85-1.18,1.02-1.69Z"/>
            <path class="cls-1" d="m70.54,110.84c.03.41.03.89,0,1.47-.03.57-.13,1.12-.29,1.66-.17.53-.41.99-.72,1.37-.32.38-.76.59-1.33.63-.75.05-1.33-.18-1.75-.7-.42-.52-.73-1.15-.95-1.9s-.37-1.52-.46-2.3-.16-1.41-.21-1.88c-1.44.35-2.86.67-4.27.95,0,.47-.05,1.05-.13,1.75-.08.7-.24,1.38-.46,2.04-.23.66-.54,1.24-.94,1.73-.4.5-.92.77-1.54.82-.49.04-.88-.11-1.18-.45-.3-.33-.54-.74-.71-1.22-.18-.48-.3-.97-.37-1.49-.07-.51-.12-.94-.14-1.29-.08-1.16-.08-2.3.02-3.44.1-1.14.23-2.27.39-3.41.08-.6.19-1.3.33-2.1s.33-1.64.57-2.5.52-1.72.85-2.57c.33-.85.73-1.62,1.19-2.3.46-.69,1-1.25,1.62-1.71s1.32-.71,2.11-.77c.77-.06,1.45.07,2.04.37.59.3,1.12.72,1.59,1.26s.87,1.15,1.2,1.85.63,1.41.87,2.14c.25.73.46,1.44.64,2.14.18.7.35,1.32.49,1.86.36,1.3.68,2.61.96,3.95.28,1.33.47,2.68.57,4.04Zm-6.4-6.96c-.02-.24-.06-.64-.13-1.2-.07-.56-.18-1.11-.32-1.66-.14-.55-.33-1.03-.58-1.46-.24-.42-.55-.62-.91-.59-.2.01-.38.17-.55.45-.16.29-.3.64-.41,1.07s-.21.9-.28,1.41-.13,1.01-.18,1.48c-.05.47-.08.9-.09,1.27-.01.38-.02.65-.03.81,1.21-.19,2.39-.43,3.55-.72l-.06-.88Z"/>
            <path class="cls-1" d="m84.36,92.39c.61,1.26.87,2.54.78,3.82-.09,1.29-.44,2.55-1.03,3.79.51.3,1.06.66,1.65,1.09.6.43,1.17.91,1.74,1.44s1.08,1.08,1.55,1.65c.47.57.84,1.13,1.11,1.68.29.58.4,1.18.34,1.78-.06.6-.42,1.07-1.1,1.4-.57.28-1.19.24-1.87-.11s-1.36-.82-2.05-1.43c-.69-.6-1.36-1.23-2-1.89-.65-.66-1.21-1.16-1.67-1.52-.28.27-.54.55-.78.84-.24.29-.5.58-.77.86.18.41.42.98.71,1.7.3.73.54,1.47.72,2.24.18.77.24,1.49.18,2.15-.06.66-.37,1.13-.91,1.39-.6.29-1.19.27-1.76-.06-.57-.33-1.09-.8-1.55-1.41-.47-.61-.88-1.26-1.24-1.96-.36-.69-.64-1.24-.83-1.64-.42-.86-.81-1.71-1.18-2.56-.37-.85-.76-1.7-1.18-2.56-.38-.79-.78-1.56-1.19-2.34-.41-.77-.81-1.56-1.2-2.36-.09-.18-.2-.42-.34-.7-.14-.28-.27-.58-.39-.9-.12-.31-.23-.62-.32-.91-.1-.29-.14-.54-.13-.75,0-.47.23-1.04.71-1.7.48-.66,1.04-1.32,1.69-1.96.65-.64,1.3-1.22,1.97-1.74s1.18-.86,1.54-1.04c.93-.45,1.84-.68,2.72-.68s1.7.18,2.47.54c.76.36,1.45.87,2.07,1.53s1.13,1.42,1.55,2.28Zm-4.88,2.85c-.23-.47-.52-.78-.86-.92-.34-.14-.75-.09-1.25.15-.37.18-.7.42-1.02.73-.31.31-.58.62-.81.94.78,1.41,1.5,2.83,2.18,4.26.32-.31.63-.67.94-1.07.3-.4.55-.82.75-1.28.2-.46.31-.92.35-1.39.04-.47-.05-.95-.29-1.42Z"/>
            <path class="cls-1" d="m94.88,81.18c1.02.96,1.71,2.06,2.08,3.3.37,1.24.49,2.54.37,3.91.58.1,1.22.25,1.93.44.71.2,1.42.44,2.13.74.71.3,1.39.63,2.03,1,.64.37,1.19.76,1.63,1.18.47.45.79.96.95,1.55.16.58-.02,1.15-.53,1.7-.43.46-1.03.64-1.78.56-.76-.09-1.56-.29-2.42-.61-.86-.32-1.7-.67-2.54-1.06-.84-.39-1.54-.66-2.1-.83-.16.35-.31.7-.43,1.06-.13.36-.26.72-.41,1.08.31.32.73.77,1.27,1.34.53.57,1.02,1.19,1.46,1.84.44.66.75,1.3.93,1.95.18.64.06,1.18-.36,1.63-.46.49-1.01.68-1.67.56-.65-.11-1.3-.37-1.95-.77-.65-.41-1.27-.87-1.85-1.39-.58-.52-1.04-.94-1.36-1.24-.69-.66-1.36-1.32-2.01-1.98-.64-.66-1.31-1.32-2.01-1.98-.63-.6-1.28-1.19-1.94-1.77-.66-.58-1.31-1.17-1.96-1.79-.15-.14-.33-.32-.56-.53-.23-.22-.46-.45-.68-.7s-.43-.5-.62-.74c-.19-.24-.32-.46-.38-.66-.17-.44-.15-1.06.07-1.84.21-.79.51-1.6.89-2.43.38-.83.79-1.6,1.23-2.32.44-.72.8-1.22,1.08-1.52.71-.75,1.48-1.28,2.3-1.6.83-.31,1.66-.43,2.5-.36.84.07,1.67.31,2.48.71.81.4,1.56.93,2.25,1.59Zm-3.56,4.39c-.38-.36-.76-.55-1.13-.56-.37-.01-.74.18-1.12.58-.28.3-.51.64-.69,1.04-.18.4-.33.79-.43,1.17,1.22,1.04,2.4,2.12,3.54,3.22.19-.41.36-.85.5-1.33.14-.48.23-.97.25-1.46.02-.5-.03-.97-.16-1.43-.13-.46-.38-.87-.77-1.23Z"/>
            <path class="cls-1" d="m110.56,72.93c.35.15.66.4.91.73.24.32.42.92.55,1.8.13.88.2,1.82.22,2.82.02,1,0,1.96-.08,2.86-.07.9-.19,1.54-.35,1.91-.11.26-.31.54-.58.84-.28.3-.58.59-.92.86-.34.27-.69.5-1.06.68-.37.18-.69.29-.97.33-.16.02-.45-.03-.87-.13-.42-.1-.9-.25-1.44-.43-.54-.18-1.11-.38-1.72-.6-.6-.22-1.18-.43-1.72-.63-.54-.2-1.02-.39-1.44-.56-.41-.17-.71-.29-.9-.38-.69-.3-1.47-.67-2.34-1.1-.88-.44-1.74-.91-2.58-1.44-.85-.52-1.63-1.09-2.35-1.7s-1.28-1.26-1.67-1.94c-.11-.2-.17-.54-.19-1.01-.02-.47,0-1.01.07-1.61.06-.6.15-1.25.27-1.92.12-.68.25-1.33.39-1.94s.29-1.17.42-1.66c.14-.49.26-.86.36-1.1.12-.28.3-.52.53-.72s.49-.34.77-.43c.28-.09.57-.13.87-.12.3,0,.58.07.86.19.24.11.43.23.57.37.14.14.28.32.43.54.16.29.28.81.36,1.55.08.74.13,1.53.15,2.37.02.84.02,1.64,0,2.39-.02.76-.03,1.29-.03,1.6.4.26.79.53,1.2.8.4.27.82.53,1.25.76-.05-.71-.04-1.48.01-2.32s.22-1.59.51-2.24c.58-1.32,1.51-1.7,2.82-1.13.32.14.57.32.76.55.19.23.34.48.44.75.1.28.17.57.2.88.03.31.06.62.08.92.06.73.06,1.48.01,2.23-.05.75-.11,1.5-.17,2.25.13.1.28.21.44.32.16.11.33.21.49.28.26.11.53.21.81.28.28.08.55.15.83.23.02-.26.06-.67.1-1.23.05-.57.1-1.16.17-1.77.07-.61.15-1.2.25-1.75.1-.56.2-.95.3-1.2.12-.28.29-.51.52-.7.23-.19.47-.33.74-.41s.56-.12.86-.11c.31.01.59.07.85.19Z"/>
            <path class="cls-1" d="m104.06,49.95c.45,0,1.08.04,1.9.09.82.05,1.72.15,2.71.27.98.13,1.99.3,3.01.52,1.02.22,1.95.5,2.78.84.83.34,1.51.75,2.04,1.22.53.48.79,1.04.78,1.69-.01.61-.2,1.17-.56,1.67s-.81.95-1.33,1.35-1.08.74-1.68,1.04c-.59.29-1.14.54-1.63.74-1.04.41-2.07.82-3.08,1.23-1.01.41-2.04.8-3.08,1.17h.85c.87.03,1.74.05,2.61.07s1.72.1,2.57.24c.34.05.75.1,1.2.16.46.06.91.14,1.35.25.45.11.86.26,1.24.46.38.2.66.46.84.79.1.18.16.35.17.51s.04.32.08.5v.09c0,.47-.17.86-.49,1.18-.32.32-.73.59-1.23.8-.5.22-1.06.38-1.68.51-.62.12-1.23.21-1.83.27-.6.06-1.15.1-1.66.11-.51.01-.91.02-1.22.01-.47,0-1.15-.04-2.06-.09-.9-.06-1.9-.16-3-.31s-2.22-.34-3.37-.57c-1.15-.23-2.2-.53-3.14-.89-.94-.36-1.7-.79-2.3-1.29-.59-.5-.88-1.07-.87-1.72.01-.63.26-1.19.76-1.68.5-.49,1.08-.92,1.76-1.3.68-.38,1.38-.69,2.12-.94.74-.25,1.35-.47,1.84-.64.96-.33,1.92-.65,2.87-.96.95-.31,1.92-.61,2.89-.9.04-.02.15-.06.34-.12.18-.06.39-.13.61-.2.25-.08.52-.17.83-.29-.26,0-.45,0-.56,0-.11,0-.21.01-.3.01s-.21,0-.35,0c-.14,0-.37,0-.67-.01-.67,0-1.34.01-2.01.01-.67,0-1.33,0-1.98-.02-.28,0-.68-.02-1.19-.03s-1.05-.06-1.63-.12c-.58-.06-1.16-.15-1.75-.26-.59-.11-1.12-.27-1.59-.47-.47-.2-.86-.45-1.16-.75-.3-.3-.45-.66-.44-1.09,0-.51.21-.94.6-1.3s.89-.66,1.49-.89c.6-.23,1.28-.42,2.02-.55.74-.13,1.47-.23,2.18-.3.71-.07,1.37-.11,1.98-.12.61-.01,1.09-.01,1.43,0Z"/>
          </g>
        </g>
      </g>
    </g>
  </g>
</svg>