<?xml version="1.0" encoding="UTF-8"?>
<svg id="Layer_2" data-name="Layer 2" xmlns="http://www.w3.org/2000/svg" viewBox="0 0 120 120">
  <defs>
    <style>
      .cls-1 {
        fill: #fff;
      }

      .cls-2 {
        fill: #ccd0d9;
      }

      .cls-3 {
        fill: #242830;
      }

      .cls-4 {
        fill: #4c535f;
      }
    </style>
  </defs>
  <g id="Card">
    <g id="Icon">
      <g id="Pearl">
        <g id="Boba">
          <circle class="cls-3" cx="60" cy="60" r="60"/>
          <path class="cls-4" d="m88,78c10.52,3.51,29-4,20.7,11.47-8.92,16.63-27.78,26.58-47.99,26.58-31.32,0-56.71-25.48-56.71-56.92,0-6.13,1.25-13.37,3.05-17.65,6.95-16.48,7.95,1.52,10.95,4.52,7,7,14.42,2.72,27,6,23,6,37,24,43,26Z"/>
          <path class="cls-2" d="m59.19,16.76c-3.74,26.73,49.88,18.93,29.93,0-6.16-5.85-28.07-13.26-29.93,0Z"/>
          <path class="cls-2" d="m93.11,37.78c-2.46,2.43-5.13,8.03-2.09,11s5.53,7.03,9.37,5.67c7.9-2.81,7.02-10.97,3.59-16.43-3.86-6.13-7.9-3.17-10.86-.24Z"/>
        </g>
      </g>
      <g id="Names_W" data-name="Names W">
        <g id="SWE">
          <g id="JENNA">
            <path class="cls-1" d="m56.32,104.99l-.13.75c-.15.74-.33,1.52-.54,2.35-.21.83-.46,1.64-.75,2.44s-.64,1.54-1.05,2.24c-.41.7-.91,1.3-1.5,1.79-.58.49-1.26.85-2.02,1.06-.76.21-1.64.23-2.64.05-1.08-.19-1.98-.59-2.71-1.2-.73-.61-1.29-1.33-1.7-2.18s-.65-1.76-.75-2.73c-.09-.98-.05-1.94.12-2.9.08-.42.21-.88.39-1.39.18-.5.43-.96.73-1.37.3-.41.65-.74,1.06-.99s.88-.32,1.42-.23c.58.1.99.34,1.22.71.23.37.37.81.42,1.3.04.49.04,1.02-.02,1.58-.06.56-.1,1.08-.12,1.56-.02.48,0,.9.1,1.24.09.35.32.55.68.62.42.08.78-.05,1.09-.36s.56-.71.75-1.18c.2-.47.36-.95.48-1.45.12-.49.2-.88.25-1.16.2-1.12.3-2.23.3-3.34,0-1.1-.04-2.23-.12-3.38-.04-.58-.09-1.18-.14-1.79-.06-.61-.03-1.2.07-1.78.12-.68.4-1.2.84-1.57.44-.37,1-.49,1.71-.36.52.09.91.27,1.17.54.26.26.51.62.74,1.08.35.7.61,1.48.77,2.34.17.86.26,1.73.29,2.62.03.89,0,1.78-.08,2.66-.08.88-.18,1.7-.31,2.44Z"/>
            <path class="cls-1" d="m73.12,109.83c.05.38,0,.77-.15,1.16-.15.37-.57.84-1.25,1.4-.68.57-1.45,1.12-2.29,1.65s-1.67,1.01-2.48,1.42c-.8.41-1.41.64-1.81.7-.28.04-.62.02-1.02-.06-.4-.08-.81-.19-1.21-.34-.41-.15-.79-.33-1.14-.55-.35-.22-.61-.44-.78-.66-.1-.13-.21-.4-.34-.81-.13-.41-.26-.9-.38-1.45-.13-.56-.26-1.15-.38-1.78-.13-.63-.25-1.23-.35-1.8-.11-.57-.2-1.07-.27-1.52-.07-.44-.12-.76-.15-.96-.1-.74-.19-1.6-.28-2.58s-.12-1.96-.11-2.95c0-1,.08-1.96.23-2.89.15-.93.41-1.74.79-2.43.12-.2.37-.43.77-.69.39-.26.87-.52,1.42-.78.55-.26,1.14-.52,1.79-.77.64-.25,1.26-.48,1.86-.67.6-.19,1.14-.36,1.64-.5s.87-.23,1.13-.26c.3-.04.6-.02.89.08.29.09.54.24.77.43.22.2.41.42.55.68.15.26.24.54.28.84.04.26.03.49-.01.68-.05.19-.12.41-.23.65-.17.29-.54.66-1.14,1.11-.59.45-1.24.9-1.95,1.36s-1.39.87-2.04,1.25c-.66.38-1.12.65-1.38.81-.02.47-.04.95-.06,1.44s-.03.97,0,1.46c.58-.41,1.24-.81,1.99-1.2.75-.39,1.47-.63,2.17-.73,1.43-.2,2.24.41,2.43,1.82.05.34.02.65-.07.93-.09.28-.23.53-.42.76-.18.23-.4.44-.65.63-.25.19-.5.37-.74.55-.6.43-1.23.82-1.9,1.17-.67.35-1.34.69-2.01,1.03-.02.17-.03.35-.05.54-.01.2,0,.39.02.57.04.28.1.56.18.84.08.28.16.55.24.83.23-.11.6-.3,1.11-.55.51-.25,1.04-.51,1.6-.77.56-.26,1.1-.49,1.63-.7.52-.21.92-.33,1.18-.36.3-.04.59-.01.87.08.28.1.52.24.73.42.21.19.39.41.54.68s.24.54.28.82Z"/>
            <path class="cls-1" d="m89.24,92.4c.23.39.53.94.91,1.67.38.73.77,1.55,1.17,2.46.4.91.78,1.85,1.12,2.84.34.99.59,1.92.73,2.81.14.88.15,1.68.02,2.38-.13.7-.48,1.22-1.04,1.54-.53.31-1.1.44-1.71.39-.62-.05-1.23-.2-1.85-.44-.61-.24-1.2-.54-1.76-.89-.56-.35-1.05-.69-1.47-1.01-.89-.68-1.78-1.34-2.65-2-.88-.65-1.74-1.33-2.6-2.03l.43.74c.44.75.88,1.51,1.3,2.26.43.75.8,1.52,1.13,2.32.14.32.3.69.49,1.11s.35.85.49,1.29c.14.44.22.87.25,1.3.03.43-.05.81-.24,1.13-.11.18-.22.32-.34.41-.12.09-.25.21-.39.33l-.08.05c-.4.24-.82.3-1.26.19-.44-.11-.88-.32-1.33-.64-.44-.32-.88-.71-1.31-1.18-.43-.47-.82-.94-1.19-1.42-.37-.48-.68-.94-.96-1.36-.27-.43-.49-.77-.64-1.04-.24-.4-.57-1-.99-1.81-.42-.8-.85-1.71-1.29-2.72-.44-1.01-.86-2.07-1.26-3.18s-.69-2.15-.87-3.14c-.18-.99-.21-1.87-.09-2.63.12-.76.46-1.31,1.02-1.64.54-.32,1.15-.39,1.83-.22s1.35.44,2.02.83,1.31.82,1.9,1.32c.6.5,1.1.91,1.5,1.24.78.65,1.55,1.3,2.31,1.95.76.65,1.52,1.32,2.27,2.01.04.02.13.1.27.23.15.13.31.27.49.42.19.17.42.35.68.56-.13-.23-.23-.39-.3-.48-.07-.09-.12-.18-.17-.26-.05-.08-.11-.18-.18-.3-.07-.12-.18-.32-.34-.58-.36-.57-.71-1.14-1.06-1.71s-.69-1.14-1.01-1.7c-.14-.25-.34-.59-.59-1.03-.25-.44-.5-.93-.75-1.45-.25-.52-.48-1.07-.69-1.63-.21-.56-.35-1.09-.43-1.6-.08-.51-.06-.97.04-1.38.1-.41.33-.73.7-.94.44-.26.91-.31,1.42-.16.51.15,1.02.42,1.54.81s1.02.87,1.52,1.44c.5.57.96,1.14,1.39,1.71.43.57.81,1.12,1.13,1.63.33.52.58.92.75,1.22Z"/>
            <path class="cls-1" d="m101.16,75.91c.37.25.88.62,1.54,1.12.66.49,1.36,1.06,2.12,1.71s1.5,1.34,2.23,2.08c.74.74,1.36,1.48,1.87,2.22.51.74.85,1.45,1.04,2.14.18.69.09,1.3-.27,1.84-.34.5-.8.87-1.38,1.09-.58.22-1.2.36-1.85.4-.66.05-1.31.03-1.97-.05-.66-.08-1.25-.17-1.76-.27-1.1-.23-2.18-.45-3.25-.66-1.07-.21-2.15-.45-3.22-.71l.71.48c.72.49,1.44.98,2.15,1.47.71.49,1.38,1.03,2.02,1.61.26.23.57.49.92.79.35.3.68.61,1,.95.31.33.58.69.79,1.07.21.38.3.75.27,1.12-.02.21-.06.38-.13.52s-.14.29-.21.47l-.05.08c-.26.39-.61.63-1.06.72-.44.09-.93.09-1.47,0-.54-.09-1.1-.26-1.69-.5s-1.15-.5-1.69-.77c-.54-.28-1.02-.55-1.45-.82-.43-.27-.77-.49-1.03-.66-.39-.26-.94-.66-1.67-1.2-.73-.54-1.51-1.17-2.34-1.9-.83-.72-1.67-1.5-2.51-2.32s-1.55-1.65-2.14-2.46c-.59-.81-1-1.59-1.22-2.33-.22-.74-.15-1.38.21-1.92.35-.52.87-.85,1.55-.99.68-.14,1.41-.18,2.18-.12s1.53.18,2.29.37c.75.19,1.38.35,1.89.47.98.25,1.96.5,2.92.76.96.26,1.94.54,2.92.83.04,0,.16.03.35.09.19.05.39.11.62.16.25.07.53.14.85.21-.22-.15-.38-.25-.48-.3-.1-.05-.18-.11-.26-.16-.08-.05-.17-.12-.29-.2s-.3-.21-.56-.38c-.57-.36-1.13-.72-1.69-1.09-.56-.37-1.11-.73-1.65-1.1-.24-.16-.56-.39-.98-.68-.42-.29-.85-.62-1.3-.99-.45-.37-.89-.76-1.32-1.17-.43-.41-.79-.83-1.08-1.26-.29-.43-.48-.85-.56-1.26-.09-.41-.01-.8.23-1.15.28-.42.69-.67,1.21-.76.52-.09,1.1-.06,1.74.07.63.13,1.3.35,1.99.65.69.3,1.36.61,1.99.94.63.33,1.21.66,1.73.98.52.32.92.58,1.2.78Z"/>
            <path class="cls-1" d="m113,59.71c.4.07.88.19,1.42.35.55.17,1.06.4,1.54.68.48.29.86.63,1.15,1.03.29.4.39.88.29,1.44-.13.74-.49,1.25-1.1,1.53-.6.28-1.3.43-2.07.46-.78.03-1.56,0-2.35-.11s-1.41-.19-1.88-.25c0,1.48-.04,2.94-.11,4.37.45.12,1.01.3,1.67.55.66.25,1.28.56,1.86.94.58.38,1.07.82,1.46,1.33.39.51.53,1.08.42,1.7-.08.48-.32.83-.72,1.03-.4.21-.85.34-1.35.4-.5.06-1.01.06-1.53,0-.52-.06-.94-.12-1.28-.18-1.14-.2-2.25-.48-3.33-.85s-2.15-.77-3.21-1.2c-.56-.22-1.21-.5-1.96-.83-.75-.33-1.51-.72-2.29-1.15s-1.54-.92-2.29-1.45-1.39-1.1-1.95-1.71c-.55-.61-.98-1.27-1.27-1.98-.29-.71-.37-1.46-.23-2.24.13-.76.42-1.39.85-1.89.44-.5.97-.91,1.61-1.24.63-.32,1.33-.56,2.09-.72.76-.16,1.52-.27,2.28-.33.76-.06,1.51-.1,2.23-.11.72,0,1.36-.02,1.92-.02,1.35-.03,2.7-.03,4.06.02,1.36.05,2.71.19,4.06.42Zm-8.3,4.53c-.24-.04-.64-.1-1.19-.16-.56-.07-1.12-.1-1.69-.09-.57,0-1.08.08-1.55.21-.47.14-.73.38-.79.74-.03.2.07.41.31.64.24.23.55.45.94.66.39.21.82.42,1.3.61.48.2.95.38,1.39.53.45.16.85.29,1.21.4.36.1.62.18.78.23.11-1.22.16-2.42.16-3.62l-.87-.15Z"/>
          </g>
        </g>
      </g>
    </g>
  </g>
</svg>