<?xml version="1.0" encoding="UTF-8"?>
<svg id="Layer_2" data-name="Layer 2" xmlns="http://www.w3.org/2000/svg" viewBox="0 0 120 120">
  <defs>
    <style>
      .cls-1 {
        fill: #fff;
      }

      .cls-2 {
        fill: #ccd0d9;
      }

      .cls-3 {
        fill: #242830;
      }

      .cls-4 {
        fill: #4c535f;
      }
    </style>
  </defs>
  <g id="Card">
    <g id="Icon">
      <g id="Pearl">
        <g id="Boba">
          <circle class="cls-3" cx="60" cy="60" r="60"/>
          <path class="cls-4" d="m88,78c10.52,3.51,29-4,20.7,11.47-8.92,16.63-27.78,26.58-47.99,26.58-31.32,0-56.71-25.48-56.71-56.92,0-6.13,1.25-13.37,3.05-17.65,6.95-16.48,7.95,1.52,10.95,4.52,7,7,14.42,2.72,27,6,23,6,37,24,43,26Z"/>
          <path class="cls-2" d="m59.19,16.76c-3.74,26.73,49.88,18.93,29.93,0-6.16-5.85-28.07-13.26-29.93,0Z"/>
          <path class="cls-2" d="m93.11,37.78c-2.46,2.43-5.13,8.03-2.09,11s5.53,7.03,9.37,5.67c7.9-2.81,7.02-10.97,3.59-16.43-3.86-6.13-7.9-3.17-10.86-.24Z"/>
        </g>
      </g>
      <g id="Names_W" data-name="Names W">
        <g id="UXR">
          <g id="MARRIANE">
            <path class="cls-1" d="m34.52,108c-.36.39-.74.75-1.14,1.09s-.77.62-1.14.84c-.37.22-.72.35-1.06.38-.34.04-.65-.04-.91-.24-.26-.19-.35-.57-.26-1.13.08-.56.28-1.24.58-2.03.3-.8.69-1.67,1.15-2.62.46-.95.95-1.89,1.47-2.84.51-.95,1.03-1.86,1.56-2.73.52-.88.99-1.63,1.39-2.27-.56.55-1.19,1.15-1.89,1.82-.7.67-1.43,1.33-2.2,1.99-.77.66-1.54,1.29-2.31,1.89-.78.6-1.51,1.11-2.19,1.52-.69.41-1.3.7-1.85.85-.54.15-.97.11-1.28-.12-.28-.21-.42-.6-.41-1.18,0-.58.1-1.27.29-2.08.19-.81.46-1.67.79-2.59.33-.92.68-1.83,1.05-2.73.37-.9.73-1.75,1.09-2.53.36-.79.66-1.44.92-1.95-.25.34-.54.72-.86,1.13s-.54.7-.68.88c-.06.08-.26.35-.61.8-.35.45-.78.98-1.3,1.57-.52.6-1.1,1.23-1.74,1.88-.64.65-1.28,1.22-1.93,1.7-.65.48-1.27.83-1.86,1.05-.59.22-1.1.19-1.54-.08-.22-.39-.3-.84-.26-1.35.04-.51.16-1.06.37-1.64s.47-1.17.79-1.77c.32-.6.64-1.17.98-1.72s.66-1.05.98-1.49.58-.81.79-1.08c.36-.49.85-1.08,1.46-1.78.61-.7,1.28-1.41,2.02-2.13.74-.72,1.51-1.41,2.33-2.06.82-.66,1.62-1.2,2.4-1.62.78-.42,1.52-.68,2.22-.79.7-.11,1.31.03,1.84.42.24.18.4.51.47,1,.07.48.08,1.05.02,1.71-.06.65-.16,1.36-.31,2.1-.15.75-.32,1.49-.5,2.23-.18.74-.38,1.43-.58,2.08-.2.65-.38,1.19-.53,1.64.42-.29.92-.63,1.51-1.01.58-.38,1.2-.76,1.86-1.14.65-.39,1.33-.75,2.02-1.08s1.35-.6,1.98-.8c.63-.2,1.21-.32,1.72-.35.52-.03.94.07,1.27.31.57.42.9,1,.99,1.73.09.73.02,1.53-.2,2.41-.23.88-.57,1.8-1.03,2.77s-.95,1.89-1.48,2.78c-.52.89-1.04,1.7-1.55,2.44-.51.74-.93,1.32-1.25,1.76-.13.18-.32.42-.55.73s-.5.66-.79,1.04c-.3.39-.63.79-.99,1.2-.36.42-.73.83-1.1,1.23Z"/>
            <path class="cls-1" d="m57.06,112.04c-.07.4-.19.87-.36,1.42-.17.55-.4,1.06-.69,1.53-.29.47-.64.86-1.04,1.15-.4.29-.88.38-1.44.28-.74-.13-1.25-.5-1.52-1.11-.27-.61-.42-1.3-.45-2.08-.03-.78.01-1.56.12-2.35.11-.79.19-1.41.26-1.87-1.48-.02-2.94-.06-4.37-.13-.12.45-.31,1.01-.56,1.67s-.57,1.28-.95,1.86-.83,1.06-1.34,1.45-1.08.52-1.7.41c-.48-.08-.82-.33-1.03-.73-.21-.4-.34-.85-.39-1.35-.05-.5-.05-1.02,0-1.53.06-.52.12-.94.18-1.28.2-1.14.49-2.25.87-3.33.38-1.08.78-2.15,1.22-3.2.22-.56.5-1.21.84-1.95.34-.74.73-1.51,1.16-2.28s.92-1.54,1.46-2.28c.53-.74,1.11-1.39,1.72-1.94.61-.55,1.28-.97,1.99-1.26.71-.29,1.46-.36,2.24-.22.76.14,1.39.42,1.89.86.5.44.91.98,1.23,1.61.32.64.56,1.33.71,2.09.15.76.26,1.52.32,2.29.06.76.09,1.51.1,2.23,0,.72,0,1.36.01,1.92.03,1.35.01,2.7-.04,4.06-.06,1.36-.2,2.71-.44,4.05Zm-4.49-8.32c.04-.24.1-.64.17-1.19.07-.56.1-1.12.1-1.69,0-.57-.07-1.08-.2-1.55-.13-.47-.38-.73-.74-.8-.2-.04-.41.07-.64.3-.23.24-.45.55-.66.94s-.42.82-.62,1.3c-.2.48-.38.94-.54,1.39-.16.45-.3.85-.4,1.21-.11.36-.18.62-.23.78,1.22.11,2.42.17,3.62.18l.16-.87Z"/>
            <path class="cls-1" d="m75.03,97.64c.28,1.37.21,2.67-.21,3.9-.42,1.22-1.07,2.36-1.95,3.41.42.41.86.9,1.32,1.47.47.57.91,1.18,1.32,1.83.41.65.77,1.32,1.09,1.99.31.67.53,1.31.65,1.9.13.64.09,1.24-.12,1.81-.21.57-.68.93-1.41,1.08-.62.12-1.21-.07-1.78-.57-.57-.51-1.11-1.14-1.63-1.89-.52-.76-1-1.53-1.47-2.33s-.88-1.43-1.24-1.9c-.33.19-.66.4-.96.61s-.63.43-.96.64c.07.44.16,1.05.26,1.83.11.78.15,1.56.13,2.35-.02.79-.14,1.5-.36,2.13-.23.63-.64,1-1.23,1.12-.66.13-1.22-.03-1.69-.5-.47-.46-.85-1.05-1.15-1.76-.3-.71-.54-1.44-.71-2.2-.17-.76-.31-1.36-.4-1.8-.19-.94-.36-1.86-.5-2.77-.14-.91-.31-1.84-.5-2.78-.17-.86-.36-1.71-.56-2.56-.2-.85-.39-1.71-.57-2.59-.04-.2-.09-.45-.15-.76-.06-.31-.11-.63-.15-.96-.04-.33-.07-.66-.09-.96-.02-.31,0-.56.06-.76.11-.46.49-.95,1.12-1.47.63-.52,1.34-1.01,2.13-1.47.79-.46,1.57-.86,2.34-1.19.77-.33,1.36-.54,1.75-.62,1.02-.21,1.95-.2,2.8.02.85.22,1.6.6,2.25,1.15.65.54,1.19,1.21,1.62,2,.43.79.74,1.66.93,2.59Zm-5.44,1.54c-.1-.52-.3-.89-.6-1.11-.29-.22-.71-.28-1.25-.17-.4.08-.79.23-1.17.45-.38.22-.72.46-1.02.7.4,1.56.74,3.11,1.04,4.67.39-.22.78-.49,1.18-.8.39-.31.74-.66,1.05-1.05s.54-.81.69-1.26c.16-.45.19-.93.08-1.45Z"/>
            <path class="cls-1" d="m87.99,89.37c.75,1.18,1.15,2.42,1.2,3.71.05,1.29-.15,2.59-.61,3.88.54.24,1.12.54,1.76.9.64.37,1.27.78,1.89,1.24.62.46,1.19.95,1.72,1.47.53.52.96,1.03,1.29,1.55.35.55.53,1.13.54,1.73.01.61-.3,1.11-.94,1.51-.53.34-1.15.37-1.87.1s-1.44-.67-2.2-1.19-1.48-1.07-2.2-1.65c-.72-.58-1.33-1.02-1.83-1.33-.24.3-.47.6-.68.92-.21.31-.43.63-.67.94.22.39.52.93.9,1.61.38.69.7,1.4.96,2.15.27.75.41,1.45.42,2.11.01.67-.24,1.16-.75,1.49-.57.36-1.15.4-1.75.14-.6-.27-1.17-.68-1.7-1.23-.53-.55-1.01-1.16-1.45-1.81-.44-.65-.77-1.16-1.01-1.54-.51-.81-1-1.61-1.46-2.41-.46-.8-.95-1.61-1.46-2.42-.47-.74-.95-1.47-1.44-2.19-.49-.72-.98-1.46-1.46-2.22-.11-.17-.25-.39-.42-.66-.17-.27-.33-.55-.48-.85-.15-.3-.29-.59-.42-.87-.13-.28-.2-.52-.21-.73-.06-.47.12-1.06.52-1.77.4-.71.89-1.42,1.46-2.13.57-.71,1.16-1.36,1.76-1.94.6-.59,1.08-.99,1.42-1.2.88-.55,1.75-.88,2.63-.98.88-.1,1.71,0,2.51.27.8.28,1.54.71,2.23,1.3.68.59,1.28,1.29,1.79,2.09Zm-4.53,3.37c-.28-.45-.6-.72-.95-.82-.35-.1-.76,0-1.22.29-.34.22-.65.5-.93.84-.28.34-.51.68-.71,1.02.93,1.31,1.81,2.64,2.64,3.99.29-.35.56-.74.81-1.16.26-.43.46-.88.6-1.35.14-.48.21-.95.2-1.42-.01-.47-.16-.93-.44-1.38Z"/>
            <path class="cls-1" d="m91.33,77.6c.29.25.5.54.62.87s.17.67.15,1.03-.09.71-.2,1.07c-.11.36-.25.68-.42.96,1.73,1.52,3.36,3.01,4.9,4.49,1.54,1.48,3.09,3.07,4.64,4.75l.12-.14c.21-.25.44-.47.7-.66.26-.19.54-.33.83-.41.3-.08.59-.1.88-.05.29.05.58.19.86.43.36.3.57.68.64,1.13.07.45.05.93-.07,1.45-.12.52-.31,1.06-.57,1.61-.26.55-.54,1.09-.85,1.59-.31.51-.62.98-.93,1.41-.31.43-.57.77-.78,1.02-.16.19-.36.41-.6.67-.25.26-.51.47-.79.65s-.57.28-.87.32c-.3.04-.58-.05-.84-.28-.33-.28-.56-.59-.7-.94-.14-.35-.22-.72-.24-1.1s.03-.77.13-1.15c.11-.38.25-.73.42-1.06-.76-.83-1.52-1.65-2.29-2.46s-1.57-1.6-2.41-2.36c-.86-.78-1.7-1.55-2.54-2.31s-1.67-1.52-2.51-2.29c-.08.12-.15.23-.22.33-.07.1-.14.19-.21.27-.18.22-.4.43-.66.64-.26.21-.54.37-.84.49-.3.12-.6.18-.89.18s-.57-.11-.84-.33c-.53-.45-.77-1.04-.74-1.77.03-.73.22-1.48.55-2.25.33-.77.73-1.5,1.2-2.2.47-.69.87-1.23,1.2-1.62.18-.22.44-.49.78-.82.33-.33.7-.62,1.11-.88.4-.26.81-.43,1.21-.53.4-.1.77,0,1.09.27Z"/>
            <path class="cls-1" d="m111.5,70.88c.38.15.82.37,1.32.64.5.28.95.61,1.36.99s.71.8.91,1.25.2.94-.02,1.47c-.28.7-.74,1.12-1.39,1.26-.65.15-1.36.15-2.12.02-.77-.13-1.52-.33-2.27-.6-.75-.27-1.34-.48-1.78-.63-.32,1.45-.66,2.87-1.02,4.25.42.21.92.51,1.52.89.59.38,1.13.82,1.62,1.31.49.49.87,1.03,1.14,1.61.27.58.29,1.16.05,1.75-.18.45-.49.74-.92.86-.43.12-.9.16-1.41.11-.5-.05-1-.16-1.5-.32-.49-.17-.9-.31-1.22-.44-1.08-.43-2.1-.94-3.08-1.53-.98-.59-1.94-1.21-2.89-1.85-.5-.33-1.08-.74-1.74-1.22-.66-.48-1.33-1.02-2-1.61-.67-.59-1.32-1.22-1.93-1.89-.62-.67-1.13-1.37-1.55-2.08-.41-.71-.69-1.45-.82-2.2-.13-.75-.06-1.5.24-2.23.29-.72.7-1.27,1.23-1.67s1.14-.69,1.83-.88c.69-.18,1.42-.27,2.19-.27.78,0,1.54.06,2.3.15.76.1,1.5.22,2.2.36.71.14,1.34.27,1.88.38,1.32.25,2.65.54,3.97.87,1.32.33,2.62.75,3.88,1.26Zm-9.06,2.7c-.23-.09-.6-.23-1.13-.41-.53-.18-1.07-.33-1.63-.44-.56-.11-1.08-.15-1.56-.12-.48.04-.79.22-.93.56-.08.19-.02.42.17.69.19.27.45.55.78.84.33.29.72.58,1.15.87.43.29.85.56,1.25.81.4.25.77.46,1.11.64.33.18.57.31.71.39.36-1.17.67-2.34.92-3.51l-.82-.33Z"/>
            <path class="cls-1" d="m103.54,47.42c.45-.02,1.08-.02,1.91-.02.82,0,1.73.05,2.72.12.99.07,2,.19,3.03.35,1.03.16,1.97.39,2.82.68.85.29,1.55.66,2.1,1.1.56.45.85.99.87,1.64.02.61-.13,1.17-.47,1.7s-.75,1-1.25,1.42c-.5.43-1.04.8-1.62,1.13-.58.33-1.1.6-1.58.83-1.02.47-2.02.94-3.01,1.4-.99.47-1.99.91-3.01,1.34l.85-.03c.87-.03,1.74-.06,2.6-.09.86-.02,1.72,0,2.58.1.35.03.75.06,1.21.09.46.03.91.09,1.36.17.45.08.87.21,1.27.39.39.18.69.43.88.74.11.18.18.34.2.5s.06.32.11.5v.09c.02.47-.12.87-.42,1.21-.3.34-.7.63-1.19.87-.49.24-1.04.44-1.65.6-.61.16-1.22.28-1.81.38s-1.15.16-1.65.2c-.51.04-.91.07-1.22.08-.47.02-1.15.03-2.06.02-.91,0-1.91-.05-3.01-.14-1.1-.09-2.24-.22-3.4-.38-1.17-.17-2.23-.4-3.18-.71-.96-.31-1.75-.69-2.36-1.16s-.94-1.02-.97-1.67c-.03-.63.2-1.2.66-1.72.47-.52,1.03-.98,1.68-1.39.65-.41,1.34-.77,2.06-1.06.72-.29,1.32-.54,1.8-.74.94-.38,1.88-.76,2.81-1.12.93-.36,1.88-.72,2.84-1.06.04-.02.15-.07.33-.14.18-.07.38-.15.6-.24.24-.09.51-.2.81-.34-.26.01-.45.02-.56.04s-.21.02-.3.03c-.09,0-.21,0-.35.01-.14,0-.37.01-.67.03-.67.05-1.34.09-2.01.13-.67.04-1.33.07-1.98.09-.28.01-.68.02-1.19.03-.51.01-1.05,0-1.63-.03-.58-.03-1.17-.08-1.76-.16-.59-.08-1.13-.2-1.62-.38-.48-.17-.89-.4-1.2-.68-.32-.28-.48-.64-.5-1.06-.02-.51.16-.95.53-1.33s.85-.71,1.44-.97c.59-.27,1.25-.49,1.99-.66.74-.17,1.46-.31,2.16-.42.71-.11,1.37-.19,1.97-.23.61-.04,1.08-.07,1.43-.09Z"/>
            <path class="cls-1" d="m104.49,29.54c.35-.16.73-.23,1.15-.19.4.04.97.3,1.71.79.74.49,1.49,1.06,2.25,1.71s1.45,1.31,2.08,1.96,1.02,1.16,1.19,1.53c.12.26.2.59.24,1,.04.41.05.83.03,1.26-.02.44-.09.85-.2,1.25s-.24.71-.41.94c-.1.13-.32.32-.68.56-.36.24-.78.51-1.28.79-.5.28-1.03.58-1.59.88-.56.3-1.1.59-1.62.86-.51.27-.97.5-1.37.7-.4.2-.69.34-.88.42-.68.31-1.48.65-2.39,1.01-.91.36-1.84.68-2.79.97-.95.28-1.9.49-2.84.62-.94.13-1.79.11-2.55-.05-.23-.05-.52-.23-.88-.53-.36-.3-.75-.68-1.16-1.13-.41-.45-.83-.94-1.25-1.49-.43-.54-.82-1.07-1.18-1.59-.36-.52-.68-.99-.96-1.42-.28-.43-.47-.77-.58-1.01-.13-.28-.19-.57-.18-.87,0-.3.07-.59.19-.86.12-.27.29-.51.49-.73s.44-.39.72-.52c.24-.11.46-.17.65-.18.2-.01.43,0,.69.04.33.07.79.33,1.39.77.6.44,1.23.93,1.87,1.47.64.54,1.24,1.07,1.79,1.59.55.52.94.88,1.17,1.09.46-.12.92-.24,1.4-.36s.94-.26,1.4-.43c-.56-.44-1.13-.95-1.72-1.56-.59-.6-1.03-1.22-1.33-1.87-.6-1.31-.26-2.26,1.03-2.86.31-.14.62-.21.91-.2s.58.07.85.18c.27.11.54.26.79.44.25.19.5.37.74.55.59.45,1.14.94,1.67,1.48s1.05,1.08,1.57,1.62c.17-.03.34-.07.54-.11.19-.04.37-.1.54-.18.26-.12.51-.26.75-.41s.48-.31.72-.47c-.17-.19-.46-.49-.85-.9-.39-.41-.79-.85-1.21-1.31-.41-.46-.79-.91-1.14-1.35-.35-.44-.58-.78-.69-1.02-.13-.28-.19-.56-.18-.86.01-.29.07-.57.19-.83s.28-.49.49-.71.45-.39.71-.51Z"/>
          </g>
        </g>
      </g>
    </g>
  </g>
</svg>