<?xml version="1.0" encoding="UTF-8"?>
<svg id="Layer_2" data-name="Layer 2" xmlns="http://www.w3.org/2000/svg" viewBox="0 0 120 120">
  <defs>
    <style>
      .cls-1 {
        fill: #4c535f;
      }

      .cls-1, .cls-2, .cls-3, .cls-4 {
        stroke-width: 0px;
      }

      .cls-2 {
        fill: #242830;
      }

      .cls-3 {
        fill: #ccd0d9;
      }

      .cls-4 {
        fill: #fff;
      }
    </style>
  </defs>
  <g id="Layer_1-2" data-name="Layer 1">
    <g id="Icon">
      <g id="Pearl">
        <g id="Boba">
          <circle class="cls-2" cx="60" cy="60" r="60"/>
          <path class="cls-1" d="m88,78c10.52,3.51,29-4,20.7,11.47-8.92,16.63-27.78,26.58-47.99,26.58-31.32,0-56.71-25.48-56.71-56.92,0-6.13,1.25-13.37,3.05-17.65,6.95-16.48,7.95,1.52,10.95,4.52,7,7,14.42,2.72,27,6,23,6,37,24,43,26Z"/>
          <path class="cls-3" d="m59.19,16.76c-3.74,26.73,49.88,18.93,29.93,0-6.16-5.85-28.07-13.26-29.93,0Z"/>
          <path class="cls-3" d="m93.11,37.78c-2.46,2.43-5.13,8.03-2.09,11s5.53,7.03,9.37,5.67c7.9-2.81,7.02-10.97,3.59-16.43-3.86-6.13-7.9-3.17-10.86-.24Z"/>
        </g>
      </g>
      <g id="Names_W" data-name="Names W">
        <g id="PM">
          <g id="GARO">
            <path class="cls-4" d="m68.89,108.14c-.12.92-.35,1.89-.67,2.9-.33,1.01-.77,1.94-1.34,2.79-.56.85-1.25,1.57-2.07,2.14s-1.77.9-2.87.97c-.81.05-1.55-.06-2.22-.34-.67-.28-1.29-.68-1.85-1.19-.56-.51-1.06-1.11-1.49-1.79-.43-.68-.8-1.4-1.11-2.14-.3-.74-.54-1.49-.71-2.23s-.28-1.44-.32-2.09c-.06-.91-.04-1.9.06-2.95.1-1.05.29-2.11.57-3.15s.64-2.06,1.11-3.04,1.03-1.85,1.7-2.62c.67-.77,1.44-1.4,2.31-1.9.87-.5,1.87-.78,2.98-.86.71-.05,1.38.04,2,.28.63.23,1.18.56,1.65.99s.86.95,1.16,1.56.47,1.26.51,1.95l.02.27c.03.36.04.82.05,1.36s-.06,1.06-.19,1.55c-.13.5-.34.94-.64,1.31-.3.38-.74.58-1.33.62-.71.05-1.26-.08-1.64-.38s-.61-.82-.66-1.58c-.02-.28-.03-.57-.03-.85,0-.28,0-.57-.03-.85-.03-.43-.12-.75-.28-.97-.16-.22-.46-.32-.91-.29-.51.04-.95.23-1.33.58s-.71.8-.98,1.35c-.27.55-.49,1.16-.67,1.85-.18.68-.31,1.37-.41,2.06-.1.69-.15,1.35-.17,1.98-.02.63-.01,1.17.02,1.62.03.36.07.78.15,1.26.07.47.19.92.35,1.35.16.43.38.78.67,1.07.28.29.64.42,1.06.39.73-.05,1.3-.32,1.72-.8s.68-1.09.79-1.81c-.29-.02-.57-.07-.85-.14-.28-.07-.54-.19-.79-.34-.24-.16-.45-.36-.61-.6-.16-.24-.25-.54-.27-.88-.04-.63.14-1.13.54-1.52.4-.38.88-.69,1.45-.91.57-.22,1.15-.38,1.75-.47.6-.09,1.09-.15,1.45-.17.26-.02.65-.02,1.16-.02.51,0,1.02.06,1.52.16.51.1.95.26,1.33.48.38.22.58.52.61.91.05.77-.11,1.45-.49,2.03-.38.59-.97.96-1.77,1.11Z"/>
            <path class="cls-4" d="m89.15,102.84c.18.37.36.82.54,1.36.18.54.3,1.09.34,1.65.04.55-.01,1.07-.17,1.54-.16.47-.49.83-1,1.08-.68.33-1.3.33-1.88,0-.58-.33-1.11-.8-1.58-1.42s-.9-1.27-1.28-1.97-.67-1.25-.89-1.67c-1.21.86-2.41,1.68-3.61,2.46.17.44.34,1,.52,1.68s.29,1.37.32,2.06-.05,1.35-.23,1.96c-.19.61-.57,1.05-1.13,1.33-.44.21-.86.22-1.26.02s-.77-.49-1.11-.87c-.34-.38-.64-.79-.89-1.24s-.46-.83-.61-1.14c-.5-1.04-.92-2.11-1.25-3.21-.33-1.09-.62-2.2-.89-3.31-.15-.58-.3-1.28-.47-2.08-.16-.8-.3-1.65-.4-2.53s-.16-1.79-.16-2.7c0-.91.08-1.77.26-2.58.17-.81.46-1.53.87-2.18.41-.65.97-1.15,1.68-1.49.69-.34,1.37-.47,2.04-.41.66.06,1.31.26,1.94.58.63.33,1.23.75,1.8,1.28.57.53,1.1,1.08,1.6,1.66.5.58.96,1.17,1.39,1.75.43.58.81,1.1,1.14,1.55.81,1.07,1.6,2.18,2.35,3.31.75,1.14,1.43,2.32,2.02,3.54Zm-8.52-4.1c-.11-.22-.29-.57-.57-1.06-.27-.49-.57-.96-.91-1.42-.33-.46-.69-.84-1.08-1.14s-.74-.37-1.07-.21c-.18.09-.3.29-.34.62s-.04.71.01,1.15c.05.44.14.91.26,1.41.12.51.25.99.38,1.44.13.46.26.86.39,1.22.13.36.22.61.27.77,1.05-.62,2.06-1.28,3.04-1.98l-.39-.8Z"/>
            <path class="cls-4" d="m95.2,80.62c1.03.95,1.74,2.04,2.12,3.27.38,1.23.53,2.54.43,3.91.58.09,1.22.23,1.94.41s1.43.42,2.14.71c.72.29,1.4.61,2.05.97.65.36,1.2.75,1.65,1.16.48.44.8.95.97,1.53s0,1.15-.51,1.7c-.43.46-1.02.66-1.78.58s-1.57-.27-2.43-.58c-.86-.31-1.71-.65-2.56-1.02s-1.55-.64-2.12-.81c-.16.35-.3.71-.42,1.06s-.25.72-.4,1.08c.32.32.74.76,1.29,1.33s1.04,1.17,1.49,1.82.77,1.29.96,1.93.07,1.18-.34,1.63c-.45.49-1.01.69-1.66.59s-1.3-.35-1.96-.75c-.66-.4-1.28-.85-1.87-1.37-.59-.51-1.05-.92-1.38-1.22-.7-.65-1.38-1.3-2.04-1.95s-1.33-1.31-2.04-1.95c-.64-.59-1.3-1.17-1.96-1.74-.66-.57-1.33-1.15-1.98-1.76-.15-.14-.34-.31-.57-.53-.23-.21-.46-.44-.69-.69-.23-.25-.44-.49-.64-.73-.2-.24-.33-.45-.39-.65-.18-.44-.16-1.05.04-1.85.2-.79.49-1.61.86-2.44.37-.83.76-1.61,1.19-2.34.43-.72.78-1.23,1.06-1.53.7-.76,1.46-1.3,2.28-1.63.82-.32,1.65-.45,2.5-.4.84.06,1.67.28,2.49.67s1.57.91,2.28,1.55Zm-3.5,4.44c-.39-.36-.77-.54-1.13-.54-.37,0-.74.19-1.11.6-.27.3-.5.65-.68,1.05-.18.4-.31.79-.41,1.17,1.24,1.03,2.43,2.08,3.59,3.17.18-.41.34-.86.48-1.34.14-.48.21-.97.23-1.46.01-.5-.04-.97-.18-1.43s-.4-.86-.79-1.22Z"/>
            <path class="cls-4" d="m113.79,79.93c-.46,1.15-1.14,2.04-2.05,2.66-.91.62-1.96,1.02-3.16,1.19-1.19.17-2.49.14-3.88-.09-1.39-.23-2.8-.63-4.22-1.19-1.32-.52-2.61-1.2-3.85-2.03-1.25-.83-2.3-1.76-3.15-2.8-.86-1.04-1.45-2.16-1.79-3.36-.33-1.2-.25-2.44.26-3.73.49-1.25,1.24-2.16,2.24-2.73,1-.58,2.14-.9,3.4-.98,1.27-.08,2.6.03,4.01.34,1.41.31,2.78.72,4.1,1.24,1.47.58,2.81,1.28,4.01,2.09,1.2.81,2.18,1.71,2.95,2.7s1.27,2.05,1.5,3.18c.23,1.13.11,2.3-.37,3.51Zm-15.68-6.58c-.14.36-.12.72.06,1.09s.47.73.87,1.08c.4.35.87.68,1.41.98.55.3,1.11.57,1.7.8.66.26,1.34.48,2.04.66.7.18,1.34.28,1.94.32.6.04,1.11,0,1.53-.13s.7-.37.85-.73c.16-.41.09-.83-.23-1.24s-.74-.8-1.27-1.17c-.53-.37-1.1-.71-1.7-1-.61-.29-1.12-.52-1.53-.69-.51-.2-1.06-.38-1.66-.54-.59-.16-1.16-.26-1.7-.29-.54-.04-1.02,0-1.44.12-.42.12-.7.37-.85.75Z"/>
          </g>
        </g>
      </g>
    </g>
  </g>
</svg>