<?xml version="1.0" encoding="UTF-8"?>
<svg id="Layer_2" data-name="Layer 2" xmlns="http://www.w3.org/2000/svg" viewBox="0 0 120 120">
  <defs>
    <style>
      .cls-1 {
        fill: #fff;
      }

      .cls-2 {
        fill: #ccd0d9;
      }

      .cls-3 {
        fill: #242830;
      }

      .cls-4 {
        fill: #4c535f;
      }
    </style>
  </defs>
  <g id="Card">
    <g id="Icon">
      <g id="Pearl">
        <g id="Boba">
          <circle class="cls-3" cx="60" cy="60" r="60"/>
          <path class="cls-4" d="m88,78c10.52,3.51,29-4,20.7,11.47-8.92,16.63-27.78,26.58-47.99,26.58-31.32,0-56.71-25.48-56.71-56.92,0-6.13,1.25-13.37,3.05-17.65,6.95-16.48,7.95,1.52,10.95,4.52,7,7,14.42,2.72,27,6,23,6,37,24,43,26Z"/>
          <path class="cls-2" d="m59.19,16.76c-3.74,26.73,49.88,18.93,29.93,0-6.16-5.85-28.07-13.26-29.93,0Z"/>
          <path class="cls-2" d="m93.11,37.78c-2.46,2.43-5.13,8.03-2.09,11s5.53,7.03,9.37,5.67c7.9-2.81,7.02-10.97,3.59-16.43-3.86-6.13-7.9-3.17-10.86-.24Z"/>
        </g>
      </g>
      <g id="Names_W" data-name="Names W">
        <g id="UXR">
          <g id="LYNN">
            <path class="cls-1" d="m69.17,111.45c.02.51-.17.99-.56,1.46-.4.46-.92.89-1.56,1.29s-1.37.75-2.17,1.06c-.8.31-1.59.58-2.37.81s-1.52.41-2.22.54c-.7.13-1.25.21-1.65.22-.39.02-.8,0-1.24-.05-.44-.05-.81-.19-1.1-.42-.17-.11-.32-.38-.46-.8-.14-.42-.28-.92-.42-1.51-.14-.58-.26-1.21-.37-1.89-.11-.68-.21-1.34-.28-1.99-.08-.65-.15-1.24-.2-1.79-.05-.55-.09-.97-.1-1.28-.02-.51-.03-1.12-.04-1.84,0-.72.01-1.5.04-2.32.03-.82.07-1.67.13-2.52.06-.86.15-1.67.24-2.44s.23-1.46.4-2.08c.17-.62.35-1.1.56-1.46.36-.56.84-.86,1.43-.89.41-.02.76.1,1.05.37.3.26.54.61.73,1.04.19.43.34.91.46,1.44.11.53.2,1.06.27,1.59.06.53.1,1.01.12,1.46.02.45.04.8.05,1.07.07,1.58.1,3.15.1,4.71,0,1.56.03,3.12.1,4.71l.05,1.19c.9-.32,1.88-.64,2.95-.94,1.06-.3,2.08-.47,3.06-.51.34-.01.7,0,1.05.02.36.03.67.1.96.22.28.12.51.3.69.55.18.25.29.58.3,1.01Z"/>
            <path class="cls-1" d="m78.9,90.27c.3.84.52,1.81.67,2.9.14,1.09.23,2.22.25,3.37.03,1.16.01,2.29-.04,3.41-.05,1.12-.12,2.11-.19,2.98-.04.49-.08,1.1-.13,1.84-.05.74-.11,1.54-.2,2.39-.08.85-.19,1.71-.32,2.59-.13.88-.3,1.68-.51,2.42-.21.73-.47,1.37-.78,1.9-.31.53-.68.88-1.12,1.03-.61.22-1.13.15-1.55-.21-.42-.36-.73-.81-.93-1.37-.19-.54-.31-1.14-.34-1.8-.04-.67-.02-1.35.05-2.04.06-.69.16-1.38.3-2.05.13-.67.27-1.28.4-1.83-.42.04-.85,0-1.3-.12-.45-.12-.83-.32-1.12-.6-.55-.56-1.13-1.2-1.76-1.93-.63-.72-1.22-1.48-1.79-2.25s-1.1-1.57-1.58-2.38c-.48-.81-.86-1.58-1.12-2.3-.12-.34-.22-.74-.29-1.17-.07-.44-.08-.87-.02-1.29.05-.42.19-.8.4-1.15.21-.35.54-.6.98-.75.5-.18,1-.15,1.52.09.52.24,1.02.59,1.53,1.06.5.47.98,1.02,1.45,1.65.46.63.9,1.27,1.3,1.9.4.63.75,1.22,1.05,1.76.3.54.55.96.74,1.26-.03-.31-.05-.8-.08-1.44-.03-.65-.04-1.37-.03-2.17,0-.8.04-1.63.11-2.5s.18-1.67.33-2.42c.15-.75.37-1.39.65-1.93.28-.54.64-.89,1.08-1.05.29-.1.56-.08.83.06.27.14.5.34.71.59.21.25.39.52.53.81.15.29.26.54.33.75Z"/>
            <path class="cls-1" d="m95.28,85.95c.3.33.7.82,1.21,1.47.51.64,1.05,1.37,1.62,2.19.57.81,1.12,1.67,1.64,2.57.53.9.94,1.78,1.25,2.62.31.84.46,1.62.47,2.33,0,.71-.23,1.28-.72,1.71-.46.4-.99.64-1.61.71-.62.07-1.25.04-1.9-.08-.65-.12-1.28-.3-1.9-.54-.62-.24-1.17-.48-1.64-.71-1-.49-2-.98-2.99-1.45-.99-.47-1.97-.97-2.94-1.49l.56.64c.58.66,1.15,1.31,1.71,1.96.56.65,1.08,1.34,1.55,2.06.2.29.43.62.69.99s.51.77.73,1.17c.22.4.38.81.5,1.23.11.42.1.8-.02,1.15-.07.2-.15.35-.26.47-.1.12-.21.25-.32.4l-.07.06c-.35.31-.75.45-1.2.43-.45-.02-.93-.14-1.42-.37-.5-.23-1-.53-1.51-.9-.51-.38-.99-.77-1.44-1.17-.45-.4-.85-.79-1.2-1.15-.35-.37-.63-.67-.83-.89-.31-.35-.75-.88-1.32-1.58-.57-.7-1.17-1.51-1.79-2.42s-1.24-1.87-1.85-2.88c-.61-1.01-1.09-1.98-1.46-2.92-.37-.94-.56-1.79-.6-2.56-.03-.77.2-1.37.68-1.8.47-.42,1.06-.61,1.75-.57.7.04,1.41.18,2.14.43.73.25,1.44.56,2.12.93.68.37,1.25.68,1.71.93.89.49,1.77.98,2.64,1.47.87.49,1.74,1,2.61,1.53.04.02.15.07.31.17s.35.2.56.32c.22.13.48.27.77.42-.17-.2-.3-.34-.38-.41-.08-.08-.15-.15-.21-.22-.06-.07-.14-.16-.23-.26-.09-.11-.24-.27-.44-.5-.46-.49-.91-.98-1.37-1.48s-.89-.99-1.32-1.48c-.19-.21-.45-.51-.77-.9-.33-.39-.67-.81-1.01-1.28-.35-.47-.67-.96-.99-1.46-.31-.51-.56-1.01-.73-1.49-.17-.49-.25-.94-.23-1.36.02-.42.19-.78.51-1.06.38-.34.84-.48,1.37-.43.53.05,1.08.22,1.66.5s1.17.66,1.76,1.12c.6.46,1.16.93,1.69,1.41.53.48,1.01.94,1.42,1.38.42.44.74.79.97,1.05Z"/>
            <path class="cls-1" d="m103.81,67.47c.41.17.99.44,1.73.8.74.36,1.54.78,2.41,1.27.86.49,1.73,1.02,2.59,1.61.87.59,1.62,1.19,2.26,1.82.64.62,1.12,1.26,1.43,1.9s.34,1.26.09,1.86c-.24.56-.62,1.01-1.14,1.33-.53.33-1.11.58-1.74.75-.64.17-1.28.28-1.95.33-.66.05-1.26.07-1.79.07-1.12-.01-2.23-.02-3.32-.02-1.09,0-2.19-.02-3.3-.07l.79.33c.8.34,1.6.68,2.39,1.03.79.35,1.56.74,2.29,1.19.3.17.65.37,1.05.6s.79.47,1.16.74c.37.27.7.57.98.89.28.33.44.68.48,1.05.02.21.01.39-.03.53-.04.15-.08.31-.11.5l-.04.08c-.18.43-.48.73-.9.91s-.9.27-1.44.28c-.55.01-1.13-.04-1.75-.16-.62-.12-1.22-.26-1.8-.43-.58-.17-1.11-.34-1.58-.52-.48-.18-.85-.33-1.13-.45-.43-.18-1.05-.47-1.87-.86-.82-.39-1.7-.86-2.66-1.41-.96-.55-1.93-1.15-2.91-1.8s-1.84-1.31-2.58-2c-.74-.69-1.28-1.37-1.65-2.05s-.42-1.32-.16-1.92c.25-.58.69-1,1.33-1.27.64-.27,1.35-.45,2.12-.54s1.54-.12,2.32-.08,1.42.07,1.95.1c1.01.05,2.02.12,3.02.19,1,.07,2,.15,3.02.25.05,0,.16,0,.36.02.19.02.41.03.64.04.26.02.55.03.88.04-.24-.1-.42-.17-.52-.21-.11-.03-.2-.07-.29-.1s-.19-.08-.32-.14c-.13-.06-.34-.14-.62-.26-.63-.24-1.25-.49-1.87-.74-.62-.25-1.23-.5-1.83-.76-.26-.11-.62-.27-1.09-.48-.46-.21-.95-.45-1.47-.72-.51-.27-1.02-.57-1.52-.89-.5-.32-.94-.67-1.3-1.03-.36-.36-.63-.74-.79-1.13-.17-.39-.17-.78,0-1.17.2-.47.55-.79,1.04-.98s1.07-.27,1.72-.27,1.34.09,2.08.25c.74.16,1.45.34,2.14.54.69.2,1.31.41,1.88.63.57.22,1.01.4,1.33.53Z"/>
          </g>
        </g>
      </g>
    </g>
  </g>
</svg>