<?xml version="1.0" encoding="UTF-8"?>
<svg id="Layer_2" data-name="Layer 2" xmlns="http://www.w3.org/2000/svg" viewBox="0 0 120 120">
  <defs>
    <style>
      .cls-1 {
        fill: #fff;
      }

      .cls-2 {
        fill: #ccd0d9;
      }

      .cls-3 {
        fill: #242830;
      }

      .cls-4 {
        fill: #4c535f;
      }
    </style>
  </defs>
  <g id="Card">
    <g id="Icon">
      <g id="Pearl">
        <g id="Boba">
          <circle class="cls-3" cx="60" cy="60" r="60"/>
          <path class="cls-4" d="m88,78c10.52,3.51,29-4,20.7,11.47-8.92,16.63-27.78,26.58-47.99,26.58-31.32,0-56.71-25.48-56.71-56.92,0-6.13,1.25-13.37,3.05-17.65,6.95-16.48,7.95,1.52,10.95,4.52,7,7,14.42,2.72,27,6,23,6,37,24,43,26Z"/>
          <path class="cls-2" d="m59.19,16.76c-3.74,26.73,49.88,18.93,29.93,0-6.16-5.85-28.07-13.26-29.93,0Z"/>
          <path class="cls-2" d="m93.11,37.78c-2.46,2.43-5.13,8.03-2.09,11s5.53,7.03,9.37,5.67c7.9-2.81,7.02-10.97,3.59-16.43-3.86-6.13-7.9-3.17-10.86-.24Z"/>
        </g>
      </g>
      <g id="Names_W" data-name="Names W">
        <g id="UXR">
          <g id="LARA">
            <path class="cls-1" d="m69.85,111.32c.03.51-.15,1-.54,1.47-.39.47-.91.91-1.54,1.31-.64.4-1.36.76-2.15,1.08s-1.58.6-2.36.83-1.52.43-2.21.57c-.69.14-1.24.22-1.65.25-.39.02-.8,0-1.24-.04-.44-.05-.81-.18-1.11-.41-.17-.11-.33-.38-.47-.8-.15-.42-.29-.92-.44-1.5-.14-.58-.28-1.21-.4-1.89-.12-.67-.22-1.34-.31-1.98-.09-.65-.16-1.24-.22-1.79-.06-.55-.1-.97-.12-1.28-.03-.51-.05-1.12-.06-1.84,0-.72,0-1.5,0-2.32.01-.82.05-1.67.1-2.52.05-.86.12-1.67.21-2.44.09-.77.21-1.46.37-2.08.16-.62.34-1.11.54-1.47.35-.57.83-.87,1.41-.9.41-.02.76.09,1.06.35.3.26.55.6.75,1.03.2.43.36.91.48,1.44.12.53.22,1.06.29,1.59.07.53.12,1.01.14,1.46.02.45.04.8.06,1.06.09,1.58.14,3.15.16,4.71.02,1.56.07,3.12.16,4.71l.07,1.19c.9-.33,1.87-.66,2.94-.97,1.06-.31,2.08-.5,3.05-.55.34-.02.7-.02,1.05,0,.36.02.68.09.96.21.28.12.51.3.7.54.19.24.29.58.32,1Z"/>
            <path class="cls-1" d="m88.15,103.54c.17.37.34.83.51,1.37.17.55.27,1.1.3,1.65.03.56-.04,1.07-.2,1.53-.17.47-.51.82-1.02,1.06-.68.31-1.31.3-1.88-.04s-1.09-.83-1.55-1.45c-.46-.62-.88-1.29-1.23-2-.36-.71-.64-1.27-.86-1.69-1.23.83-2.45,1.62-3.67,2.38.16.44.32,1,.49,1.69.17.68.26,1.37.28,2.07.02.7-.08,1.35-.28,1.95-.2.61-.59,1.04-1.16,1.3-.44.2-.86.2-1.26,0-.4-.21-.76-.51-1.09-.89-.33-.38-.62-.81-.86-1.26s-.44-.84-.58-1.16c-.48-1.05-.87-2.13-1.18-3.23-.3-1.1-.58-2.21-.82-3.33-.13-.59-.27-1.28-.42-2.09-.15-.8-.26-1.65-.34-2.54-.08-.89-.12-1.79-.1-2.7s.12-1.77.31-2.57c.19-.8.5-1.52.92-2.16.42-.64.99-1.12,1.71-1.45.7-.32,1.38-.44,2.04-.37.66.08,1.3.29,1.93.63.62.34,1.22.78,1.77,1.32.56.54,1.08,1.1,1.56,1.7.48.59.93,1.19,1.35,1.78.42.59.78,1.12,1.1,1.57.79,1.09,1.55,2.21,2.28,3.36.73,1.15,1.38,2.35,1.94,3.59Zm-8.43-4.29c-.1-.22-.28-.58-.54-1.08-.26-.5-.55-.98-.88-1.44s-.67-.85-1.05-1.16c-.38-.31-.73-.39-1.06-.23-.18.08-.3.29-.35.61-.05.33-.06.71-.01,1.15.04.44.12.91.23,1.42.11.51.22.99.35,1.45.12.46.24.87.36,1.23.12.36.2.62.25.77,1.07-.6,2.09-1.24,3.08-1.91l-.37-.8Z"/>
            <path class="cls-1" d="m94.7,81.45c1.01.97,1.7,2.08,2.05,3.32.36,1.24.47,2.55.34,3.92.58.1,1.22.25,1.93.46.71.2,1.42.45,2.13.75.71.3,1.39.64,2.03,1.01.64.38,1.18.77,1.62,1.19.47.45.78.97.94,1.55.16.59-.03,1.15-.55,1.69-.44.45-1.03.64-1.79.54-.76-.09-1.56-.3-2.42-.63-.85-.33-1.7-.69-2.53-1.08-.83-.39-1.53-.68-2.1-.85-.17.35-.31.7-.44,1.05-.13.35-.27.71-.42,1.08.31.32.73.78,1.26,1.35.53.58,1.01,1.2,1.45,1.86.44.66.74,1.31.91,1.95.17.64.05,1.18-.38,1.62-.46.48-1.02.67-1.67.55-.65-.12-1.3-.38-1.95-.79-.65-.41-1.26-.88-1.84-1.41-.58-.53-1.03-.94-1.35-1.25-.69-.66-1.35-1.33-1.99-2-.64-.67-1.3-1.33-1.99-2-.63-.6-1.27-1.2-1.92-1.78s-1.3-1.18-1.95-1.8c-.15-.14-.33-.32-.56-.54-.23-.22-.45-.45-.67-.71s-.43-.5-.62-.74c-.19-.24-.32-.46-.38-.66-.17-.44-.14-1.06.08-1.84.22-.79.52-1.59.91-2.42.38-.83.8-1.6,1.24-2.31.44-.71.81-1.22,1.09-1.51.72-.75,1.49-1.27,2.32-1.58s1.66-.42,2.5-.34c.84.08,1.67.32,2.47.72.81.41,1.55.94,2.24,1.6Zm-3.59,4.36c-.38-.37-.75-.56-1.12-.57-.37-.01-.74.18-1.12.57-.28.29-.51.64-.7,1.04-.19.4-.33.79-.44,1.16,1.21,1.05,2.39,2.13,3.52,3.25.19-.41.36-.85.51-1.33.15-.48.23-.96.26-1.46.03-.5-.02-.97-.15-1.43-.12-.46-.38-.87-.76-1.23Z"/>
            <path class="cls-1" d="m111.43,71.14c.38.15.81.37,1.31.65.5.28.95.61,1.36,1,.4.38.7.8.9,1.26.2.45.19.94-.02,1.47-.28.7-.75,1.11-1.4,1.26-.65.14-1.36.14-2.12,0-.77-.14-1.52-.34-2.27-.61s-1.34-.48-1.78-.64c-.33,1.45-.67,2.86-1.04,4.25.42.21.92.51,1.51.9s1.13.82,1.62,1.32.87,1.03,1.14,1.61c.27.58.28,1.16.05,1.75-.18.45-.49.74-.92.86-.43.12-.9.15-1.41.1-.51-.05-1-.16-1.5-.33s-.9-.32-1.22-.45c-1.07-.44-2.1-.95-3.07-1.55-.98-.59-1.93-1.22-2.88-1.86-.5-.33-1.08-.75-1.74-1.23s-1.32-1.03-1.99-1.62c-.67-.59-1.31-1.22-1.92-1.9-.61-.68-1.12-1.37-1.54-2.09-.41-.71-.68-1.45-.81-2.21-.13-.75-.05-1.5.25-2.23.29-.71.7-1.27,1.24-1.67.53-.4,1.15-.68,1.83-.87.69-.18,1.42-.27,2.19-.26.78,0,1.54.06,2.3.16.76.1,1.49.22,2.2.37.71.15,1.33.28,1.88.39,1.32.25,2.64.55,3.96.89,1.32.34,2.61.77,3.87,1.28Zm-9.08,2.65c-.23-.09-.6-.23-1.13-.41-.53-.18-1.07-.33-1.63-.45-.56-.12-1.08-.16-1.56-.13s-.8.22-.93.56c-.08.19-.02.42.16.69.18.27.44.55.78.84.33.29.71.58,1.14.88.43.29.84.57,1.25.82.4.25.77.47,1.1.65.33.18.57.31.71.39.37-1.17.68-2.33.93-3.5l-.82-.33Z"/>
          </g>
        </g>
      </g>
    </g>
  </g>
</svg>