<?xml version="1.0" encoding="UTF-8"?>
<svg id="Layer_2" data-name="Layer 2" xmlns="http://www.w3.org/2000/svg" viewBox="0 0 120 120">
  <defs>
    <style>
      .cls-1 {
        fill: #fff;
      }

      .cls-2 {
        fill: #ccd0d9;
      }

      .cls-3 {
        fill: #242830;
      }

      .cls-4 {
        fill: #4c535f;
      }
    </style>
  </defs>
  <g id="Card">
    <g id="Icon">
      <g id="Pearl">
        <g id="Boba">
          <circle class="cls-3" cx="60" cy="60" r="60"/>
          <path class="cls-4" d="m88,78c10.52,3.51,29-4,20.7,11.47-8.92,16.63-27.78,26.58-47.99,26.58-31.32,0-56.71-25.48-56.71-56.92,0-6.13,1.25-13.37,3.05-17.65,6.95-16.48,7.95,1.52,10.95,4.52,7,7,14.42,2.72,27,6,23,6,37,24,43,26Z"/>
          <path class="cls-2" d="m59.19,16.76c-3.74,26.73,49.88,18.93,29.93,0-6.16-5.85-28.07-13.26-29.93,0Z"/>
          <path class="cls-2" d="m93.11,37.78c-2.46,2.43-5.13,8.03-2.09,11s5.53,7.03,9.37,5.67c7.9-2.81,7.02-10.97,3.59-16.43-3.86-6.13-7.9-3.17-10.86-.24Z"/>
        </g>
      </g>
      <g id="Names_W" data-name="Names W">
        <g id="PM">
          <g id="FAITH">
            <path class="cls-1" d="m65.98,94.16c-.01.77-.29,1.47-.83,2.09-.54.62-1.19,1.17-1.96,1.66s-1.57.9-2.41,1.26c-.84.35-1.56.65-2.18.88,0,.43-.02.86-.05,1.31-.03.45-.07.89-.11,1.34.66-.31,1.39-.61,2.21-.88.82-.27,1.59-.4,2.32-.39.59,0,1.07.14,1.44.39.37.25.55.68.54,1.29-.01.67-.26,1.27-.75,1.79-.49.52-1.07.98-1.74,1.37-.68.4-1.38.73-2.12,1-.74.27-1.36.49-1.87.64-.01.67-.03,1.34-.06,2s-.07,1.31-.12,1.96c-.03.32-.07.73-.13,1.22-.06.49-.17.96-.33,1.41-.16.45-.38.85-.67,1.18-.29.33-.66.49-1.11.48-.43,0-.79-.22-1.09-.64s-.55-.96-.75-1.61c-.2-.65-.36-1.38-.48-2.19s-.21-1.59-.27-2.37c-.06-.77-.09-1.48-.09-2.13,0-.65,0-1.15,0-1.49,0-.26.02-.65.03-1.17.02-.52.04-1.09.06-1.72.02-.63.05-1.29.09-1.98.04-.69.09-1.34.14-1.96.05-.62.12-1.17.19-1.64.08-.48.17-.82.28-1.05.23-.44.77-.88,1.62-1.3.85-.42,1.8-.79,2.84-1.11s2.06-.58,3.04-.77,1.75-.29,2.28-.28c.24,0,.48.02.71.06.23.03.45.1.65.21.2.1.36.25.48.43.12.18.18.43.17.73Z"/>
            <path class="cls-1" d="m83.4,106.27c.13.39.25.86.37,1.42s.16,1.12.13,1.68c-.03.56-.15,1.06-.36,1.51-.21.45-.59.76-1.13.95-.71.24-1.33.16-1.87-.24-.53-.4-1-.93-1.4-1.6-.4-.67-.74-1.37-1.02-2.11-.28-.74-.51-1.33-.68-1.76-1.31.7-2.6,1.37-3.89,2,.11.46.22,1.03.31,1.73.1.7.12,1.39.06,2.09-.05.69-.21,1.33-.48,1.92-.26.58-.69.98-1.29,1.18-.46.16-.88.11-1.25-.14-.37-.25-.71-.58-1-1s-.53-.86-.73-1.35c-.2-.48-.35-.88-.46-1.21-.37-1.1-.65-2.21-.84-3.33-.19-1.13-.35-2.26-.48-3.39-.07-.6-.14-1.3-.2-2.12-.06-.82-.09-1.67-.08-2.56,0-.89.07-1.79.18-2.7.11-.91.3-1.75.57-2.53.27-.78.65-1.46,1.13-2.06.49-.59,1.1-1.02,1.85-1.27.73-.25,1.42-.3,2.07-.16.65.15,1.27.42,1.85.82s1.13.9,1.63,1.49c.5.59.96,1.21,1.38,1.85.42.64.81,1.28,1.16,1.91.35.63.67,1.19.94,1.68.67,1.17,1.32,2.36,1.92,3.58s1.13,2.48,1.57,3.76Zm-7.95-5.12c-.08-.23-.22-.61-.43-1.12-.21-.52-.45-1.03-.73-1.52-.28-.5-.58-.92-.93-1.26-.34-.34-.69-.46-1.03-.34-.19.07-.33.26-.42.58s-.13.7-.13,1.14c0,.44.03.92.08,1.44.06.52.12,1.01.2,1.48.07.47.15.89.23,1.26.08.37.14.63.17.79,1.12-.49,2.21-1.02,3.26-1.59l-.28-.84Z"/>
            <path class="cls-1" d="m86.28,84.17c.23.31.37.63.42.98s.02.69-.08,1.03c-.1.34-.24.67-.43,1-.19.32-.39.61-.62.85,1.36,1.85,2.63,3.67,3.81,5.45,1.19,1.78,2.35,3.66,3.5,5.64l.15-.11c.26-.2.53-.36.83-.5.29-.13.59-.21.9-.22.31-.02.6.03.87.14.27.11.52.31.74.6.28.37.41.79.39,1.24-.03.45-.16.92-.39,1.4s-.53.97-.9,1.45c-.37.49-.76.94-1.18,1.37s-.82.82-1.21,1.17c-.4.35-.72.63-.98.82-.19.15-.44.32-.73.52s-.6.35-.91.46c-.31.11-.62.15-.92.12-.3-.03-.56-.18-.76-.45-.26-.34-.42-.7-.49-1.07-.07-.37-.06-.75,0-1.13.07-.38.19-.75.38-1.09.18-.34.4-.66.64-.95-.56-.98-1.13-1.94-1.7-2.9s-1.19-1.9-1.84-2.83c-.67-.95-1.33-1.88-1.98-2.8-.65-.92-1.3-1.85-1.96-2.78-.1.1-.2.19-.29.28-.09.08-.18.15-.26.21-.23.17-.49.33-.78.48-.3.15-.6.25-.92.3-.32.05-.62.05-.91-.02-.29-.06-.54-.23-.75-.5-.42-.55-.53-1.18-.34-1.88.19-.71.53-1.4,1.02-2.08s1.04-1.31,1.65-1.88c.61-.58,1.11-1.02,1.52-1.33.23-.17.54-.38.93-.63.4-.25.82-.46,1.27-.62.45-.16.88-.25,1.3-.26.41,0,.75.16,1.01.5Z"/>
            <path class="cls-1" d="m93.38,74.47c.4.31.64.76.72,1.32s.08,1.17-.02,1.8c-.1.63-.25,1.25-.45,1.83-.21.59-.39,1.06-.57,1.41,1.13,1.1,2.28,2.16,3.44,3.19,1.17,1.03,2.36,2.03,3.59,3,.66.52,1.31,1.01,1.98,1.48.66.47,1.32.96,1.95,1.46.29.23.58.5.88.83.3.33.55.68.75,1.05.2.37.3.76.32,1.17.02.4-.11.78-.38,1.13-.33.42-.7.66-1.13.72-.43.07-.86.03-1.3-.09s-.87-.32-1.28-.56c-.41-.25-.77-.49-1.08-.73-.98-.72-1.96-1.45-2.94-2.2-.98-.74-1.96-1.5-2.93-2.26-.82-.64-1.61-1.27-2.39-1.9-.78-.62-1.57-1.25-2.39-1.9-.14.25-.3.5-.46.74-.17.24-.34.49-.53.73-.15.19-.37.43-.65.71-.28.28-.59.52-.92.73-.33.21-.67.34-1.02.4-.35.06-.66-.02-.95-.24-.48-.38-.75-.89-.82-1.55s0-1.38.2-2.17.48-1.61.85-2.47c.38-.85.78-1.67,1.23-2.45s.87-1.47,1.28-2.1c.41-.62.74-1.09.99-1.41.24-.3.5-.62.8-.94.29-.32.62-.59.97-.81.35-.22.72-.33,1.1-.36.38-.02.77.12,1.17.44Z"/>
            <path class="cls-1" d="m99.63,64.97c1.59.57,3.17,1.18,4.73,1.83,1.57.65,3.13,1.32,4.67,2,.28.12.66.28,1.14.48.48.19.99.42,1.54.68.54.26,1.08.54,1.62.84.54.3,1.01.64,1.4,1.01.4.37.69.76.87,1.19.18.42.19.86.03,1.32-.14.4-.36.73-.64.98-.29.25-.61.44-.96.55-.35.11-.73.16-1.12.15-.4-.01-.78-.09-1.17-.23-.63-.23-1.26-.47-1.89-.74s-1.24-.55-1.85-.86l-.73,2.94c.48.24,1.05.51,1.73.83s1.29.69,1.86,1.12c.57.43,1.01.93,1.32,1.5s.34,1.2.09,1.91c-.16.44-.39.77-.69.98-.3.21-.64.35-1.02.41s-.77.06-1.18,0c-.41-.06-.79-.15-1.13-.28-1.15-.41-2.27-.87-3.38-1.38-1.1-.5-2.22-.98-3.35-1.43-1.19-.47-2.39-.92-3.61-1.35-1.22-.43-2.43-.88-3.64-1.36-.39-.16-.86-.35-1.39-.55-.53-.2-1.01-.45-1.43-.74-.42-.29-.74-.65-.96-1.06-.22-.41-.22-.92,0-1.51.3-.82.73-1.37,1.32-1.63.58-.27,1.22-.37,1.93-.31.7.06,1.41.22,2.13.47s1.36.49,1.94.7c.77.27,1.51.56,2.23.87.72.3,1.45.61,2.18.91l.64-3.23c-.93-.36-1.85-.71-2.76-1.06-.91-.35-1.81-.72-2.71-1.1-.43-.18-.89-.36-1.38-.56-.49-.2-.92-.44-1.29-.72-.37-.28-.64-.63-.8-1.05-.16-.42-.13-.94.09-1.57.19-.53.5-.91.93-1.14.43-.22.9-.36,1.41-.4s1.03-.01,1.55.09c.52.1.99.23,1.39.37l.37.13Z"/>
          </g>
        </g>
      </g>
    </g>
  </g>
</svg>