<?xml version="1.0" encoding="UTF-8"?>
<svg id="Layer_2" data-name="Layer 2" xmlns="http://www.w3.org/2000/svg" viewBox="0 0 120 120">
  <defs>
    <style>
      .cls-1 {
        fill: #fff;
      }

      .cls-2 {
        fill: #ccd0d9;
      }

      .cls-3 {
        fill: #242830;
      }

      .cls-4 {
        fill: #4c535f;
      }
    </style>
  </defs>
  <g id="Card">
    <g id="Icon">
      <g id="Pearl">
        <g id="Boba">
          <circle class="cls-3" cx="60" cy="60" r="60"/>
          <path class="cls-4" d="m88,78c10.52,3.51,29-4,20.7,11.47-8.92,16.63-27.78,26.58-47.99,26.58-31.32,0-56.71-25.48-56.71-56.92,0-6.13,1.25-13.37,3.05-17.65,6.95-16.48,7.95,1.52,10.95,4.52,7,7,14.42,2.72,27,6,23,6,37,24,43,26Z"/>
          <path class="cls-2" d="m59.19,16.76c-3.74,26.73,49.88,18.93,29.93,0-6.16-5.85-28.07-13.26-29.93,0Z"/>
          <path class="cls-2" d="m93.11,37.78c-2.46,2.43-5.13,8.03-2.09,11s5.53,7.03,9.37,5.67c7.9-2.81,7.02-10.97,3.59-16.43-3.86-6.13-7.9-3.17-10.86-.24Z"/>
        </g>
      </g>
      <g id="Names_W" data-name="Names W">
        <g id="SWE">
          <g id="NANCY">
            <path class="cls-1" d="m62.82,103.66c-.05.44-.14,1.07-.27,1.89-.13.81-.3,1.7-.52,2.67-.22.97-.48,1.95-.79,2.95-.31,1-.67,1.89-1.09,2.69s-.88,1.43-1.4,1.92c-.52.49-1.11.69-1.75.62-.61-.07-1.14-.3-1.61-.71s-.87-.89-1.22-1.45c-.35-.56-.64-1.15-.88-1.77-.24-.62-.43-1.18-.58-1.69-.31-1.08-.63-2.14-.94-3.18-.32-1.05-.61-2.1-.88-3.18l-.09.85c-.09.87-.19,1.73-.29,2.59-.1.86-.26,1.7-.47,2.54-.08.34-.17.73-.27,1.18-.1.45-.22.89-.37,1.32-.15.43-.34.83-.57,1.19-.23.36-.52.62-.86.77-.19.08-.37.12-.52.13-.15,0-.32.02-.51.04h-.09c-.46-.06-.84-.26-1.13-.61s-.52-.78-.69-1.3c-.17-.52-.29-1.09-.35-1.72-.06-.63-.1-1.25-.11-1.85,0-.6,0-1.16.04-1.67.03-.51.07-.91.1-1.21.05-.46.14-1.14.28-2.04.14-.89.33-1.88.58-2.96.25-1.08.54-2.18.88-3.31.34-1.13.73-2.14,1.17-3.05.45-.9.94-1.62,1.49-2.17.55-.54,1.15-.78,1.79-.71.63.07,1.16.37,1.6.91.44.54.82,1.16,1.13,1.87s.56,1.44.74,2.2.34,1.39.47,1.89c.24.99.47,1.97.69,2.94.22.97.43,1.96.63,2.96.02.04.04.16.08.35.04.19.09.4.15.63.05.25.13.54.21.85.03-.26.04-.45.05-.56,0-.11,0-.21.02-.3s.02-.21.04-.35c.02-.14.04-.36.07-.67.05-.67.11-1.34.17-2,.06-.67.13-1.32.2-1.97.03-.28.08-.68.14-1.18.06-.5.15-1.04.27-1.61s.25-1.14.42-1.72c.16-.57.37-1.09.61-1.54.24-.45.53-.82.85-1.09.33-.27.7-.38,1.12-.34.5.05.92.29,1.24.72.32.42.57.95.75,1.57.18.62.3,1.31.36,2.06s.09,1.49.1,2.2c0,.72-.02,1.38-.06,1.99-.04.61-.09,1.08-.12,1.43Z"/>
            <path class="cls-1" d="m82.66,106.64c.12.39.24.86.35,1.42.11.56.14,1.12.11,1.68-.04.56-.16,1.06-.38,1.5-.22.44-.6.75-1.14.93-.72.23-1.34.14-1.86-.26-.53-.41-.98-.95-1.37-1.62s-.72-1.39-.99-2.13c-.27-.74-.49-1.34-.65-1.77-1.32.68-2.62,1.33-3.92,1.94.1.46.2,1.04.29,1.73.09.7.1,1.39.03,2.09-.07.69-.23,1.33-.51,1.91-.27.58-.71.96-1.31,1.16-.46.15-.88.1-1.25-.16-.37-.25-.7-.59-.98-1.01-.29-.42-.52-.87-.71-1.36-.19-.48-.33-.89-.44-1.22-.36-1.1-.62-2.22-.79-3.35-.17-1.13-.31-2.26-.42-3.4-.07-.6-.12-1.31-.17-2.12s-.06-1.67-.04-2.56c.02-.89.09-1.79.22-2.7s.33-1.74.61-2.52c.28-.77.67-1.45,1.17-2.04.49-.59,1.12-1,1.87-1.24.73-.24,1.42-.28,2.07-.12.65.15,1.26.44,1.84.85.58.41,1.12.92,1.61,1.51.49.6.94,1.22,1.35,1.87.41.65.79,1.29,1.13,1.92.34.64.65,1.2.91,1.69.66,1.18,1.28,2.38,1.87,3.61.59,1.23,1.09,2.49,1.51,3.79Zm-7.87-5.25c-.08-.23-.21-.61-.41-1.13-.2-.52-.43-1.03-.7-1.53-.27-.5-.57-.93-.91-1.28-.34-.35-.68-.47-1.03-.36-.19.06-.33.25-.42.57-.09.32-.14.7-.15,1.14,0,.44.01.92.06,1.44.05.52.11,1.01.17,1.48.07.47.14.89.21,1.26.08.37.13.64.16.8,1.13-.47,2.22-.98,3.28-1.54l-.27-.84Z"/>
            <path class="cls-1" d="m95.59,85.54c.3.33.71.82,1.23,1.46.52.64,1.07,1.36,1.65,2.17.58.81,1.13,1.66,1.67,2.56.54.9.96,1.77,1.28,2.6.32.84.48,1.61.5,2.32.01.71-.22,1.29-.7,1.72-.45.41-.99.65-1.6.73-.62.08-1.25.06-1.9-.05-.65-.11-1.28-.29-1.9-.52s-1.17-.46-1.65-.69c-1.01-.48-2.01-.96-3-1.42-.99-.46-1.98-.95-2.96-1.46l.57.63c.58.65,1.16,1.3,1.73,1.94.57.65,1.1,1.33,1.58,2.04.2.28.44.61.7.99.27.37.51.76.74,1.16.22.4.39.81.51,1.22.12.42.11.8,0,1.15-.07.2-.15.36-.25.47-.1.12-.2.25-.31.4l-.07.06c-.35.31-.75.46-1.2.45-.45-.02-.93-.13-1.43-.35-.5-.22-1-.52-1.52-.89-.51-.37-1-.76-1.45-1.15-.45-.4-.86-.78-1.21-1.14-.35-.36-.63-.66-.84-.88-.31-.35-.76-.87-1.33-1.57-.58-.7-1.18-1.5-1.82-2.4-.64-.9-1.26-1.86-1.88-2.86-.62-1-1.12-1.97-1.49-2.9-.38-.93-.58-1.78-.62-2.56-.04-.77.18-1.38.66-1.81.47-.42,1.05-.62,1.75-.59.7.03,1.41.16,2.15.4s1.45.54,2.13.91c.69.37,1.26.67,1.72.91.9.48,1.78.96,2.66,1.44.87.48,1.75.99,2.63,1.51.04.02.15.07.31.17.17.1.36.2.57.31.22.13.48.26.78.41-.18-.2-.31-.33-.39-.41-.08-.08-.15-.15-.21-.22-.06-.07-.14-.15-.24-.26-.09-.11-.25-.27-.45-.5-.46-.48-.92-.97-1.38-1.46-.46-.49-.9-.98-1.34-1.46-.19-.21-.45-.51-.79-.89-.33-.38-.67-.81-1.02-1.27-.35-.46-.68-.95-1-1.45-.32-.51-.57-1-.74-1.48-.18-.48-.26-.94-.24-1.36.01-.42.18-.78.5-1.06.38-.34.83-.49,1.36-.45.53.04,1.09.2,1.67.48.58.28,1.17.65,1.78,1.11.6.46,1.17.92,1.71,1.39.54.47,1.02.93,1.44,1.37.42.44.75.79.98,1.04Z"/>
            <path class="cls-1" d="m100.38,70.05c.35.17.69.38,1.04.65.34.27.64.57.88.91.24.34.4.71.48,1.11s.02.81-.18,1.23c-.31.64-.65,1.06-1.03,1.26-.38.2-.77.28-1.18.24-.41-.04-.81-.15-1.21-.33-.4-.18-.78-.34-1.13-.49-.36-.15-.67-.23-.95-.24-.28,0-.5.15-.65.48-.18.37-.2.75-.06,1.15.13.4.36.81.69,1.21.33.4.72.8,1.19,1.19.46.39.94.75,1.42,1.09.48.33.95.63,1.4.89.45.26.82.46,1.11.6.38.19.85.39,1.39.62.54.23,1.09.38,1.65.47.56.09,1.07.06,1.55-.07.48-.13.85-.47,1.12-1.02.17-.37.3-.75.38-1.14.08-.39.14-.79.19-1.2.05-.4.11-.81.19-1.21s.21-.78.38-1.15c.2-.42.54-.69,1.01-.8.47-.11.92-.07,1.34.13.59.28,1.04.73,1.37,1.33.33.61.55,1.27.68,2,.13.73.15,1.46.06,2.19-.08.74-.25,1.36-.49,1.87-.63,1.32-1.47,2.29-2.5,2.92-1.04.63-2.16,1-3.38,1.12-1.22.12-2.46.02-3.75-.29-1.28-.31-2.5-.74-3.65-1.3-.77-.37-1.58-.85-2.42-1.43-.84-.59-1.66-1.25-2.44-1.98-.78-.74-1.5-1.54-2.15-2.4-.65-.86-1.15-1.75-1.52-2.67-.37-.92-.57-1.86-.61-2.81-.04-.95.16-1.89.6-2.8.43-.9,1.01-1.54,1.75-1.93.74-.39,1.54-.6,2.4-.64.86-.04,1.74.07,2.62.31.88.25,1.69.54,2.43.89Z"/>
            <path class="cls-1" d="m96.72,54.87c.89.11,1.85.35,2.89.71,1.04.37,2.08.8,3.12,1.3,1.04.5,2.05,1.02,3.03,1.58.98.55,1.83,1.06,2.58,1.52.42.26.95.57,1.59.95.64.38,1.32.79,2.04,1.25.72.46,1.44.94,2.17,1.45.72.51,1.37,1.03,1.93,1.54.56.52,1.01,1.04,1.34,1.55.34.51.47,1,.42,1.46-.08.65-.38,1.07-.88,1.29s-1.05.28-1.64.21c-.56-.07-1.15-.24-1.76-.51-.61-.27-1.21-.59-1.8-.96-.59-.37-1.15-.77-1.69-1.19-.54-.43-1.02-.82-1.45-1.18-.15.39-.38.76-.69,1.11-.31.35-.66.59-1.04.73-.75.23-1.58.47-2.51.7-.93.23-1.87.43-2.82.58-.95.16-1.9.27-2.84.34-.94.07-1.79.05-2.56-.04-.36-.05-.76-.14-1.18-.27-.42-.13-.81-.32-1.16-.56s-.63-.53-.84-.87c-.21-.34-.29-.75-.23-1.21.07-.52.32-.96.76-1.32.44-.35.99-.65,1.63-.89.64-.24,1.35-.42,2.13-.55.77-.13,1.53-.23,2.28-.3s1.43-.12,2.04-.14c.62-.02,1.1-.06,1.46-.09-.29-.12-.73-.31-1.33-.58-.59-.27-1.24-.58-1.95-.95-.71-.36-1.44-.77-2.18-1.22-.74-.45-1.41-.91-2.01-1.39-.6-.47-1.07-.96-1.43-1.45-.36-.49-.51-.97-.45-1.44.04-.3.18-.54.43-.71.25-.17.53-.3.84-.37s.64-.11.97-.11.6.01.82.04Z"/>
          </g>
        </g>
      </g>
    </g>
  </g>
</svg>