<?xml version="1.0" encoding="UTF-8"?>
<svg id="Layer_2" data-name="Layer 2" xmlns="http://www.w3.org/2000/svg" viewBox="0 0 120 120">
  <defs>
    <style>
      .cls-1 {
        fill: #fff;
      }

      .cls-2 {
        fill: #ccd0d9;
      }

      .cls-3 {
        fill: #242830;
      }

      .cls-4 {
        fill: #4c535f;
      }
    </style>
  </defs>
  <g id="Card">
    <g id="Icon">
      <g id="Pearl">
        <g id="Boba">
          <circle class="cls-3" cx="60" cy="60" r="60"/>
          <path class="cls-4" d="m88,78c10.52,3.51,29-4,20.7,11.47-8.92,16.63-27.78,26.58-47.99,26.58-31.32,0-56.71-25.48-56.71-56.92,0-6.13,1.25-13.37,3.05-17.65,6.95-16.48,7.95,1.52,10.95,4.52,7,7,14.42,2.72,27,6,23,6,37,24,43,26Z"/>
          <path class="cls-2" d="m59.19,16.76c-3.74,26.73,49.88,18.93,29.93,0-6.16-5.85-28.07-13.26-29.93,0Z"/>
          <path class="cls-2" d="m93.11,37.78c-2.46,2.43-5.13,8.03-2.09,11s5.53,7.03,9.37,5.67c7.9-2.81,7.02-10.97,3.59-16.43-3.86-6.13-7.9-3.17-10.86-.24Z"/>
        </g>
      </g>
      <g id="Names_W" data-name="Names W">
        <g id="SWE">
          <g id="ANTHONY">
            <path class="cls-1" d="m41.22,109.09c-.19.36-.44.78-.77,1.25s-.7.89-1.11,1.26c-.42.37-.86.63-1.33.79-.47.16-.96.1-1.46-.16-.67-.35-1.04-.85-1.12-1.51-.08-.66-.02-1.37.19-2.12.21-.75.48-1.49.81-2.2s.6-1.29.8-1.71c-1.41-.46-2.79-.93-4.14-1.42-.25.4-.59.87-1.03,1.42s-.92,1.05-1.46,1.49c-.54.44-1.11.77-1.71.99-.6.21-1.18.18-1.74-.11-.43-.22-.69-.56-.77-1-.08-.44-.07-.91.03-1.41.1-.5.25-.98.46-1.46s.4-.86.55-1.17c.53-1.03,1.14-2,1.82-2.92.68-.92,1.38-1.82,2.11-2.7.38-.47.84-1.01,1.39-1.62.54-.61,1.14-1.22,1.79-1.84.65-.61,1.34-1.19,2.07-1.74s1.47-1,2.22-1.34c.75-.34,1.51-.55,2.27-.61.76-.06,1.5.09,2.2.45.69.35,1.2.82,1.55,1.38.35.57.58,1.2.7,1.9.12.7.14,1.44.06,2.21-.08.77-.2,1.53-.37,2.28-.17.75-.36,1.47-.57,2.16-.21.69-.4,1.31-.56,1.84-.37,1.29-.79,2.58-1.25,3.87-.46,1.28-1,2.53-1.63,3.74Zm-1.82-9.28c.11-.22.28-.58.51-1.09.23-.51.43-1.04.59-1.58s.26-1.06.27-1.54c.01-.49-.15-.81-.47-.98-.18-.09-.42-.06-.7.1-.29.16-.59.39-.91.7-.32.3-.64.66-.98,1.06-.33.4-.64.79-.93,1.17-.29.38-.54.72-.74,1.04-.21.32-.36.54-.45.68,1.13.47,2.26.88,3.4,1.25l.41-.79Z"/>
            <path class="cls-1" d="m65.29,103.38c-.02.45-.08,1.08-.16,1.9s-.21,1.72-.37,2.7c-.16.98-.38,1.97-.63,2.99s-.57,1.93-.94,2.74c-.37.81-.8,1.48-1.3,1.99-.5.51-1.07.75-1.72.72-.61-.03-1.16-.24-1.64-.62-.49-.38-.92-.84-1.3-1.38-.38-.54-.7-1.11-.98-1.72-.27-.6-.5-1.16-.67-1.65-.37-1.06-.74-2.1-1.11-3.13-.37-1.03-.72-2.07-1.05-3.12l-.05.85c-.05.87-.1,1.74-.16,2.6-.06.86-.17,1.72-.34,2.56-.06.34-.13.74-.2,1.19-.08.45-.18.9-.3,1.34-.13.44-.29.85-.51,1.22-.21.38-.49.65-.82.81-.19.09-.36.14-.51.16-.15.01-.32.03-.51.06h-.09c-.47-.03-.85-.21-1.16-.54s-.56-.75-.76-1.26c-.2-.51-.34-1.08-.44-1.7s-.17-1.24-.21-1.84c-.04-.6-.06-1.16-.05-1.67,0-.51.02-.91.04-1.22.03-.47.08-1.15.17-2.05.09-.9.23-1.9.42-2.98.19-1.09.42-2.21.7-3.35.28-1.15.61-2.18,1.01-3.1s.85-1.67,1.37-2.25c.52-.57,1.1-.84,1.75-.81.63.03,1.18.31,1.65.82.47.51.88,1.12,1.23,1.81.35.69.64,1.41.86,2.15s.42,1.37.57,1.86c.29.97.58,1.94.85,2.9.27.96.54,1.94.79,2.93.02.04.05.16.1.34s.11.39.18.62c.07.25.15.53.26.84.01-.26.02-.45.01-.56s0-.21,0-.31.01-.21.02-.35c0-.14.02-.37.04-.67.02-.67.04-1.34.06-2.01.03-.67.06-1.33.09-1.98.02-.28.04-.68.08-1.19.04-.51.1-1.05.18-1.62.08-.58.19-1.15.32-1.74.13-.58.31-1.11.53-1.57.22-.47.48-.84.79-1.13s.68-.42,1.1-.4c.51.03.93.24,1.28.65.34.41.62.91.83,1.52.21.61.37,1.29.47,2.04.1.75.17,1.48.22,2.19.04.71.06,1.38.04,1.99s-.03,1.09-.05,1.43Z"/>
            <path class="cls-1" d="m77.96,91.11c.15.48.1.99-.16,1.5-.25.52-.6,1.01-1.04,1.47-.44.47-.91.88-1.41,1.25-.5.37-.93.65-1.27.84.31,1.54.65,3.07,1.02,4.58.37,1.51.79,3.01,1.26,4.51.25.8.51,1.58.79,2.34.28.76.54,1.53.78,2.31.11.35.19.74.25,1.18.06.44.07.87.02,1.29-.05.42-.18.8-.39,1.14-.21.34-.53.58-.96.71-.5.16-.95.14-1.34-.05-.39-.19-.73-.46-1.02-.82s-.54-.75-.74-1.19c-.2-.44-.36-.84-.47-1.21-.4-1.15-.79-2.31-1.18-3.48s-.76-2.34-1.13-3.53c-.31-.99-.6-1.96-.89-2.92-.29-.95-.58-1.93-.89-2.92-.26.12-.53.24-.8.34-.28.11-.56.21-.85.3-.23.07-.55.14-.94.21-.39.07-.78.09-1.17.08-.39-.02-.74-.1-1.06-.24-.32-.14-.54-.39-.64-.74-.18-.58-.11-1.16.21-1.74s.78-1.14,1.39-1.68c.61-.54,1.31-1.06,2.1-1.55.79-.49,1.59-.93,2.4-1.32.8-.39,1.55-.72,2.24-1,.69-.28,1.23-.48,1.62-.6.37-.11.77-.22,1.19-.32.43-.1.84-.14,1.26-.12.41.02.78.13,1.11.33.33.2.57.54.72,1.02Z"/>
            <path class="cls-1" d="m88.48,86.82c.98,1.37,1.94,2.77,2.86,4.19.92,1.43,1.83,2.86,2.71,4.3.16.26.38.61.67,1.04.29.43.58.91.88,1.43.3.52.59,1.06.86,1.62.27.55.47,1.1.58,1.62s.13,1.02.04,1.47c-.09.45-.33.82-.73,1.1-.35.25-.71.4-1.09.44-.38.05-.75.02-1.1-.09-.35-.11-.69-.28-1.01-.51-.32-.23-.6-.52-.83-.85-.39-.54-.77-1.1-1.13-1.68s-.71-1.16-1.03-1.75l-2.27,2.01c.26.46.58,1.02.95,1.66.38.64.67,1.3.9,1.98.22.68.3,1.34.24,1.98-.06.64-.4,1.19-1.01,1.62-.38.27-.75.41-1.13.42s-.73-.08-1.07-.24c-.34-.17-.67-.39-.97-.67-.3-.28-.56-.57-.78-.87-.71-.99-1.38-2.01-2-3.05-.62-1.04-1.27-2.07-1.95-3.08-.71-1.06-1.45-2.12-2.21-3.16s-1.5-2.1-2.23-3.18c-.23-.36-.51-.77-.83-1.24-.32-.47-.58-.94-.76-1.42-.18-.48-.25-.95-.19-1.42.05-.46.34-.88.85-1.25.71-.51,1.38-.71,2.01-.6.63.11,1.22.39,1.76.84.55.45,1.04.98,1.48,1.6s.84,1.18,1.2,1.67c.47.66.92,1.32,1.35,1.98.42.66.85,1.32,1.28,1.99l2.36-2.3c-.56-.82-1.12-1.63-1.67-2.44-.55-.8-1.09-1.62-1.61-2.45-.26-.39-.53-.81-.82-1.25-.29-.44-.51-.88-.66-1.33-.15-.45-.17-.89-.07-1.32.1-.43.42-.85.97-1.24.46-.33.93-.47,1.41-.41.48.06.94.21,1.39.47.45.26.86.57,1.23.96.37.38.69.75.93,1.09l.23.32Z"/>
            <path class="cls-1" d="m108.38,90.36c-.67,1.04-1.52,1.77-2.54,2.2-1.02.43-2.13.61-3.33.54-1.2-.07-2.47-.35-3.79-.86-1.32-.5-2.62-1.17-3.9-2-1.19-.77-2.32-1.69-3.38-2.75-1.06-1.06-1.9-2.18-2.54-3.37-.63-1.19-1-2.4-1.09-3.65-.09-1.24.24-2.44.99-3.6.73-1.12,1.64-1.87,2.74-2.24,1.1-.37,2.27-.46,3.53-.29,1.26.17,2.54.55,3.86,1.13,1.32.58,2.58,1.25,3.77,2.03,1.33.86,2.5,1.81,3.51,2.84,1.01,1.03,1.8,2.11,2.35,3.23.56,1.12.83,2.26.84,3.41,0,1.15-.35,2.27-1.06,3.36Zm-14.07-9.56c-.21.32-.26.68-.16,1.08.11.4.32.81.64,1.23s.71.84,1.19,1.24.98.78,1.51,1.12c.6.39,1.22.74,1.87,1.05s1.26.54,1.83.7c.58.16,1.08.21,1.52.17.44-.04.76-.23.97-.55.24-.37.25-.79.02-1.26-.23-.46-.57-.93-1.01-1.4-.45-.47-.94-.91-1.47-1.32-.54-.41-.99-.73-1.37-.98-.46-.3-.97-.58-1.52-.86-.55-.27-1.09-.48-1.61-.63-.52-.15-1-.2-1.44-.17-.43.03-.76.22-.98.56Z"/>
            <path class="cls-1" d="m104.75,56.7c.44.07,1.06.19,1.87.37.81.17,1.69.39,2.64.66.95.27,1.92.59,2.9.95.98.37,1.85.78,2.62,1.23.77.46,1.38.96,1.84,1.5.46.55.63,1.14.53,1.78-.1.6-.36,1.12-.8,1.57-.43.44-.94.82-1.51,1.14-.58.32-1.18.58-1.81.78-.63.21-1.2.37-1.72.49-1.09.25-2.17.51-3.23.77s-2.13.5-3.22.71l.84.14c.86.14,1.72.29,2.57.44.85.15,1.69.35,2.51.61.33.1.72.21,1.17.33.44.12.88.27,1.3.44.42.17.81.39,1.16.64.35.25.59.55.72.9.07.2.1.37.1.53,0,.15,0,.32,0,.51v.09c-.09.46-.31.83-.67,1.1-.36.27-.81.48-1.33.62s-1.11.23-1.74.26c-.63.03-1.25.03-1.85,0-.6-.03-1.16-.07-1.66-.13-.5-.06-.91-.12-1.21-.17-.46-.08-1.13-.21-2.02-.39-.89-.19-1.86-.43-2.92-.74-1.06-.31-2.15-.66-3.25-1.06s-2.1-.84-2.98-1.34c-.88-.49-1.57-1.03-2.08-1.61-.51-.58-.72-1.19-.61-1.83.1-.62.43-1.14,1-1.55.56-.41,1.2-.75,1.93-1.03.72-.27,1.47-.48,2.23-.62s1.4-.26,1.91-.37c1-.19,1.99-.36,2.97-.53.99-.17,1.98-.32,3-.47.04-.01.16-.04.35-.07.19-.03.4-.07.64-.11.25-.04.54-.1.86-.17-.26-.04-.45-.07-.56-.08-.11,0-.21-.02-.3-.03-.09-.02-.21-.03-.35-.06s-.36-.06-.66-.11c-.67-.09-1.33-.18-1.99-.28-.66-.1-1.32-.2-1.96-.3-.28-.05-.67-.11-1.17-.21-.5-.09-1.03-.21-1.59-.35-.56-.14-1.13-.31-1.69-.51-.57-.19-1.07-.43-1.51-.69-.44-.27-.79-.57-1.04-.91s-.35-.72-.28-1.14c.08-.5.34-.9.78-1.2.44-.3.98-.52,1.61-.66.63-.14,1.32-.23,2.08-.25s1.49-.01,2.2.02,1.38.09,1.98.17c.6.08,1.08.15,1.42.2Z"/>
            <path class="cls-1" d="m93.53,42.44c.88-.19,1.86-.28,2.96-.28,1.1,0,2.23.06,3.38.19,1.15.13,2.28.29,3.38.49s2.08.39,2.93.58c.48.1,1.08.23,1.81.37.73.14,1.51.31,2.34.51.83.19,1.67.41,2.53.65.85.24,1.63.52,2.33.82.7.31,1.29.65,1.78,1.02.49.37.78.79.88,1.24.14.64,0,1.14-.41,1.51-.41.37-.9.62-1.48.74-.56.12-1.17.15-1.83.1-.67-.05-1.34-.16-2.02-.31-.68-.15-1.34-.34-1.99-.57-.65-.22-1.24-.43-1.76-.63-.01.42-.11.84-.29,1.28-.18.43-.42.78-.74,1.03-.63.47-1.34.96-2.14,1.49-.8.53-1.62,1.02-2.47,1.48-.85.46-1.7.88-2.57,1.26-.86.37-1.67.64-2.43.81-.36.08-.76.12-1.2.14-.44.01-.87-.04-1.28-.14-.41-.11-.77-.29-1.08-.54-.31-.25-.52-.61-.62-1.07-.11-.52-.02-1.01.29-1.5.3-.48.72-.94,1.25-1.38.53-.44,1.14-.84,1.83-1.22.69-.38,1.37-.72,2.05-1.04.68-.31,1.31-.58,1.88-.81s1.02-.42,1.34-.57c-.32-.02-.8-.05-1.44-.11-.65-.06-1.37-.14-2.16-.25-.79-.11-1.61-.25-2.46-.43-.85-.18-1.63-.4-2.35-.65-.72-.25-1.33-.55-1.83-.9-.5-.35-.8-.75-.9-1.21-.06-.3,0-.57.17-.82.18-.25.4-.46.67-.63.27-.17.57-.31.88-.42.31-.11.57-.19.79-.23Z"/>
          </g>
        </g>
      </g>
    </g>
  </g>
</svg>