<?xml version="1.0" encoding="UTF-8"?>
<svg id="Layer_2" data-name="Layer 2" xmlns="http://www.w3.org/2000/svg" viewBox="0 0 120 120">
  <defs>
    <style>
      .cls-1 {
        fill: #fff;
      }

      .cls-2 {
        fill: #ccd0d9;
      }

      .cls-3 {
        fill: #242830;
      }

      .cls-4 {
        fill: #4c535f;
      }
    </style>
  </defs>
  <g id="Card">
    <g id="Icon">
      <g id="Pearl">
        <g id="Boba">
          <circle class="cls-3" cx="60" cy="60" r="60"/>
          <path class="cls-4" d="m88,78c10.52,3.51,29-4,20.7,11.47-8.92,16.63-27.78,26.58-47.99,26.58-31.32,0-56.71-25.48-56.71-56.92,0-6.13,1.25-13.37,3.05-17.65,6.95-16.48,7.95,1.52,10.95,4.52,7,7,14.42,2.72,27,6,23,6,37,24,43,26Z"/>
          <path class="cls-2" d="m59.19,16.76c-3.74,26.73,49.88,18.93,29.93,0-6.16-5.85-28.07-13.26-29.93,0Z"/>
          <path class="cls-2" d="m93.11,37.78c-2.46,2.43-5.13,8.03-2.09,11s5.53,7.03,9.37,5.67c7.9-2.81,7.02-10.97,3.59-16.43-3.86-6.13-7.9-3.17-10.86-.24Z"/>
        </g>
      </g>
      <g id="Names_W" data-name="Names W">
        <g id="PM">
          <g id="KRYSTAL">
            <path class="cls-1" d="m48.41,114.3c-.18.54-.46.93-.85,1.18-.38.25-.85.27-1.41.08-.44-.15-.81-.42-1.09-.82-.28-.4-.52-.85-.7-1.35-.18-.5-.32-1.01-.41-1.54-.09-.52-.16-.98-.2-1.35-.13-.95-.26-1.89-.38-2.83-.12-.94-.23-1.89-.34-2.85l-2.09.48c-.17.56-.39,1.11-.65,1.65-.27.53-.51,1.07-.74,1.62-.17.37-.37.77-.61,1.19-.24.42-.52.8-.85,1.13-.33.33-.7.57-1.12.73-.42.16-.87.16-1.35,0-.44-.15-.78-.36-1-.65-.23-.28-.38-.6-.47-.95-.09-.35-.1-.72-.06-1.11s.13-.78.27-1.17l.08-.23c.38-1.14.83-2.25,1.35-3.36.51-1.1.98-2.23,1.41-3.37.55-1.51,1.12-3.01,1.69-4.51.57-1.5,1.16-3,1.77-4.48.14-.34.31-.66.52-.95.21-.29.45-.54.73-.73s.59-.32.92-.38c.33-.06.69-.02,1.07.11.6.2.97.57,1.13,1.09.15.52.19,1.1.1,1.74s-.24,1.27-.47,1.9-.41,1.16-.55,1.58c-.41,1.21-.85,2.42-1.32,3.61.71-.27,1.44-.62,2.17-1.04.73-.42,1.4-.87,2.01-1.34.37-.28.83-.69,1.38-1.22.54-.53,1.11-1.04,1.7-1.52.59-.48,1.19-.86,1.81-1.16.62-.3,1.18-.36,1.7-.18.56.19.91.49,1.06.89.15.41.14.87-.04,1.39-.26.77-.65,1.52-1.16,2.25-.51.73-1.1,1.41-1.77,2.05s-1.38,1.23-2.12,1.76c-.75.53-1.47.97-2.17,1.31.23,1.09.43,2.17.61,3.25.17,1.08.34,2.16.51,3.25.07.37.12.76.16,1.18.04.42.06.85.07,1.28,0,.43-.02.85-.06,1.27-.04.41-.12.79-.24,1.14Z"/>
            <path class="cls-1" d="m68.5,99.68c.06,1.4-.22,2.67-.82,3.81s-1.43,2.16-2.47,3.06c.34.47.7,1.03,1.07,1.67.37.64.71,1.31,1.01,2.02.3.71.55,1.42.75,2.14s.31,1.38.34,1.98c.03.65-.11,1.24-.4,1.77s-.82.81-1.57.84c-.63.02-1.18-.26-1.67-.85s-.92-1.3-1.3-2.13c-.39-.83-.75-1.67-1.08-2.53-.33-.86-.64-1.55-.92-2.07-.36.14-.71.29-1.05.45s-.69.33-1.05.48c0,.45-.01,1.06-.03,1.85-.02.78-.1,1.56-.24,2.34-.14.78-.37,1.46-.7,2.04-.32.58-.79.89-1.4.91-.67.03-1.2-.23-1.58-.76-.39-.53-.67-1.17-.85-1.92-.18-.74-.3-1.51-.35-2.29-.05-.78-.09-1.39-.1-1.84-.04-.95-.05-1.89-.05-2.82,0-.92-.01-1.86-.05-2.82-.03-.87-.08-1.75-.15-2.62-.06-.87-.12-1.75-.15-2.65,0-.2-.02-.46-.03-.78-.01-.31-.01-.64,0-.98.02-.34.04-.66.07-.96s.09-.55.18-.74c.19-.43.63-.86,1.34-1.27.7-.41,1.48-.79,2.33-1.11.85-.33,1.68-.6,2.5-.8.82-.2,1.42-.32,1.83-.33,1.04-.04,1.96.12,2.76.47.81.35,1.49.85,2.04,1.49.55.64.98,1.38,1.28,2.24.3.85.47,1.76.5,2.71Zm-5.61.65c-.02-.53-.16-.92-.41-1.19-.25-.26-.66-.39-1.2-.36-.41.02-.81.1-1.22.26-.41.16-.78.34-1.12.53.14,1.6.24,3.19.28,4.78.42-.16.85-.36,1.29-.6.44-.24.84-.53,1.2-.87.36-.34.66-.72.88-1.13.23-.42.33-.89.31-1.42Z"/>
            <path class="cls-1" d="m79.9,89.63c.33.83.58,1.79.76,2.88.18,1.09.3,2.21.36,3.36s.08,2.29.07,3.41c-.02,1.12-.05,2.12-.1,2.99-.03.49-.05,1.11-.07,1.85-.02.74-.06,1.54-.12,2.39-.06.85-.14,1.72-.24,2.6-.1.88-.24,1.69-.43,2.43s-.43,1.38-.72,1.92c-.29.54-.65.9-1.09,1.07-.61.24-1.12.19-1.55-.16-.43-.34-.75-.79-.97-1.34-.21-.53-.34-1.13-.4-1.79-.06-.67-.06-1.35-.02-2.04.04-.69.12-1.38.24-2.06.11-.68.23-1.29.34-1.84-.42.05-.85.03-1.31-.07s-.84-.29-1.14-.57c-.56-.54-1.17-1.17-1.82-1.87s-1.27-1.44-1.87-2.2c-.59-.76-1.15-1.54-1.66-2.33-.51-.79-.91-1.55-1.19-2.27-.13-.34-.24-.73-.33-1.16-.08-.44-.11-.86-.07-1.28.04-.42.16-.81.36-1.16.2-.35.52-.61.95-.78.49-.19,1-.18,1.52.04.52.22,1.04.56,1.56,1.01.52.45,1.02.99,1.5,1.6.48.62.93,1.24,1.35,1.86.42.62.79,1.2,1.11,1.73s.58.94.78,1.23c-.04-.31-.08-.79-.13-1.44s-.08-1.37-.1-2.17-.01-1.63.03-2.5c.04-.87.12-1.68.25-2.43.13-.75.33-1.4.59-1.95.26-.55.61-.91,1.05-1.08.28-.11.56-.1.83.03.27.13.51.32.73.56.21.24.4.51.56.8.16.29.28.54.36.74Z"/>
            <path class="cls-1" d="m85.53,83.82c.29.37.42.78.39,1.24-.02.45-.13.89-.31,1.32-.15.4-.31.82-.46,1.25-.15.44-.26.88-.32,1.33-.07.45-.06.89.01,1.32s.26.84.56,1.22c.26.34.58.58.95.73.37.15.78.27,1.21.35.44.09.91.16,1.4.23.5.07,1,.18,1.5.35.5.17,1,.41,1.49.72s.97.76,1.41,1.34c.31.4.58.92.8,1.56.22.64.38,1.33.49,2.06.11.74.15,1.5.13,2.29-.02.79-.11,1.54-.26,2.26-.15.72-.38,1.38-.68,1.99-.3.6-.68,1.08-1.13,1.43-.5.38-1.05.59-1.64.61-.6.02-1.11-.24-1.53-.79-.29-.37-.46-.78-.52-1.23-.06-.45-.08-.92-.04-1.41.03-.49.1-.99.21-1.5.1-.52.18-1.01.23-1.48.05-.47.04-.92,0-1.36-.05-.43-.21-.82-.47-1.16-.36-.47-.89-.82-1.6-1.06-.71-.24-1.46-.46-2.27-.68-.8-.21-1.58-.47-2.33-.76-.75-.29-1.34-.72-1.78-1.29-.53-.69-.91-1.56-1.13-2.61-.22-1.05-.28-2.12-.19-3.2.09-1.08.34-2.11.74-3.09.4-.98.96-1.74,1.67-2.28.56-.43,1.18-.64,1.84-.61.66.03,1.22.33,1.66.91Z"/>
            <path class="cls-1" d="m93.49,74.25c.4.31.64.75.73,1.32.09.57.08,1.17-.01,1.8-.09.63-.24,1.25-.44,1.84-.2.59-.39,1.06-.56,1.42,1.14,1.09,2.29,2.14,3.46,3.17,1.17,1.02,2.38,2.02,3.61,2.98.66.51,1.32,1,1.99,1.47.67.47,1.32.95,1.96,1.45.29.22.58.5.89.82.3.32.55.67.75,1.05.2.37.31.76.33,1.16.02.4-.1.78-.38,1.13-.32.42-.7.66-1.12.73-.43.07-.86.04-1.3-.09-.44-.12-.87-.31-1.29-.55-.41-.24-.77-.48-1.08-.72-.99-.71-1.97-1.44-2.96-2.18-.98-.74-1.96-1.49-2.94-2.25-.82-.64-1.62-1.26-2.4-1.88-.78-.62-1.58-1.25-2.4-1.88-.14.25-.3.5-.46.74-.16.25-.34.49-.53.73-.15.19-.37.43-.65.71s-.59.53-.92.73c-.33.21-.67.34-1.01.41-.35.07-.66-.01-.95-.24-.48-.37-.76-.89-.83-1.55s0-1.38.18-2.17c.19-.79.47-1.62.84-2.47.37-.86.77-1.68,1.21-2.45.44-.78.86-1.48,1.27-2.1.41-.62.73-1.09.98-1.42.24-.3.5-.62.79-.95.29-.33.61-.6.96-.82.35-.22.71-.34,1.09-.37.38-.03.77.12,1.17.43Z"/>
            <path class="cls-1" d="m112.01,68.54c.38.13.83.33,1.34.58.51.26.98.56,1.4.93.42.36.74.77.96,1.21.22.44.24.93.05,1.47-.25.71-.69,1.15-1.34,1.32-.64.17-1.35.21-2.12.11-.77-.1-1.54-.26-2.3-.5-.76-.23-1.36-.42-1.81-.55-.25,1.46-.53,2.89-.83,4.29.43.19.95.47,1.55.82.61.35,1.17.77,1.68,1.24.51.47.92.99,1.21,1.56.3.57.34,1.15.13,1.74-.16.46-.46.76-.88.9s-.89.2-1.4.17c-.51-.03-1.01-.11-1.51-.25-.5-.14-.91-.27-1.24-.39-1.09-.38-2.14-.85-3.14-1.39s-1.99-1.12-2.97-1.72c-.52-.31-1.11-.69-1.79-1.15-.68-.45-1.37-.96-2.07-1.52-.7-.56-1.37-1.16-2.02-1.8-.65-.65-1.19-1.32-1.64-2.01-.45-.69-.75-1.42-.92-2.16-.17-.75-.12-1.5.14-2.24.26-.73.64-1.3,1.15-1.73s1.11-.74,1.79-.96,1.4-.34,2.18-.37c.77-.03,1.54-.01,2.31.05.76.06,1.5.15,2.22.26.71.11,1.35.21,1.9.29,1.33.19,2.67.42,4,.69,1.34.27,2.65.64,3.93,1.09Zm-8.93,3.1c-.23-.08-.61-.2-1.15-.35-.54-.16-1.09-.28-1.65-.37-.56-.09-1.08-.1-1.57-.05-.48.06-.78.26-.91.6-.07.19,0,.42.2.68.2.26.47.53.82.8.35.27.74.54,1.18.82.44.27.87.53,1.29.76.41.23.79.43,1.13.59.34.16.58.28.73.35.31-1.18.56-2.36.76-3.54l-.83-.29Z"/>
            <path class="cls-1" d="m112.5,48.36c.51-.02.99.18,1.45.58.46.4.88.93,1.27,1.57.39.65.73,1.37,1.03,2.18s.56,1.6.78,2.38.39,1.53.52,2.22.2,1.25.21,1.65c.01.39,0,.8-.06,1.24-.06.44-.2.8-.44,1.1-.12.17-.39.32-.81.45-.42.14-.93.27-1.51.4-.58.13-1.22.25-1.89.35-.68.1-1.34.19-1.99.27-.65.07-1.25.13-1.79.18-.55.05-.97.08-1.28.09-.51.02-1.12.02-1.84.02-.72,0-1.5-.03-2.32-.06-.83-.03-1.67-.09-2.52-.16-.86-.07-1.67-.16-2.43-.27-.77-.11-1.46-.25-2.07-.42-.62-.17-1.1-.36-1.45-.58-.56-.37-.85-.84-.87-1.43-.01-.41.11-.76.38-1.05.26-.29.61-.53,1.04-.72.43-.19.91-.34,1.45-.45.54-.11,1.07-.19,1.59-.25.53-.06,1.01-.1,1.46-.11.45-.02.8-.03,1.07-.04,1.58-.05,3.15-.07,4.71-.05,1.56.02,3.12,0,4.71-.05l1.19-.04c-.32-.9-.62-1.89-.91-2.96-.29-1.07-.45-2.09-.49-3.06-.01-.35,0-.7.03-1.05.03-.36.1-.67.23-.95.12-.28.31-.51.56-.69.25-.18.59-.28,1.01-.29Z"/>
          </g>
        </g>
      </g>
    </g>
  </g>
</svg>