<?xml version="1.0" encoding="UTF-8"?>
<svg id="Layer_2" data-name="Layer 2" xmlns="http://www.w3.org/2000/svg" viewBox="0 0 120 120">
  <defs>
    <style>
      .cls-1 {
        fill: #fff;
      }

      .cls-2 {
        fill: #ccd0d9;
      }

      .cls-3 {
        fill: #242830;
      }

      .cls-4 {
        fill: #4c535f;
      }
    </style>
  </defs>
  <g id="Card">
    <g id="Icon">
      <g id="Pearl">
        <g id="Boba">
          <circle class="cls-3" cx="60" cy="60" r="60"/>
          <path class="cls-4" d="m88,78c10.52,3.51,29-4,20.7,11.47-8.92,16.63-27.78,26.58-47.99,26.58-31.32,0-56.71-25.48-56.71-56.92,0-6.13,1.25-13.37,3.05-17.65,6.95-16.48,7.95,1.52,10.95,4.52,7,7,14.42,2.72,27,6,23,6,37,24,43,26Z"/>
          <path class="cls-2" d="m59.19,16.76c-3.74,26.73,49.88,18.93,29.93,0-6.16-5.85-28.07-13.26-29.93,0Z"/>
          <path class="cls-2" d="m93.11,37.78c-2.46,2.43-5.13,8.03-2.09,11s5.53,7.03,9.37,5.67c7.9-2.81,7.02-10.97,3.59-16.43-3.86-6.13-7.9-3.17-10.86-.24Z"/>
        </g>
      </g>
      <g id="Names_W" data-name="Names W">
        <g id="UXR">
          <g id="PRINCESS">
            <path class="cls-1" d="m46.63,98.58c-.5.97-1.21,1.82-2.12,2.54-.91.72-1.91,1.27-3,1.65-1.09.38-2.21.58-3.36.59s-2.22-.2-3.2-.65c-.19.32-.41.72-.68,1.21-.27.49-.57.99-.9,1.51-.33.51-.69,1.01-1.07,1.5-.38.49-.78.9-1.19,1.24s-.84.56-1.28.68c-.44.12-.87.06-1.31-.16-.5-.26-.82-.64-.94-1.12-.12-.49-.14-1.01-.05-1.55s.24-1.09.45-1.64c.21-.54.4-1,.57-1.37.23-.54.48-1.07.73-1.58.25-.51.51-1.03.79-1.55.12-.23.35-.67.68-1.31.33-.64.71-1.37,1.15-2.19.43-.82.89-1.67,1.37-2.55.48-.88.94-1.7,1.37-2.45s.81-1.38,1.14-1.9c.33-.52.55-.8.67-.86.03,0,.1-.02.23-.04s.25-.03.4-.04.27-.01.39-.02.2-.01.25-.01c1.07-.04,2.19.03,3.36.2s2.24.51,3.21,1.01c.83.43,1.5.99,2,1.67.5.68.85,1.42,1.04,2.22s.23,1.63.1,2.49-.39,1.68-.79,2.46Zm-5-1.8c.19-.36.26-.72.23-1.08s-.25-.64-.64-.85c-.34-.18-.72-.29-1.13-.33-.41-.04-.8-.07-1.16-.07-.27.66-.54,1.3-.8,1.92s-.58,1.23-.94,1.85c.36,0,.77,0,1.21-.01.44-.01.87-.06,1.28-.15.41-.08.79-.23,1.14-.42.35-.2.63-.48.82-.86Z"/>
            <path class="cls-1" d="m61.41,100.67c-.18,1.39-.66,2.6-1.44,3.63-.79,1.03-1.76,1.9-2.94,2.61.26.52.52,1.13.78,1.82.26.69.48,1.41.66,2.16.18.75.31,1.49.39,2.23.08.74.08,1.41,0,2.01-.08.65-.31,1.2-.69,1.68-.38.47-.94.66-1.68.57-.62-.08-1.13-.45-1.5-1.11-.38-.66-.69-1.43-.94-2.31-.25-.88-.46-1.77-.64-2.68-.18-.9-.37-1.63-.57-2.19-.38.08-.75.17-1.11.27-.36.11-.73.21-1.11.3-.08.44-.19,1.05-.34,1.82-.15.77-.36,1.53-.62,2.27-.27.74-.61,1.38-1.02,1.9-.41.52-.92.74-1.53.67-.67-.08-1.14-.42-1.44-1.01s-.47-1.27-.53-2.03-.05-1.54.03-2.32c.08-.78.15-1.39.2-1.83.12-.95.26-1.88.41-2.79s.29-1.84.41-2.79c.11-.87.2-1.74.28-2.61.08-.87.17-1.75.29-2.64.03-.2.06-.46.1-.77.04-.31.1-.63.17-.96.07-.33.15-.64.23-.94.08-.3.18-.53.3-.7.25-.4.76-.74,1.53-1.04.76-.29,1.59-.53,2.49-.71s1.76-.31,2.6-.38c.84-.07,1.46-.08,1.86-.03,1.03.13,1.91.44,2.65.92.74.48,1.33,1.08,1.77,1.81.44.72.74,1.53.89,2.42.15.89.17,1.81.05,2.76Zm-5.65-.28c.07-.52,0-.94-.21-1.24-.21-.3-.58-.49-1.13-.56-.4-.05-.82-.03-1.25.06-.43.09-.83.2-1.2.34-.12,1.6-.29,3.19-.51,4.76.44-.09.9-.21,1.37-.38.47-.17.91-.39,1.33-.66.41-.27.77-.6,1.06-.97.29-.37.47-.82.54-1.34Z"/>
            <path class="cls-1" d="m71.5,93.72c.07.38.04.73-.07,1.07-.12.33-.3.63-.54.89-.24.26-.52.49-.84.69-.32.2-.63.36-.94.48.36,2.27.67,4.46.91,6.59.25,2.12.43,4.33.55,6.62l.18-.03c.32-.06.64-.08.96-.06s.62.08.9.21c.28.13.52.3.71.52.19.22.32.52.39.88.08.46,0,.89-.22,1.28-.23.39-.56.75-.98,1.07-.43.32-.92.62-1.47.88-.55.26-1.11.49-1.67.69-.56.19-1.1.36-1.62.49-.51.13-.93.23-1.25.29-.24.04-.54.09-.89.13-.35.04-.69.04-1.02,0-.33-.04-.62-.15-.88-.31-.25-.16-.41-.41-.47-.75-.08-.42-.06-.81.05-1.17.11-.36.28-.7.52-1.01.23-.31.51-.58.83-.8.32-.22.65-.41,1-.55-.06-1.12-.12-2.24-.2-3.35-.07-1.11-.19-2.23-.35-3.36-.16-1.15-.33-2.28-.48-3.4-.16-1.12-.32-2.24-.48-3.37-.14.04-.26.08-.38.11-.12.03-.23.06-.33.07-.28.05-.58.07-.92.07-.33,0-.65-.05-.96-.15-.31-.1-.58-.24-.8-.43-.23-.19-.37-.45-.43-.79-.12-.68.06-1.29.55-1.83.49-.54,1.11-1,1.86-1.38.75-.38,1.52-.69,2.33-.93.8-.24,1.46-.4,1.96-.49.28-.05.65-.1,1.12-.14.47-.04.94-.03,1.41.03.47.06.9.18,1.27.36.37.18.6.48.67.9Z"/>
            <path class="cls-1" d="m89.18,92.46c.23.39.53.94.91,1.68s.77,1.55,1.17,2.46c.4.91.77,1.86,1.11,2.84s.58,1.92.72,2.81c.14.88.14,1.68.01,2.38-.13.7-.48,1.21-1.04,1.54-.53.31-1.1.44-1.72.38-.62-.05-1.23-.2-1.84-.44s-1.2-.54-1.76-.9c-.56-.35-1.05-.69-1.47-1.01-.89-.68-1.77-1.35-2.65-2-.88-.65-1.74-1.33-2.6-2.03l.43.74c.44.75.87,1.51,1.3,2.26s.8,1.53,1.13,2.32c.14.32.3.69.49,1.11.19.42.35.85.49,1.29.14.44.22.87.25,1.3.03.43-.05.81-.24,1.13-.11.18-.22.32-.34.41-.12.09-.25.21-.39.33l-.08.05c-.4.24-.83.3-1.26.19-.44-.11-.88-.32-1.32-.64-.44-.32-.88-.71-1.31-1.18-.43-.47-.82-.94-1.18-1.43-.36-.48-.68-.94-.96-1.37-.27-.43-.49-.77-.64-1.04-.24-.4-.56-1.01-.98-1.81-.42-.8-.85-1.71-1.29-2.72-.44-1.01-.86-2.07-1.26-3.18-.4-1.11-.69-2.16-.87-3.15-.18-.99-.21-1.87-.09-2.63.12-.76.46-1.31,1.02-1.64.54-.32,1.15-.39,1.83-.22.67.17,1.35.45,2.02.83.67.38,1.3.83,1.9,1.32.6.5,1.1.91,1.5,1.24.78.65,1.55,1.3,2.3,1.95.76.65,1.51,1.32,2.27,2.01.04.03.13.1.27.23.14.13.31.27.49.42.19.17.42.36.68.56-.13-.23-.23-.39-.3-.48s-.12-.18-.17-.26c-.05-.08-.1-.18-.18-.3-.07-.12-.18-.32-.34-.58-.36-.57-.71-1.14-1.05-1.71-.35-.57-.68-1.14-1.01-1.7-.14-.25-.34-.59-.59-1.03-.25-.44-.5-.93-.74-1.45-.25-.53-.48-1.07-.69-1.63-.21-.56-.35-1.09-.43-1.6-.07-.51-.06-.97.04-1.38.1-.41.34-.73.7-.94.44-.26.91-.31,1.42-.16.51.15,1.02.42,1.54.82.51.4,1.02.88,1.51,1.45.5.57.96,1.14,1.39,1.71s.81,1.12,1.13,1.63c.33.52.58.92.75,1.22Z"/>
            <path class="cls-1" d="m97.03,78.26c.31.23.6.52.88.85s.51.69.67,1.07c.17.38.25.78.24,1.18,0,.41-.15.79-.43,1.17-.43.56-.85.91-1.27,1.03-.41.12-.81.12-1.21,0-.39-.12-.77-.31-1.12-.57-.35-.26-.69-.5-1.01-.71-.32-.22-.61-.36-.88-.43-.27-.07-.52.05-.74.34-.25.32-.35.69-.3,1.12.05.42.19.86.43,1.32.24.46.54.93.92,1.41.38.48.77.93,1.17,1.36.4.42.8.81,1.19,1.16.39.35.71.62.97.82.34.26.75.56,1.24.89.49.33.99.6,1.52.8.53.2,1.04.28,1.53.25.5-.03.93-.29,1.3-.77.25-.32.45-.67.6-1.04.15-.37.3-.75.43-1.13.13-.39.27-.77.43-1.14.16-.38.36-.73.61-1.05.28-.37.67-.56,1.15-.58.48-.01.91.12,1.28.41.52.4.87.92,1.07,1.59.2.66.28,1.36.26,2.1-.03.73-.16,1.45-.39,2.16s-.52,1.28-.87,1.73c-.89,1.16-1.91,1.94-3.05,2.35-1.14.41-2.32.54-3.53.4-1.21-.14-2.42-.49-3.61-1.05-1.19-.57-2.29-1.24-3.31-2.02-.68-.52-1.37-1.15-2.08-1.9-.71-.75-1.37-1.56-1.99-2.44-.62-.88-1.15-1.81-1.61-2.79-.46-.98-.77-1.95-.94-2.93s-.18-1.94-.02-2.88c.16-.94.55-1.81,1.16-2.62.61-.79,1.31-1.3,2.11-1.53s1.63-.27,2.48-.13c.85.14,1.69.42,2.5.84.82.42,1.55.88,2.19,1.37Z"/>
            <path class="cls-1" d="m111.69,68.25c.37.12.69.34.97.64.26.3.5.88.71,1.74.21.86.37,1.79.47,2.79.11,1,.17,1.95.18,2.85.01.9-.05,1.55-.17,1.93-.09.27-.26.57-.5.89-.25.33-.53.64-.84.94-.31.3-.65.56-1,.78-.35.22-.66.35-.94.41-.16.03-.46.02-.88-.05-.43-.07-.92-.17-1.48-.3-.56-.13-1.14-.28-1.76-.44-.62-.16-1.21-.32-1.77-.47-.56-.15-1.05-.29-1.48-.43s-.74-.23-.93-.29c-.71-.24-1.53-.53-2.44-.89-.91-.35-1.81-.75-2.7-1.2-.89-.44-1.72-.94-2.49-1.48-.77-.54-1.38-1.14-1.83-1.78-.13-.19-.22-.52-.28-.99s-.08-1.01-.08-1.61c0-.61.04-1.25.1-1.94.06-.69.13-1.34.22-1.97.09-.62.18-1.19.27-1.69.09-.5.18-.88.26-1.13.1-.29.25-.54.46-.76.21-.22.45-.38.73-.5.27-.11.56-.18.85-.2.3-.02.59.02.88.11.25.08.45.19.6.31s.31.29.48.5c.19.28.35.78.5,1.51.14.73.26,1.52.36,2.35.1.83.17,1.63.22,2.38.05.75.09,1.29.11,1.59.42.22.84.45,1.26.69.42.24.86.45,1.31.64-.11-.7-.18-1.47-.2-2.31-.02-.84.08-1.6.3-2.27.45-1.37,1.36-1.83,2.71-1.38.33.11.6.27.81.48.21.21.38.45.5.71s.22.55.28.86c.06.31.11.61.17.91.12.73.19,1.47.21,2.22.02.75.03,1.51.04,2.26.14.09.3.18.47.28.17.1.34.18.52.23.27.09.55.16.83.21.28.05.57.1.85.15,0-.26,0-.67,0-1.24s0-1.16.01-1.78c.01-.62.04-1.21.09-1.77.05-.56.11-.97.19-1.22.1-.29.25-.54.46-.75.21-.21.44-.37.7-.47.26-.11.54-.17.85-.18.3-.02.59.02.86.11Z"/>
            <path class="cls-1" d="m95.76,53.92c.47.02.87.18,1.2.48.33.31.61.67.82,1.08.21.37.44.76.68,1.15.24.39.51.76.82,1.09.3.34.65.61,1.02.83.38.22.81.33,1.3.35.43.01.82-.07,1.17-.27.35-.19.7-.43,1.04-.71.35-.28.7-.6,1.07-.94.37-.34.77-.65,1.22-.93s.95-.51,1.5-.7c.55-.18,1.2-.26,1.93-.24.51.02,1.08.14,1.71.38.63.23,1.27.55,1.91.93.64.39,1.25.84,1.85,1.36.59.52,1.12,1.06,1.58,1.64.46.57.82,1.17,1.1,1.79.27.62.4,1.21.38,1.78-.02.63-.21,1.18-.57,1.66s-.89.7-1.58.68c-.47-.02-.9-.14-1.28-.38-.39-.24-.76-.52-1.12-.86-.35-.34-.7-.71-1.03-1.12s-.67-.78-1-1.12c-.33-.34-.68-.62-1.05-.86-.37-.24-.77-.36-1.19-.38-.59-.02-1.2.17-1.83.56-.63.4-1.29.84-1.96,1.32-.68.49-1.37.93-2.07,1.32-.7.39-1.41.58-2.12.55-.87-.03-1.78-.29-2.73-.79-.95-.5-1.81-1.13-2.59-1.88-.78-.76-1.42-1.6-1.91-2.53-.5-.93-.73-1.84-.7-2.74.02-.71.26-1.31.7-1.81.44-.49,1.03-.73,1.76-.7Z"/>
            <path class="cls-1" d="m93.63,44.95c.46-.1.88-.04,1.29.17.4.21.75.5,1.06.85.3.31.61.63.94.95.33.32.68.61,1.06.86.38.25.78.43,1.2.55.42.12.87.12,1.34.02.42-.09.77-.27,1.07-.54.29-.27.57-.59.84-.95.27-.36.53-.75.81-1.17.27-.42.59-.82.95-1.21.37-.38.79-.73,1.29-1.04.49-.31,1.1-.55,1.81-.71.5-.11,1.08-.13,1.75-.05.67.07,1.36.22,2.08.44s1.42.51,2.12.86c.7.36,1.34.76,1.93,1.2.58.44,1.09.93,1.5,1.47.42.53.69,1.08.81,1.63.13.62.08,1.2-.15,1.75-.23.55-.69.9-1.36,1.04-.46.1-.9.08-1.34-.05s-.87-.32-1.29-.56c-.43-.24-.85-.52-1.27-.83-.42-.31-.84-.59-1.24-.84s-.82-.44-1.23-.57c-.41-.14-.83-.16-1.25-.07-.58.12-1.12.46-1.64,1-.52.54-1.04,1.13-1.58,1.76-.54.64-1.1,1.23-1.69,1.79-.59.55-1.23.91-1.92,1.06-.85.19-1.8.15-2.84-.1-1.04-.25-2.03-.65-2.97-1.19-.94-.54-1.76-1.21-2.47-1.99-.71-.78-1.16-1.61-1.35-2.48-.15-.69-.07-1.33.24-1.92.31-.59.82-.96,1.54-1.11Z"/>
          </g>
        </g>
      </g>
    </g>
  </g>
</svg>