<?xml version="1.0" encoding="UTF-8"?>
<svg id="Layer_2" data-name="Layer 2" xmlns="http://www.w3.org/2000/svg" viewBox="0 0 120 120">
  <defs>
    <style>
      .cls-1 {
        fill: #fff;
      }

      .cls-2 {
        fill: #ccd0d9;
      }

      .cls-3 {
        fill: #242830;
      }

      .cls-4 {
        fill: #4c535f;
      }
    </style>
  </defs>
  <g id="Card">
    <g id="Icon">
      <g id="Pearl">
        <g id="Boba">
          <circle class="cls-3" cx="60" cy="60" r="60"/>
          <path class="cls-4" d="m88,78c10.52,3.51,29-4,20.7,11.47-8.92,16.63-27.78,26.58-47.99,26.58-31.32,0-56.71-25.48-56.71-56.92,0-6.13,1.25-13.37,3.05-17.65,6.95-16.48,7.95,1.52,10.95,4.52,7,7,14.42,2.72,27,6,23,6,37,24,43,26Z"/>
          <path class="cls-2" d="m59.19,16.76c-3.74,26.73,49.88,18.93,29.93,0-6.16-5.85-28.07-13.26-29.93,0Z"/>
          <path class="cls-2" d="m93.11,37.78c-2.46,2.43-5.13,8.03-2.09,11s5.53,7.03,9.37,5.67c7.9-2.81,7.02-10.97,3.59-16.43-3.86-6.13-7.9-3.17-10.86-.24Z"/>
        </g>
      </g>
      <g id="Names_W" data-name="Names W">
        <g id="SWE">
          <g id="JESSICA">
            <path class="cls-1" d="m52.11,104.57l-.2.73c-.22.72-.47,1.48-.75,2.29-.29.81-.61,1.59-.96,2.36s-.77,1.48-1.25,2.14c-.48.66-1.03,1.21-1.65,1.65-.63.44-1.33.73-2.1.88-.78.14-1.66.08-2.63-.19-1.06-.29-1.92-.77-2.59-1.44-.67-.67-1.17-1.44-1.49-2.32-.33-.88-.49-1.81-.5-2.79,0-.98.12-1.94.38-2.88.11-.41.28-.86.51-1.34.23-.49.51-.92.85-1.3.34-.38.72-.68,1.14-.89.43-.21.9-.24,1.43-.1.57.16.95.43,1.15.82.2.39.3.83.3,1.33,0,.5-.05,1.02-.16,1.57-.11.55-.2,1.06-.27,1.54-.07.48-.07.89-.01,1.25.06.35.27.58.62.68.41.11.78.03,1.12-.26s.62-.66.86-1.11c.24-.45.44-.92.61-1.4.16-.48.28-.86.36-1.13.3-1.1.5-2.2.61-3.29s.16-2.23.19-3.38c.01-.59.02-1.18.02-1.8,0-.61.08-1.2.23-1.77.18-.67.51-1.16.98-1.49.47-.32,1.04-.39,1.73-.2.51.14.88.35,1.12.64.24.29.45.67.63,1.14.28.73.47,1.53.56,2.4s.1,1.75.05,2.64c-.06.89-.16,1.77-.32,2.65-.16.87-.33,1.67-.53,2.4Z"/>
            <path class="cls-1" d="m68.41,110.88c.02.39-.07.77-.25,1.14-.19.35-.64.78-1.37,1.29-.73.5-1.54.98-2.43,1.44s-1.76.86-2.6,1.19c-.84.33-1.46.51-1.87.53-.28.01-.62-.04-1.01-.15s-.79-.26-1.18-.45c-.4-.18-.76-.4-1.08-.65-.33-.25-.57-.49-.72-.73-.09-.14-.18-.42-.27-.84-.09-.42-.18-.92-.25-1.48-.08-.57-.15-1.17-.22-1.8-.07-.64-.13-1.24-.19-1.82-.06-.58-.1-1.09-.13-1.53-.03-.45-.05-.77-.06-.97-.04-.75-.05-1.61-.05-2.59s.05-1.96.15-2.95c.1-.99.26-1.94.49-2.86.23-.92.56-1.7,1-2.35.13-.19.41-.4.83-.62.42-.22.91-.44,1.48-.65.57-.21,1.19-.41,1.85-.61.66-.19,1.3-.36,1.91-.5.61-.14,1.17-.26,1.68-.35.5-.09.89-.15,1.15-.16.3-.01.6.04.88.16s.52.29.73.5c.2.21.37.46.49.72.12.27.19.56.21.86.01.26-.01.49-.07.67-.06.19-.16.39-.29.62-.19.27-.6.61-1.23,1s-1.32.79-2.06,1.18c-.74.39-1.46.75-2.15,1.06-.69.32-1.17.54-1.45.68-.06.47-.12.95-.19,1.43-.07.48-.11.97-.13,1.46.61-.35,1.31-.69,2.09-1.01.78-.32,1.52-.5,2.23-.53,1.44-.07,2.19.61,2.26,2.03.02.35-.04.65-.15.92-.12.27-.28.51-.48.72-.2.21-.44.4-.71.57-.27.17-.53.33-.79.48-.63.38-1.3.71-2,.99-.7.29-1.4.57-2.09.85-.03.16-.07.34-.1.54-.03.19-.04.38-.03.57.01.28.05.57.1.85.05.28.11.56.16.85.24-.09.62-.24,1.15-.45.53-.21,1.08-.42,1.66-.63.58-.21,1.14-.39,1.68-.55.54-.16.94-.24,1.21-.26.3-.01.59.04.86.16.27.12.5.28.69.49.19.2.35.45.48.73s.19.56.21.84Z"/>
            <path class="cls-1" d="m76.03,90.91c.15.44.15.87-.02,1.3-.17.42-.4.81-.71,1.15-.27.33-.55.68-.83,1.05-.28.37-.52.75-.73,1.15-.2.4-.34.82-.41,1.25-.07.43-.02.88.14,1.34.14.4.36.73.67.99.3.26.65.5,1.04.72.39.22.81.44,1.26.66.45.22.89.49,1.31.8.42.32.82.7,1.19,1.15.37.45.68,1.02.92,1.72.17.48.25,1.06.26,1.73,0,.67-.05,1.38-.19,2.11-.13.73-.34,1.47-.61,2.21-.27.74-.59,1.43-.96,2.06-.37.63-.8,1.19-1.28,1.67-.48.48-.99.81-1.53,1-.59.21-1.18.23-1.75.06-.57-.17-.97-.58-1.2-1.23-.15-.44-.19-.89-.11-1.33.08-.45.22-.9.4-1.35s.41-.91.67-1.36c.26-.46.49-.9.68-1.33.19-.43.33-.86.42-1.29.09-.43.06-.84-.08-1.25-.19-.56-.59-1.06-1.18-1.51-.6-.45-1.24-.9-1.94-1.36-.7-.46-1.35-.95-1.97-1.46-.62-.52-1.04-1.11-1.28-1.78-.29-.83-.37-1.77-.24-2.84.13-1.06.4-2.1.83-3.09.43-1,.99-1.89,1.68-2.69.69-.8,1.46-1.34,2.3-1.64.67-.23,1.32-.23,1.94,0,.62.24,1.05.7,1.29,1.39Z"/>
            <path class="cls-1" d="m83.62,85.66c.26.39.36.81.3,1.26-.06.45-.19.88-.41,1.29-.18.39-.36.79-.54,1.22-.18.43-.32.86-.42,1.3-.1.44-.12.88-.08,1.31.04.43.2.85.47,1.26.24.36.53.62.89.8.36.18.75.32,1.19.44s.89.23,1.39.33c.49.1.98.25,1.47.45.49.2.97.48,1.44.82.47.35.91.82,1.31,1.43.28.42.51.96.68,1.61.18.65.29,1.35.34,2.09.05.74.04,1.51-.04,2.29-.08.78-.22,1.53-.42,2.23s-.48,1.35-.82,1.93c-.35.58-.75,1.03-1.23,1.34-.53.35-1.09.51-1.68.49-.6-.02-1.09-.32-1.47-.89-.26-.39-.4-.81-.44-1.27-.03-.45-.01-.92.06-1.41.07-.48.17-.98.31-1.49.14-.51.25-.99.33-1.46.08-.47.11-.92.09-1.36-.02-.44-.15-.83-.38-1.19-.33-.49-.83-.88-1.52-1.17-.69-.29-1.43-.57-2.21-.84-.79-.27-1.55-.58-2.27-.93-.73-.35-1.29-.82-1.68-1.41-.48-.73-.79-1.62-.94-2.69-.14-1.06-.13-2.13.04-3.2s.49-2.08.96-3.03,1.08-1.66,1.82-2.16c.59-.39,1.22-.55,1.88-.48.66.08,1.19.42,1.59,1.03Z"/>
            <path class="cls-1" d="m90.63,78.7c.29.26.48.56.59.89s.15.68.11,1.03-.11.71-.24,1.06c-.13.35-.28.67-.45.95,1.67,1.57,3.25,3.13,4.74,4.66,1.49,1.53,2.98,3.17,4.47,4.91l.12-.14c.22-.24.46-.45.72-.64.26-.18.55-.31.84-.39.3-.07.59-.08.88-.02s.57.21.84.46c.35.31.55.7.6,1.15.06.45.02.93-.12,1.45-.14.52-.35,1.05-.62,1.59-.28.55-.58,1.07-.91,1.56-.33.5-.66.96-.98,1.37-.33.42-.6.75-.82.99-.16.18-.37.4-.63.65-.25.25-.52.46-.81.62-.29.16-.58.26-.88.29-.3.03-.58-.07-.83-.31-.32-.29-.54-.61-.67-.96-.13-.35-.2-.72-.21-1.11,0-.39.05-.77.17-1.14.12-.37.27-.72.46-1.05-.73-.86-1.47-1.7-2.2-2.54-.74-.83-1.51-1.65-2.33-2.44-.83-.81-1.65-1.61-2.46-2.4-.81-.79-1.62-1.58-2.43-2.38-.08.12-.16.23-.23.32s-.15.18-.21.26c-.19.21-.42.42-.68.61-.26.2-.55.35-.85.46-.3.11-.6.16-.9.15s-.57-.13-.83-.36c-.51-.46-.74-1.06-.68-1.79.06-.73.27-1.47.63-2.23.36-.76.78-1.48,1.28-2.15.49-.68.91-1.2,1.25-1.58.19-.21.46-.47.8-.79.34-.32.72-.6,1.13-.84.41-.24.82-.41,1.23-.49.41-.08.77.02,1.08.3Z"/>
            <path class="cls-1" d="m100.38,70.05c.35.17.69.38,1.04.65.34.27.64.57.88.91.24.34.4.71.48,1.11s.02.81-.18,1.23c-.31.64-.65,1.06-1.03,1.26-.38.2-.77.28-1.18.24-.41-.04-.81-.15-1.21-.33-.4-.18-.78-.34-1.13-.49-.36-.15-.67-.23-.95-.24-.28,0-.5.15-.65.48-.18.37-.2.75-.06,1.15.13.4.36.81.69,1.21.33.4.72.8,1.19,1.19.46.39.94.75,1.42,1.09.48.33.95.63,1.4.89.45.26.82.46,1.11.6.38.19.85.39,1.39.62.54.23,1.09.38,1.65.47.56.09,1.07.06,1.55-.07.48-.13.85-.47,1.12-1.02.17-.37.3-.75.38-1.14.08-.39.14-.79.19-1.2.05-.4.11-.81.19-1.21s.21-.78.38-1.15c.2-.42.54-.69,1.01-.8.47-.11.92-.07,1.34.13.59.28,1.04.73,1.37,1.33.33.61.55,1.27.68,2,.13.73.15,1.46.06,2.19-.08.74-.25,1.36-.49,1.87-.63,1.32-1.47,2.29-2.5,2.92-1.04.63-2.16,1-3.38,1.12-1.22.12-2.46.02-3.75-.29-1.28-.31-2.5-.74-3.65-1.3-.77-.37-1.58-.85-2.42-1.43-.84-.59-1.66-1.25-2.44-1.98-.78-.74-1.5-1.54-2.15-2.4-.65-.86-1.15-1.75-1.52-2.67-.37-.92-.57-1.86-.61-2.81-.04-.95.16-1.89.6-2.8.43-.9,1.01-1.54,1.75-1.93.74-.39,1.54-.6,2.4-.64.86-.04,1.74.07,2.62.31.88.25,1.69.54,2.43.89Z"/>
            <path class="cls-1" d="m112.93,54.83c.41.03.89.11,1.45.22.56.12,1.09.3,1.59.54.5.24.91.55,1.24.93s.47.84.42,1.41c-.06.75-.38,1.29-.96,1.62s-1.25.55-2.02.65c-.77.1-1.55.13-2.35.1-.79-.03-1.42-.06-1.89-.08.12,1.48.22,2.93.29,4.36.46.08,1.03.21,1.71.4.68.19,1.32.44,1.94.77.62.33,1.14.72,1.57,1.2.43.47.62,1.02.57,1.65-.04.49-.25.85-.62,1.1-.38.24-.81.42-1.31.52-.5.1-1.01.15-1.52.14-.52-.01-.95-.03-1.29-.06-1.15-.09-2.29-.28-3.39-.55s-2.21-.58-3.3-.91c-.58-.17-1.25-.39-2.03-.65-.77-.27-1.57-.58-2.38-.94-.82-.36-1.62-.77-2.41-1.23s-1.49-.97-2.09-1.53c-.61-.56-1.09-1.18-1.44-1.86-.35-.68-.5-1.42-.43-2.21.06-.77.29-1.42.68-1.96.39-.54.89-1,1.49-1.38.6-.38,1.27-.68,2.01-.91.74-.23,1.49-.4,2.25-.54.75-.13,1.49-.23,2.21-.31s1.36-.14,1.91-.2c1.34-.16,2.69-.27,4.05-.34s2.72-.05,4.08.06Zm-7.86,5.26c-.24-.02-.64-.04-1.2-.05-.56-.02-1.12,0-1.69.06-.57.06-1.07.17-1.53.35-.45.18-.69.45-.72.81-.02.2.1.41.36.61.26.2.59.39.99.57s.85.34,1.35.49c.5.15.98.29,1.43.41.46.12.88.21,1.25.28.37.07.64.12.8.16,0-1.22-.06-2.43-.17-3.62l-.88-.07Z"/>
          </g>
        </g>
      </g>
    </g>
  </g>
</svg>