<?xml version="1.0" encoding="UTF-8"?>
<svg id="Layer_2" data-name="Layer 2" xmlns="http://www.w3.org/2000/svg" viewBox="0 0 120 120">
  <defs>
    <style>
      .cls-1 {
        fill: #fff;
      }

      .cls-2 {
        fill: #ccd0d9;
      }

      .cls-3 {
        fill: #242830;
      }

      .cls-4 {
        fill: #4c535f;
      }
    </style>
  </defs>
  <g id="Card">
    <g id="Icon">
      <g id="Pearl">
        <g id="Boba">
          <circle class="cls-3" cx="60" cy="60" r="60"/>
          <path class="cls-4" d="m88,78c10.52,3.51,29-4,20.7,11.47-8.92,16.63-27.78,26.58-47.99,26.58-31.32,0-56.71-25.48-56.71-56.92,0-6.13,1.25-13.37,3.05-17.65,6.95-16.48,7.95,1.52,10.95,4.52,7,7,14.42,2.72,27,6,23,6,37,24,43,26Z"/>
          <path class="cls-2" d="m59.19,16.76c-3.74,26.73,49.88,18.93,29.93,0-6.16-5.85-28.07-13.26-29.93,0Z"/>
          <path class="cls-2" d="m93.11,37.78c-2.46,2.43-5.13,8.03-2.09,11s5.53,7.03,9.37,5.67c7.9-2.81,7.02-10.97,3.59-16.43-3.86-6.13-7.9-3.17-10.86-.24Z"/>
        </g>
      </g>
      <g id="Names_W" data-name="Names W">
        <g id="UXR">
          <g id="YE_JU" data-name="YE JU">
            <path class="cls-1" d="m67.74,94.89c.02.89-.07,1.88-.28,2.96-.21,1.08-.48,2.18-.82,3.28-.34,1.1-.71,2.18-1.11,3.23-.4,1.05-.78,1.97-1.12,2.77-.19.45-.43,1.02-.71,1.71-.28.69-.59,1.42-.94,2.2s-.72,1.57-1.12,2.36c-.4.79-.81,1.5-1.25,2.13-.43.63-.88,1.15-1.34,1.55s-.92.62-1.39.63c-.65.01-1.12-.21-1.4-.68-.29-.47-.43-1-.45-1.59-.01-.57.07-1.18.25-1.82.18-.64.41-1.28.69-1.92.28-.64.59-1.25.93-1.85.34-.6.66-1.13.95-1.61-.41-.09-.81-.27-1.2-.52-.39-.25-.68-.56-.87-.92-.34-.7-.7-1.5-1.06-2.38-.37-.89-.7-1.79-.99-2.71-.3-.92-.55-1.84-.75-2.76-.2-.92-.32-1.77-.33-2.54,0-.37.02-.77.09-1.21.07-.44.2-.85.38-1.23.18-.38.43-.7.74-.96.31-.26.7-.4,1.16-.41.53-.01,1,.18,1.42.56s.79.88,1.12,1.48c.33.6.61,1.28.85,2.02.24.75.45,1.48.63,2.21.18.73.33,1.4.44,2,.12.61.22,1.08.31,1.43.07-.31.2-.77.38-1.4.18-.62.4-1.31.65-2.07s.55-1.54.89-2.34.7-1.53,1.08-2.19c.38-.66.79-1.2,1.23-1.63.44-.43.89-.65,1.36-.66.3,0,.56.1.77.32.21.22.37.48.49.78.12.3.2.62.25.94.05.32.07.6.08.82Z"/>
            <path class="cls-1" d="m83.43,105.83c.13.36.16.75.09,1.16-.07.39-.39.94-.94,1.63-.55.69-1.18,1.39-1.9,2.09-.72.7-1.43,1.33-2.13,1.9-.7.56-1.25.92-1.63,1.05-.27.1-.61.15-1.01.15-.41,0-.83-.02-1.26-.08-.43-.06-.84-.16-1.23-.3-.39-.14-.69-.3-.9-.49-.12-.11-.29-.35-.5-.73-.21-.38-.44-.83-.68-1.34-.24-.52-.49-1.07-.74-1.66-.25-.59-.49-1.15-.72-1.69-.22-.53-.42-1.01-.58-1.43-.16-.42-.27-.72-.34-.91-.25-.71-.52-1.53-.8-2.46-.28-.94-.52-1.89-.72-2.87-.2-.98-.32-1.94-.37-2.88-.05-.94.04-1.79.27-2.54.07-.22.27-.5.61-.83.33-.33.74-.69,1.22-1.05.48-.37,1.01-.74,1.59-1.12.58-.38,1.14-.73,1.68-1.04.55-.31,1.04-.59,1.5-.83.45-.24.81-.4,1.05-.49.29-.1.58-.14.88-.11.3.03.58.12.84.27.26.15.48.33.68.55.2.22.35.47.45.76.09.25.13.47.13.67,0,.2-.04.42-.09.68-.1.32-.4.76-.89,1.32s-1.03,1.14-1.63,1.73c-.6.59-1.18,1.14-1.74,1.64-.56.5-.96.86-1.18,1.07.08.47.16.94.24,1.42.08.48.18.96.3,1.43.48-.52,1.05-1.05,1.7-1.58s1.31-.92,1.98-1.16c1.36-.49,2.28-.06,2.76,1.28.12.33.16.63.12.93-.04.29-.12.57-.25.83-.13.26-.3.51-.51.75s-.41.47-.61.69c-.5.54-1.03,1.06-1.62,1.54-.58.48-1.17.95-1.75,1.42.02.17.04.35.07.54.03.2.07.38.13.55.1.27.21.53.35.78.13.25.27.51.4.76.2-.16.53-.42.97-.77.44-.35.91-.72,1.41-1.09s.98-.71,1.45-1.02c.47-.31.83-.51,1.08-.6.29-.1.58-.14.87-.1.29.04.56.12.81.26.24.14.47.32.67.55.2.23.35.48.45.75Z"/>
            <path class="cls-1" d="m97.25,85.38l.56.52c.54.52,1.1,1.1,1.69,1.72s1.14,1.27,1.66,1.94c.52.67.96,1.36,1.33,2.09.37.73.61,1.47.71,2.22.1.76.04,1.52-.18,2.27-.23.76-.68,1.51-1.37,2.26-.74.81-1.56,1.36-2.46,1.65s-1.82.38-2.75.27-1.83-.39-2.71-.83c-.87-.44-1.67-1-2.39-1.66-.31-.29-.63-.65-.96-1.07-.33-.42-.58-.87-.77-1.35-.19-.47-.27-.95-.27-1.42,0-.47.2-.91.57-1.32.4-.43.82-.65,1.26-.65.44,0,.88.12,1.32.34.44.23.88.51,1.32.86.44.35.86.66,1.25.94.39.28.76.47,1.1.58.34.11.64.03.88-.24.29-.31.38-.68.28-1.11-.1-.43-.3-.85-.59-1.27-.29-.42-.61-.81-.97-1.18-.35-.37-.63-.65-.84-.84-.84-.77-1.72-1.45-2.65-2.04-.93-.59-1.9-1.16-2.92-1.71-.51-.28-1.04-.56-1.59-.84-.54-.28-1.03-.62-1.47-1.02-.51-.47-.8-.98-.88-1.55-.07-.56.13-1.11.61-1.63.36-.39.72-.62,1.08-.7s.8-.09,1.3-.04c.78.08,1.58.28,2.39.6.81.32,1.6.71,2.37,1.16.77.46,1.5.95,2.21,1.49.71.54,1.34,1.06,1.89,1.57Z"/>
            <path class="cls-1" d="m105.9,68.26c.77.31,1.55.67,2.34,1.08.79.41,1.53.86,2.23,1.36.7.5,1.32,1.05,1.88,1.66.55.61.99,1.27,1.3,1.99s.48,1.5.49,2.33-.18,1.74-.56,2.7c-.57,1.41-1.4,2.51-2.48,3.29s-2.28,1.31-3.58,1.59c-1.31.28-2.67.34-4.07.16-1.41-.17-2.73-.51-3.98-1.02-.13-.05-.25-.1-.37-.15-.11-.05-.21-.1-.3-.15-.39-.18-.91-.43-1.57-.75-.66-.32-1.35-.69-2.08-1.12-.73-.42-1.46-.89-2.2-1.4-.74-.51-1.37-1.03-1.89-1.58-.52-.55-.91-1.12-1.16-1.7-.25-.58-.26-1.15-.03-1.72.17-.41.43-.71.79-.9.36-.18.76-.29,1.2-.32.44-.03.88,0,1.31.09.44.09.82.2,1.16.34.51.21,1,.46,1.48.78.48.31.95.62,1.42.92.75.48,1.51.93,2.28,1.35s1.58.8,2.43,1.15c.43.18.97.36,1.61.57s1.29.33,1.94.37c.65.04,1.25-.03,1.79-.21.55-.18.94-.58,1.18-1.18.24-.58.23-1.13-.03-1.64s-.62-.96-1.1-1.35c-.48-.39-1.01-.73-1.59-1.02-.58-.29-1.09-.52-1.53-.7-1.24-.5-2.51-.9-3.81-1.18-1.3-.28-2.62-.5-3.96-.65-.36-.04-.71-.08-1.06-.15-.35-.06-.68-.16-1-.29-.53-.21-.93-.55-1.2-1.03s-.29-.99-.06-1.55c.19-.47.55-.83,1.08-1.09.53-.26,1.16-.42,1.88-.51s1.5-.09,2.33-.03c.83.06,1.64.15,2.43.28.79.12,1.54.28,2.23.46s1.25.35,1.67.5c.2.06.38.12.56.19.18.07.37.15.58.23Z"/>
          </g>
        </g>
      </g>
    </g>
  </g>
</svg>