<?xml version="1.0" encoding="UTF-8"?>
<svg id="Layer_2" data-name="Layer 2" xmlns="http://www.w3.org/2000/svg" viewBox="0 0 120 120">
  <defs>
    <style>
      .cls-1 {
        fill: #fff;
      }

      .cls-2 {
        fill: #242830;
      }

      .cls-3 {
        fill: #ccd0d9;
      }

      .cls-4 {
        fill: #4c535f;
      }
    </style>
  </defs>
  <g id="Layer_1-2" data-name="Layer 1">
    <g id="Icon">
      <g id="Pearl">
        <g id="Boba">
          <circle class="cls-2" cx="60" cy="60" r="60"/>
          <path class="cls-4" d="M88,78c10.52,3.51,29-4,20.7,11.47-8.92,16.63-27.78,26.58-47.99,26.58-31.32,0-56.71-25.48-56.71-56.92,0-6.13,1.25-13.37,3.05-17.65,6.95-16.48,7.95,1.52,10.95,4.52,7,7,14.42,2.72,27,6,23,6,37,24,43,26Z"/>
          <path class="cls-3" d="M59.19,16.76c-3.74,26.73,49.88,18.93,29.93,0-6.16-5.85-28.07-13.26-29.93,0Z"/>
          <path class="cls-3" d="M93.11,37.78c-2.46,2.43-5.13,8.03-2.09,11s5.53,7.03,9.37,5.67c7.9-2.81,7.02-10.97,3.59-16.43-3.86-6.13-7.9-3.17-10.86-.24Z"/>
        </g>
      </g>
      <g id="Names_W" data-name="Names W">
        <g id="SWE">
          <g id="HARVIR">
            <path class="cls-1" d="M53.03,98.79c-.53,1.6-1.1,3.19-1.72,4.78s-1.24,3.16-1.89,4.72c-.12.28-.26.67-.45,1.15s-.4,1-.64,1.55c-.25.55-.51,1.1-.8,1.64-.29.55-.61,1.02-.97,1.43-.36.41-.75.7-1.17.9-.42.19-.86.21-1.32.06-.4-.13-.74-.34-1-.62-.26-.28-.45-.59-.57-.94s-.18-.72-.17-1.12c0-.39.07-.79.2-1.17.21-.64.44-1.27.7-1.9.25-.63.52-1.26.81-1.87l-2.96-.66c-.22.48-.49,1.06-.79,1.75s-.66,1.31-1.08,1.89c-.42.58-.91,1.03-1.46,1.36s-1.2.37-1.91.14c-.44-.15-.78-.37-1-.67-.22-.3-.37-.63-.43-1.01-.07-.38-.08-.77-.02-1.18.05-.41.13-.79.25-1.14.38-1.16.82-2.29,1.29-3.41.48-1.12.93-2.24,1.35-3.39.44-1.2.86-2.42,1.26-3.64.4-1.23.82-2.45,1.27-3.67.15-.4.33-.87.51-1.4s.42-1.02.71-1.45.63-.76,1.04-.99c.41-.23.91-.24,1.51-.04.83.28,1.38.7,1.66,1.28.28.57.4,1.21.36,1.92-.04.7-.18,1.42-.42,2.14s-.46,1.37-.65,1.95c-.26.77-.53,1.52-.81,2.25-.29.73-.57,1.46-.86,2.2l3.25.57c.33-.94.66-1.87.99-2.79.33-.92.67-1.83,1.04-2.74.17-.44.34-.9.53-1.4.19-.5.42-.93.69-1.31.28-.38.62-.66,1.03-.83s.93-.16,1.57.06c.54.18.93.48,1.16.9s.38.89.43,1.4c.06.51.04,1.03-.05,1.56-.09.53-.2.99-.34,1.4l-.12.38Z"/>
            <path class="cls-1" d="M68.18,111.25c.01.41,0,.89-.06,1.46-.06.57-.18,1.12-.36,1.64-.19.52-.45.97-.78,1.33-.34.36-.79.56-1.36.57-.75.02-1.32-.24-1.71-.77-.39-.54-.68-1.19-.86-1.94-.18-.76-.3-1.53-.36-2.32-.05-.79-.1-1.42-.13-1.89-1.45.29-2.89.54-4.31.76-.03.47-.1,1.05-.21,1.74-.11.7-.3,1.37-.55,2.01-.26.65-.6,1.21-1.02,1.69-.42.48-.95.73-1.58.75-.49.01-.87-.15-1.16-.5s-.5-.76-.66-1.25-.26-.98-.3-1.5c-.04-.52-.07-.95-.08-1.29-.03-1.16.03-2.3.17-3.44.15-1.13.33-2.26.54-3.38.1-.59.25-1.29.43-2.09.18-.8.41-1.62.68-2.47.27-.85.59-1.69.96-2.53s.8-1.58,1.29-2.25c.49-.66,1.05-1.21,1.69-1.63s1.35-.65,2.14-.67c.77-.02,1.45.13,2.03.46.58.33,1.09.77,1.53,1.33.44.56.82,1.19,1.12,1.9.3.71.56,1.44.78,2.17.21.74.4,1.46.55,2.16s.29,1.33.41,1.88c.3,1.31.56,2.64.79,3.99.22,1.35.35,2.7.39,4.06ZM62.09,104.01c0-.24-.03-.64-.08-1.2-.05-.56-.13-1.12-.25-1.67-.12-.56-.29-1.05-.51-1.48-.23-.43-.52-.64-.89-.63-.2,0-.39.15-.57.43s-.33.63-.46,1.05c-.13.42-.24.89-.34,1.4-.1.51-.18,1-.25,1.47-.07.47-.12.89-.15,1.27s-.05.65-.07.81c1.21-.14,2.41-.32,3.58-.56l-.03-.88Z"/>
            <path class="cls-1" d="M82.2,93.85c.53,1.3.71,2.59.54,3.87-.18,1.28-.6,2.52-1.27,3.72.49.33,1.01.73,1.58,1.2.57.47,1.12.98,1.64,1.55s1.01,1.14,1.44,1.75c.43.6.77,1.18,1,1.75.25.6.32,1.2.23,1.8-.09.6-.49,1.04-1.18,1.33-.58.24-1.2.17-1.86-.22-.66-.39-1.31-.91-1.96-1.55-.65-.64-1.28-1.31-1.88-2.01-.61-.7-1.13-1.24-1.58-1.62-.29.25-.57.51-.83.79-.26.27-.53.54-.82.82.15.42.35,1,.6,1.74.25.74.44,1.5.58,2.28.13.78.15,1.5.05,2.16-.1.66-.44,1.1-1,1.33-.62.26-1.2.2-1.75-.17s-1.03-.87-1.46-1.51c-.43-.64-.8-1.31-1.12-2.03s-.56-1.28-.73-1.69c-.36-.88-.7-1.76-1.02-2.63-.31-.87-.65-1.75-1.02-2.63-.33-.81-.68-1.61-1.04-2.41-.36-.8-.71-1.61-1.05-2.43-.08-.19-.18-.43-.3-.72s-.23-.6-.33-.92c-.1-.32-.19-.63-.27-.93-.08-.3-.11-.55-.08-.76.03-.47.3-1.02.82-1.65.52-.63,1.12-1.25,1.81-1.85.69-.6,1.38-1.14,2.07-1.61.7-.47,1.23-.79,1.61-.94.96-.39,1.88-.56,2.76-.51.88.05,1.69.29,2.43.7.74.41,1.4.96,1.97,1.66.57.7,1.04,1.49,1.41,2.37ZM77.15,96.39c-.2-.49-.47-.81-.8-.97-.33-.16-.75-.14-1.26.07-.38.15-.73.38-1.06.67-.33.29-.62.58-.87.89.69,1.45,1.32,2.92,1.91,4.39.34-.29.67-.63,1-1.01s.6-.79.83-1.23.37-.9.44-1.37,0-.95-.2-1.44Z"/>
            <path class="cls-1" d="M92.01,78.13c.53.5,1.06,1.13,1.6,1.88.53.75,1.04,1.55,1.53,2.39.49.84.95,1.68,1.38,2.52.43.84.81,1.59,1.16,2.25.21.42.49.93.84,1.53.35.59.7,1.23,1.06,1.92s.7,1.39,1.02,2.12c.32.72.57,1.42.74,2.08.17.66.24,1.28.2,1.85-.03.57-.23,1.04-.57,1.41-.29.31-.72.48-1.27.5-.55.02-1.17-.04-1.85-.2-.68-.15-1.4-.37-2.15-.65-.76-.28-1.48-.57-2.17-.88s-1.32-.6-1.88-.9-.99-.52-1.28-.69c-1.43-.79-2.86-1.61-4.28-2.46-1.42-.84-2.73-1.82-3.91-2.94-.29-.28-.59-.58-.88-.91-.29-.33-.51-.68-.67-1.05-.15-.37-.22-.74-.18-1.12.03-.37.23-.75.59-1.14.31-.33.77-.45,1.39-.38s1.32.26,2.11.59c.79.32,1.62.73,2.5,1.21.88.48,1.74.97,2.58,1.46.84.49,1.63.94,2.37,1.36.74.42,1.35.72,1.85.91-.21-.37-.52-.9-.93-1.61s-.84-1.5-1.31-2.37c-.46-.87-.92-1.78-1.38-2.73-.46-.95-.84-1.85-1.13-2.71-.3-.85-.48-1.62-.54-2.29-.06-.67.07-1.18.39-1.52.24-.25.49-.4.76-.45.27-.05.55-.03.82.06s.54.23.8.4c.26.17.49.36.69.55Z"/>
            <path class="cls-1" d="M96.08,65.33c.36.13.66.33.88.6.23.27.39.57.49.91.1.34.16.7.17,1.07s0,.72-.06,1.05c2.14.83,4.19,1.68,6.14,2.55,1.96.87,3.95,1.82,5.99,2.88l.06-.17c.11-.3.26-.59.43-.86.18-.27.39-.49.64-.67.25-.18.52-.29.81-.35s.61-.02.95.11c.44.16.77.44.99.84.22.4.36.86.43,1.39.06.53.07,1.1.02,1.71-.05.61-.14,1.21-.26,1.79-.12.58-.25,1.13-.4,1.64-.15.51-.27.92-.39,1.22-.08.23-.2.51-.34.83-.14.33-.32.62-.52.88-.21.26-.44.46-.71.6-.27.14-.56.15-.89.03-.4-.15-.73-.36-.98-.64-.25-.28-.46-.6-.6-.96-.15-.36-.24-.73-.27-1.12-.03-.39-.02-.77.03-1.14-1-.52-2-1.03-2.99-1.53s-2.02-.96-3.07-1.4c-1.07-.44-2.13-.88-3.17-1.3s-2.09-.86-3.14-1.29c-.03.14-.06.27-.09.39-.03.12-.07.22-.1.32-.1.27-.23.54-.4.83-.17.28-.38.53-.62.75s-.5.37-.78.48c-.28.1-.58.1-.9-.02-.65-.24-1.08-.71-1.3-1.41-.22-.7-.3-1.46-.25-2.3.05-.84.18-1.66.38-2.47.2-.81.39-1.46.57-1.93.1-.27.25-.61.45-1.04s.45-.83.74-1.21.61-.68.96-.91.72-.27,1.12-.12Z"/>
            <path class="cls-1" d="M100.77,49.14c1.4-.03,2.67.26,3.8.88,1.13.62,2.14,1.46,3.02,2.52.48-.34,1.04-.68,1.68-1.05.64-.36,1.32-.69,2.03-.98.71-.29,1.43-.53,2.15-.72.72-.19,1.38-.29,1.99-.31.65-.02,1.24.13,1.76.43.53.3.8.83.81,1.58.02.63-.28,1.18-.88,1.65s-1.31.9-2.15,1.27c-.83.38-1.68.72-2.55,1.04-.87.32-1.56.61-2.08.89.13.36.28.71.44,1.06.16.34.32.69.47,1.06.45,0,1.06.03,1.85.06s1.56.13,2.34.28c.78.15,1.45.4,2.03.73.58.33.87.8.89,1.41.02.67-.25,1.19-.79,1.57-.54.38-1.18.65-1.93.82-.75.17-1.51.28-2.29.31-.78.04-1.4.06-1.84.07-.95.02-1.89.03-2.82,0-.92-.02-1.86-.02-2.82,0-.87.02-1.75.06-2.62.11-.87.05-1.76.09-2.65.11-.2,0-.46,0-.78.02-.31,0-.64,0-.98-.02s-.66-.05-.96-.08-.55-.1-.74-.2c-.43-.19-.85-.65-1.25-1.36-.4-.71-.76-1.5-1.08-2.35-.31-.86-.57-1.69-.76-2.51-.19-.82-.29-1.43-.3-1.84-.02-1.04.15-1.95.51-2.75.37-.8.88-1.47,1.52-2.02.65-.54,1.4-.96,2.26-1.24.86-.28,1.76-.44,2.72-.46ZM101.33,54.76c-.53.01-.93.14-1.19.39-.27.25-.4.65-.38,1.2,0,.41.09.82.24,1.23.15.41.32.79.51,1.13,1.6-.12,3.2-.19,4.78-.21-.15-.42-.34-.85-.58-1.3-.23-.44-.52-.85-.85-1.21-.33-.37-.71-.67-1.12-.9s-.88-.34-1.41-.33Z"/>
          </g>
        </g>
      </g>
    </g>
  </g>
</svg>