<?xml version="1.0" encoding="UTF-8"?>
<svg id="Layer_2" data-name="Layer 2" xmlns="http://www.w3.org/2000/svg" viewBox="0 0 120 120">
  <defs>
    <style>
      .cls-1 {
        fill: #fff;
      }

      .cls-2 {
        fill: #ccd0d9;
      }

      .cls-3 {
        fill: #242830;
      }

      .cls-4 {
        fill: #4c535f;
      }
    </style>
  </defs>
  <g id="Layer_1-2" data-name="Layer 1">
    <g id="Icon">
      <g id="Pearl">
        <g id="Boba">
          <circle class="cls-3" cx="60" cy="60" r="60"/>
          <path class="cls-4" d="m88,78c10.52,3.51,29-4,20.7,11.47-8.92,16.63-27.78,26.58-47.99,26.58-31.32,0-56.71-25.48-56.71-56.92,0-6.13,1.25-13.37,3.05-17.65,6.95-16.48,7.95,1.52,10.95,4.52,7,7,14.42,2.72,27,6,23,6,37,24,43,26Z"/>
          <path class="cls-2" d="m59.19,16.76c-3.74,26.73,49.88,18.93,29.93,0-6.16-5.85-28.07-13.26-29.93,0Z"/>
          <path class="cls-2" d="m93.11,37.78c-2.46,2.43-5.13,8.03-2.09,11s5.53,7.03,9.37,5.67c7.9-2.81,7.02-10.97,3.59-16.43-3.86-6.13-7.9-3.17-10.86-.24Z"/>
        </g>
      </g>
      <g id="Names_W" data-name="Names W">
        <g id="SWE">
          <g id="RAZI">
            <path class="cls-1" d="m73.51,100.17c.22,1.38.11,2.68-.36,3.89-.46,1.21-1.16,2.32-2.08,3.33.4.43.82.94,1.27,1.52.45.59.86,1.21,1.25,1.88.39.67.72,1.34,1.01,2.03.29.68.48,1.33.58,1.93.1.64.04,1.24-.19,1.81s-.71.9-1.45,1.02c-.62.1-1.21-.11-1.75-.64-.55-.53-1.07-1.18-1.55-1.96-.49-.78-.95-1.57-1.38-2.39s-.82-1.46-1.16-1.94c-.34.18-.67.37-.99.58-.32.21-.64.41-.98.61.05.44.11,1.06.19,1.84.08.78.09,1.57.04,2.35-.05.79-.19,1.49-.44,2.11s-.67.97-1.28,1.07c-.66.11-1.22-.08-1.67-.56-.45-.48-.81-1.08-1.08-1.8-.27-.72-.48-1.46-.62-2.23-.15-.77-.25-1.37-.33-1.82-.15-.94-.28-1.87-.39-2.79s-.24-1.85-.39-2.79c-.14-.86-.3-1.72-.47-2.58s-.33-1.73-.47-2.61c-.03-.2-.07-.46-.12-.77-.05-.31-.09-.63-.11-.97-.02-.34-.04-.66-.05-.96,0-.31.02-.56.09-.76.13-.45.52-.93,1.17-1.43.65-.5,1.38-.96,2.18-1.39s1.6-.79,2.38-1.1,1.38-.49,1.78-.55c1.02-.17,1.96-.12,2.8.13s1.58.67,2.21,1.23c.63.57,1.14,1.25,1.54,2.06.4.81.67,1.69.83,2.63Zm-5.5,1.33c-.08-.52-.27-.9-.55-1.13-.28-.23-.7-.3-1.24-.21-.4.06-.8.2-1.18.41-.39.21-.74.43-1.05.66.34,1.57.62,3.14.86,4.71.4-.21.8-.46,1.21-.75.41-.29.77-.63,1.09-1.01.32-.38.57-.79.74-1.23.18-.44.22-.92.14-1.44Z"/>
            <path class="cls-1" d="m93.08,101.92c.21.35.43.78.66,1.31.23.52.4,1.06.49,1.61.09.55.08,1.06-.03,1.55-.11.48-.41.87-.9,1.16-.64.39-1.27.44-1.87.17s-1.17-.7-1.71-1.27c-.53-.57-1.02-1.18-1.45-1.85-.43-.66-.78-1.19-1.04-1.58-1.13.96-2.25,1.89-3.38,2.78.21.42.43.96.67,1.62.24.66.41,1.33.51,2.02.1.69.08,1.35-.06,1.97-.13.62-.47,1.1-1.01,1.43-.42.25-.83.29-1.25.13-.42-.16-.81-.42-1.19-.76-.37-.34-.71-.73-1-1.16-.29-.43-.53-.79-.71-1.09-.6-.99-1.11-2.02-1.53-3.08-.43-1.06-.82-2.13-1.19-3.21-.2-.57-.42-1.24-.65-2.03s-.44-1.61-.63-2.49c-.18-.87-.32-1.77-.4-2.68-.08-.91-.08-1.77.02-2.59.1-.82.32-1.57.67-2.25s.86-1.23,1.54-1.64c.66-.4,1.32-.6,1.99-.59.67,0,1.33.14,1.99.4.66.27,1.3.64,1.91,1.11.62.47,1.2.97,1.75,1.51s1.06,1.07,1.54,1.61c.48.54.91,1.02,1.28,1.44.91,1,1.79,2.02,2.64,3.09.85,1.06,1.63,2.18,2.33,3.34Zm-8.86-3.31c-.13-.21-.35-.54-.66-1.01s-.66-.91-1.04-1.33c-.38-.43-.77-.77-1.17-1.04-.41-.26-.77-.3-1.08-.11-.17.11-.27.32-.28.65-.01.33.02.71.12,1.14.09.43.22.89.39,1.38.17.49.34.96.51,1.4.17.44.34.83.5,1.18s.27.59.34.74c.99-.72,1.94-1.46,2.84-2.25l-.46-.76Z"/>
            <path class="cls-1" d="m92.69,78.58c.08.06.25.33.5.79s.55,1.04.89,1.74.72,1.5,1.14,2.38.84,1.79,1.27,2.72c.43.93.85,1.85,1.27,2.74.42.9.79,1.71,1.13,2.45s.61,1.35.84,1.86c.23.5.37.82.43.94.24-.62.52-1.22.84-1.81.32-.59.69-1.15,1.11-1.67.21-.25.45-.5.72-.75s.57-.45.88-.59.64-.22.97-.22c.33,0,.66.13.99.4.35.29.56.66.64,1.12s.07.96-.03,1.5c-.1.54-.27,1.1-.52,1.68-.25.59-.52,1.15-.81,1.7-.29.55-.59,1.05-.9,1.51-.31.46-.58.82-.81,1.11-.3.36-.64.74-1.02,1.15-.39.41-.81.75-1.28,1.02s-.94.43-1.43.46-.98-.16-1.48-.57c-.34-.28-.73-.77-1.16-1.45-.43-.68-.84-1.41-1.24-2.19-.4-.78-.77-1.54-1.1-2.31-.33-.76-.59-1.36-.78-1.81-.55-1.35-1.09-2.69-1.63-4.04-.54-1.35-1.09-2.69-1.67-4.04-.14.81-.37,1.67-.69,2.59-.32.92-.74,1.69-1.26,2.32-.18.22-.4.42-.67.62-.26.19-.53.34-.81.44s-.56.13-.86.1c-.29-.03-.56-.15-.81-.35-.41-.33-.68-.78-.8-1.33-.13-.55-.15-1.16-.08-1.82.07-.66.22-1.36.45-2.08.23-.72.49-1.42.8-2.08.31-.67.63-1.28.96-1.84.33-.56.63-1.01.92-1.36.75-.91,1.54-1.51,2.38-1.79.84-.28,1.74-.03,2.69.76Z"/>
            <path class="cls-1" d="m95.6,69.45c.35.16.64.37.85.65.21.28.36.59.44.94.08.35.12.71.11,1.08,0,.37-.05.72-.12,1.04,2.09.96,4.08,1.92,5.98,2.9,1.9.98,3.84,2.05,5.81,3.22l.07-.17c.13-.3.29-.58.48-.84s.42-.47.68-.63c.26-.16.54-.26.83-.3.29-.04.61.02.94.16.43.19.74.49.94.89s.31.88.35,1.41c.03.54,0,1.11-.08,1.71-.09.6-.21,1.2-.36,1.77s-.32,1.11-.49,1.61c-.17.5-.33.9-.46,1.2-.1.22-.23.49-.39.81-.16.32-.35.6-.57.85-.22.25-.47.43-.74.56-.28.12-.57.12-.89-.02-.39-.17-.71-.4-.94-.7-.24-.29-.42-.62-.55-.99-.13-.37-.2-.74-.2-1.13,0-.39.03-.77.1-1.14-.97-.58-1.93-1.14-2.9-1.7-.97-.56-1.96-1.08-2.99-1.57-1.04-.5-2.08-1-3.09-1.49-1.02-.49-2.04-.98-3.06-1.47-.04.14-.08.27-.12.38-.04.12-.08.22-.12.31-.11.26-.26.53-.45.8-.19.27-.41.51-.66.71-.25.2-.52.34-.8.43-.28.09-.58.06-.9-.08-.63-.28-1.04-.77-1.22-1.48s-.22-1.48-.12-2.31c.1-.83.27-1.65.52-2.45.25-.8.48-1.43.68-1.9.11-.26.28-.6.51-1.01.22-.41.49-.8.81-1.16.31-.36.65-.65,1.01-.86.36-.21.73-.23,1.12-.06Z"/>
          </g>
        </g>
      </g>
    </g>
  </g>
</svg>