<?xml version="1.0" encoding="UTF-8"?>
<svg id="Layer_2" data-name="Layer 2" xmlns="http://www.w3.org/2000/svg" viewBox="0 0 120 120">
  <defs>
    <style>
      .cls-1 {
        fill: #fff;
      }

      .cls-2 {
        fill: #ccd0d9;
      }

      .cls-3 {
        fill: #242830;
      }

      .cls-4 {
        fill: #4c535f;
      }
    </style>
  </defs>
  <g id="Card">
    <g id="Icon">
      <g id="Pearl">
        <g id="Boba">
          <circle class="cls-3" cx="60" cy="60" r="60"/>
          <path class="cls-4" d="m88,78c10.52,3.51,29-4,20.7,11.47-8.92,16.63-27.78,26.58-47.99,26.58-31.32,0-56.71-25.48-56.71-56.92,0-6.13,1.25-13.37,3.05-17.65,6.95-16.48,7.95,1.52,10.95,4.52,7,7,14.42,2.72,27,6,23,6,37,24,43,26Z"/>
          <path class="cls-2" d="m59.19,16.76c-3.74,26.73,49.88,18.93,29.93,0-6.16-5.85-28.07-13.26-29.93,0Z"/>
          <path class="cls-2" d="m93.11,37.78c-2.46,2.43-5.13,8.03-2.09,11s5.53,7.03,9.37,5.67c7.9-2.81,7.02-10.97,3.59-16.43-3.86-6.13-7.9-3.17-10.86-.24Z"/>
        </g>
      </g>
      <g id="Names_W" data-name="Names W">
        <g id="PM">
          <g id="VICTORIA">
            <path class="cls-1" d="m48.67,95.34c-.34.65-.8,1.33-1.38,2.05-.58.72-1.21,1.43-1.88,2.13-.67.7-1.36,1.37-2.04,2.01s-1.3,1.22-1.85,1.73c-.35.32-.76.73-1.24,1.23-.48.5-1,1.01-1.56,1.54s-1.15,1.05-1.76,1.56-1.21.93-1.8,1.28-1.17.58-1.72.7c-.56.12-1.06.07-1.51-.17-.38-.2-.65-.56-.83-1.08s-.28-1.14-.32-1.83c-.04-.7-.03-1.44.04-2.25s.15-1.58.25-2.33.22-1.43.35-2.05c.13-.62.23-1.09.31-1.42.37-1.59.77-3.19,1.19-4.79.42-1.6,1.01-3.12,1.76-4.56.19-.36.4-.72.64-1.09s.51-.68.83-.93c.31-.25.65-.41,1.02-.48.37-.07.79.02,1.26.26.4.21.65.62.75,1.23.1.62.11,1.34.01,2.19-.1.84-.26,1.76-.48,2.74-.23.98-.46,1.94-.7,2.89-.24.94-.46,1.82-.66,2.65-.2.82-.32,1.5-.37,2.02.3-.3.73-.75,1.3-1.33.57-.59,1.21-1.22,1.92-1.9.71-.68,1.46-1.38,2.25-2.08.79-.7,1.55-1.31,2.29-1.83.74-.52,1.42-.9,2.06-1.15.63-.24,1.15-.26,1.57-.04.31.16.52.36.64.61s.18.52.16.81c-.01.29-.07.58-.17.88-.1.29-.21.57-.34.82Z"/>
            <path class="cls-1" d="m58.08,95.82c-.07.38-.22.7-.44.97-.22.27-.5.48-.81.64-.32.16-.66.28-1.03.35s-.71.12-1.04.12c-.45,2.25-.94,4.41-1.45,6.49-.51,2.07-1.12,4.21-1.81,6.39l.18.03c.32.06.63.15.92.28.3.13.55.3.77.51.22.22.38.46.48.74.1.28.12.6.06.96-.08.46-.3.83-.65,1.12-.35.29-.78.51-1.3.66s-1.07.26-1.68.31c-.61.05-1.21.07-1.81.06-.6-.02-1.16-.05-1.68-.11-.53-.06-.95-.11-1.27-.17-.24-.04-.53-.11-.88-.19s-.66-.2-.96-.36c-.29-.16-.53-.36-.71-.6-.18-.24-.24-.53-.18-.87.08-.42.23-.78.46-1.08.23-.3.51-.55.84-.76.33-.21.68-.36,1.06-.46.38-.1.76-.15,1.13-.17.34-1.07.67-2.14.99-3.21.32-1.07.6-2.16.85-3.27.25-1.13.49-2.25.74-3.35.24-1.1.49-2.21.73-3.32-.14,0-.28-.01-.4-.03-.12-.01-.23-.03-.33-.05-.28-.05-.57-.14-.88-.25-.31-.12-.59-.28-.84-.48-.25-.2-.45-.43-.6-.68-.15-.25-.19-.55-.13-.89.12-.68.51-1.19,1.16-1.52.65-.34,1.39-.55,2.22-.65.83-.1,1.67-.11,2.5-.05.83.06,1.5.14,2,.23.28.05.64.14,1.1.26.45.12.89.3,1.31.52.42.22.78.48,1.07.78.29.3.39.66.31,1.08Z"/>
            <path class="cls-1" d="m70.6,99.54c.04.38.04.79,0,1.23-.04.43-.15.84-.31,1.23-.16.39-.39.72-.69.99-.3.28-.68.44-1.14.49-.71.08-1.25,0-1.62-.21-.37-.22-.65-.51-.83-.88-.18-.37-.3-.77-.36-1.2-.06-.43-.12-.84-.18-1.22-.06-.38-.16-.69-.3-.93-.14-.24-.39-.34-.75-.3-.4.04-.74.23-1.01.55-.27.33-.49.73-.67,1.22-.17.49-.3,1.03-.39,1.64-.09.6-.15,1.2-.18,1.78s-.04,1.14-.02,1.66c.01.52.04.94.07,1.26.05.42.12.93.21,1.51.09.58.25,1.13.47,1.65.22.52.51.95.87,1.29.36.34.85.48,1.45.41.4-.04.79-.14,1.17-.28.37-.14.74-.3,1.11-.47.37-.17.75-.33,1.13-.47s.78-.24,1.18-.28c.46-.05.87.1,1.21.44.34.34.54.74.59,1.21.07.65-.07,1.27-.41,1.87-.34.6-.79,1.14-1.34,1.63s-1.16.89-1.83,1.21-1.29.51-1.85.57c-1.45.16-2.72-.04-3.8-.59-1.08-.55-1.99-1.31-2.73-2.28-.74-.97-1.31-2.09-1.72-3.34-.41-1.25-.68-2.52-.82-3.79-.09-.85-.11-1.79-.06-2.81.05-1.03.19-2.07.4-3.12.21-1.05.52-2.08.91-3.09.39-1,.88-1.9,1.47-2.7.59-.8,1.28-1.47,2.07-2,.79-.53,1.69-.86,2.7-.96.99-.11,1.84.05,2.56.48s1.32.99,1.81,1.71c.49.71.86,1.51,1.12,2.39.26.88.43,1.73.52,2.53Z"/>
            <path class="cls-1" d="m81.34,88.92c.2.47.2.97,0,1.51s-.49,1.06-.88,1.57c-.39.51-.81.98-1.27,1.4-.46.42-.85.74-1.17.97.47,1.5.97,2.98,1.51,4.45.53,1.46,1.11,2.91,1.73,4.35.33.76.67,1.51,1.04,2.24.36.73.7,1.47,1.02,2.21.15.34.27.72.38,1.15.11.43.16.86.15,1.28,0,.42-.1.82-.27,1.18-.17.36-.47.63-.88.81-.48.21-.93.24-1.34.1-.41-.15-.77-.38-1.1-.7-.33-.32-.61-.69-.86-1.11-.25-.41-.44-.8-.6-1.15-.52-1.1-1.03-2.21-1.54-3.33-.51-1.12-1.01-2.25-1.5-3.39-.41-.95-.81-1.89-1.2-2.8-.39-.92-.78-1.85-1.19-2.8-.25.15-.5.29-.76.43-.26.14-.53.26-.81.38-.22.1-.53.2-.91.31-.38.11-.77.18-1.16.2-.39.02-.75-.02-1.08-.13-.33-.11-.58-.33-.72-.67-.24-.56-.23-1.14.02-1.75.26-.61.66-1.21,1.21-1.82.55-.6,1.19-1.19,1.93-1.76.74-.57,1.49-1.1,2.24-1.57.76-.47,1.47-.88,2.12-1.23s1.17-.61,1.54-.77c.35-.15.74-.3,1.15-.45.41-.15.83-.23,1.24-.25.41-.02.79.05,1.13.21.35.16.62.47.82.94Z"/>
            <path class="cls-1" d="m97.92,102.4c-.93.82-1.94,1.31-3.03,1.45-1.09.14-2.21.02-3.36-.36-1.14-.38-2.28-1-3.42-1.83-1.14-.84-2.21-1.83-3.22-2.97-.94-1.06-1.78-2.25-2.52-3.55-.74-1.3-1.25-2.61-1.55-3.92-.3-1.31-.32-2.58-.08-3.8.25-1.22.88-2.29,1.92-3.21,1-.89,2.08-1.36,3.24-1.43,1.15-.06,2.31.16,3.48.66,1.16.5,2.31,1.21,3.42,2.11,1.12.91,2.15,1.9,3.09,2.96,1.05,1.19,1.93,2.41,2.63,3.68.7,1.27,1.17,2.51,1.41,3.74.24,1.23.2,2.4-.1,3.51-.3,1.11-.94,2.1-1.91,2.96Zm-11.02-12.96c-.29.26-.43.59-.44,1,0,.41.09.86.29,1.35.19.49.47,1,.82,1.52.35.52.74,1.01,1.15,1.48.47.53.98,1.03,1.52,1.5.54.47,1.07.86,1.58,1.16.51.3.99.49,1.42.57.43.08.8-.01,1.08-.27.33-.3.45-.7.35-1.21-.1-.51-.3-1.05-.61-1.62-.3-.57-.66-1.13-1.07-1.66s-.76-.97-1.06-1.3c-.36-.41-.77-.82-1.23-1.23-.46-.41-.92-.75-1.38-1.03-.47-.28-.91-.46-1.34-.54-.43-.08-.79.01-1.1.28Z"/>
            <path class="cls-1" d="m99.87,70.43c1.24.65,2.21,1.52,2.9,2.61.69,1.09,1.17,2.31,1.43,3.66.58-.06,1.24-.1,1.98-.1.74,0,1.49.03,2.25.12.77.09,1.51.22,2.23.4.72.18,1.35.41,1.89.69.58.3,1.02.71,1.34,1.23.31.52.3,1.11-.05,1.78-.29.56-.81.9-1.56,1.02-.75.12-1.58.15-2.5.08-.91-.07-1.82-.18-2.73-.32s-1.66-.22-2.25-.23c-.06.38-.1.76-.13,1.14-.02.38-.06.76-.1,1.15.39.22.92.54,1.59.94.67.41,1.31.86,1.91,1.37.61.51,1.08,1.05,1.43,1.62.35.57.38,1.12.1,1.66-.31.59-.79.93-1.45,1-.66.07-1.35,0-2.09-.21-.74-.21-1.46-.49-2.16-.83-.7-.34-1.25-.62-1.65-.82-.85-.44-1.67-.89-2.47-1.35s-1.63-.91-2.47-1.35c-.77-.4-1.56-.79-2.35-1.17-.79-.38-1.58-.77-2.37-1.18-.18-.09-.41-.21-.69-.36-.28-.15-.56-.31-.84-.49s-.55-.36-.8-.54-.44-.35-.55-.53c-.28-.38-.43-.97-.44-1.79,0-.82.05-1.68.19-2.58.14-.9.32-1.76.54-2.57.23-.81.43-1.39.62-1.75.48-.92,1.07-1.64,1.78-2.17.71-.52,1.48-.87,2.31-1.03.83-.16,1.69-.16,2.58,0,.89.16,1.76.47,2.6.91Zm-2.22,5.2c-.47-.24-.88-.32-1.24-.23-.36.09-.66.38-.91.86-.19.36-.31.76-.38,1.19-.07.44-.1.85-.09,1.24,1.46.67,2.89,1.38,4.29,2.13.07-.44.11-.92.12-1.42,0-.5-.05-.99-.16-1.47-.12-.48-.3-.93-.54-1.33-.25-.4-.61-.73-1.08-.97Z"/>
            <path class="cls-1" d="m96.78,58.59c.38.07.71.21.98.43s.49.49.65.81c.16.32.28.66.36,1.02.08.36.12.71.13,1.04,2.25.43,4.42.9,6.5,1.39,2.08.49,4.22,1.08,6.41,1.74l.03-.18c.06-.32.15-.63.27-.93.12-.3.29-.56.51-.78.21-.22.46-.38.74-.49.28-.11.59-.13.95-.07.46.08.84.29,1.13.64.29.35.51.78.67,1.29.16.51.27,1.07.33,1.68.06.61.08,1.21.07,1.81-.01.6-.04,1.16-.09,1.69-.05.53-.1.95-.16,1.27-.04.24-.1.53-.18.88-.08.35-.2.67-.35.96-.15.29-.35.53-.59.72-.24.19-.53.25-.87.19-.42-.07-.78-.22-1.08-.45-.3-.23-.56-.5-.77-.83-.21-.32-.37-.68-.47-1.05-.1-.38-.16-.75-.17-1.13-1.08-.33-2.15-.65-3.22-.96-1.07-.31-2.16-.58-3.28-.81-1.13-.24-2.25-.47-3.36-.71-1.1-.23-2.21-.47-3.33-.7,0,.14-.01.28-.02.4-.01.12-.03.23-.04.33-.05.28-.13.58-.25.88-.12.31-.27.59-.47.85-.2.25-.42.46-.68.61s-.55.2-.89.14c-.68-.12-1.19-.5-1.53-1.15-.34-.65-.56-1.39-.67-2.22-.1-.83-.13-1.67-.08-2.5.05-.84.12-1.5.21-2,.05-.28.13-.65.25-1.1.12-.45.29-.89.51-1.32.22-.43.48-.78.77-1.07.3-.29.66-.4,1.08-.32Z"/>
            <path class="cls-1" d="m110.8,42.58c.4-.06.89-.1,1.46-.11s1.13.04,1.67.17,1.01.33,1.42.62c.4.29.64.72.73,1.28.11.74-.08,1.34-.57,1.79-.49.45-1.1.81-1.83,1.09-.73.27-1.48.48-2.26.63s-1.4.26-1.86.35c.46,1.41.88,2.81,1.27,4.19.47-.03,1.05-.03,1.76,0,.7.03,1.39.13,2.06.31.67.18,1.27.45,1.8.81s.83.86.93,1.48c.07.48-.05.89-.36,1.21s-.7.59-1.16.8c-.46.21-.95.37-1.46.48-.51.11-.93.18-1.27.23-1.15.17-2.29.25-3.43.23-1.14-.02-2.28-.06-3.42-.14-.6-.03-1.31-.09-2.12-.18s-1.66-.21-2.54-.38-1.75-.39-2.62-.66-1.67-.61-2.38-1.02c-.72-.41-1.32-.9-1.82-1.49s-.8-1.27-.92-2.05c-.11-.76-.04-1.45.22-2.06.26-.61.64-1.17,1.14-1.68.5-.51,1.09-.95,1.76-1.34.67-.39,1.36-.73,2.07-1.03.71-.3,1.4-.57,2.08-.8.68-.23,1.29-.44,1.82-.62,1.27-.45,2.56-.87,3.87-1.25s2.64-.67,3.98-.87Zm-6.47,6.9c-.24.04-.63.11-1.18.22-.55.11-1.09.26-1.63.44-.54.18-1.01.41-1.41.69s-.58.59-.52.96c.03.2.19.37.49.51.3.14.66.25,1.1.33.43.08.91.14,1.43.17.52.04,1.02.06,1.49.07.47.01.9.01,1.28,0s.65-.02.81-.03c-.28-1.19-.6-2.35-.98-3.49l-.88.13Z"/>
          </g>
        </g>
      </g>
    </g>
  </g>
</svg>